<svg id="Layer_1" data-name="Layer 1" xmlns="http://www.w3.org/2000/svg" xmlns:xlink="http://www.w3.org/1999/xlink" viewBox="0 0 366.34 366.34"><defs><style>.cls-1{fill:url(#linear-gradient);}.cls-2{fill:#e18477;}.cls-3{fill:#a76962;}.cls-4{fill:#00214e;}.cls-5{fill:url(#linear-gradient-2);}.cls-6{fill:none;stroke:#00214e;stroke-miterlimit:10;}.cls-7{fill:url(#linear-gradient-3);}.cls-8{fill:#ff2609;}.cls-9{fill:#f2d4cf;}.cls-10{fill:#fff;}</style><linearGradient id="linear-gradient" x1="87.83" y1="312.28" x2="245.56" y2="104.06" gradientUnits="userSpaceOnUse"><stop offset="0" stop-color="#16243f"/><stop offset="1" stop-color="#6878b1"/></linearGradient><linearGradient id="linear-gradient-2" x1="103.72" y1="136.5" x2="185.85" y2="68.22" xlink:href="#linear-gradient"/><linearGradient id="linear-gradient-3" x1="69.93" y1="271.9" x2="296.41" y2="271.9" gradientUnits="userSpaceOnUse"><stop offset="0" stop-color="#315676"/><stop offset="1" stop-color="#e1b9e0"/></linearGradient></defs><title>Artboards_Diversity_Avatars_by_Netguru</title><path class="cls-1" d="M188.53,287.7c-16.55,1.06-32.6.47-49,.19-18.65,0-40.88,4.86-54.85-11.39-9.66-11.24-8.5-28.29-3.52-42.25,3.51-9.83,8.72-19.88,6.78-30.14-1.47-7.77-6.85-14.22-9.24-21.75-2.33-7.34-1.67-16.32,2.31-23,3.63-6.12,9.47-9.29,10.68-17.05.66-4.26-.52-8.55-1.21-12.81-5.65-34.91,22.61-59.35,50.46-74,17.08-9,37.59-13.12,56-5.54a13.29,13.29,0,0,0,4.32,1.29,21.77,21.77,0,0,0,4.08-.56c22.9-3.38,52.56,37.46,46.24,58.17-1.92,6.27-4.94,12.77-3.24,19.11,2.51,9.34,14.29,14.3,15.75,23.86,1.58,10.31-9.95,19.54-7.68,29.73,1.34,6,7.05,9.92,10.67,14.93a24.17,24.17,0,0,1,4.47,13,23.68,23.68,0,0,1-1.15,8.52c-2.7,8.15-9.86,15.56-8.07,24,2.12,10,15,13.54,14.33,24.92-.37,6.08-5.7,10.79-11.33,13.1a76.62,76.62,0,0,1-12.48,3.54c-3.14.7-5.91.07-9.05.39-8.74.89-17.36,2.26-26.16,2.76C208,287.2,198.23,287.08,188.53,287.7Z"/><path class="cls-2" d="M296.41,282a184.56,184.56,0,0,1-226.48-1l48.66-22.81a47.68,47.68,0,0,0,4.35-2.34l1.12-.7c.4-.25.79-.51,1.18-.78a46.54,46.54,0,0,0,14.67-16.47c4-7.55,5.32-15.89,5.38-24.39,0-5.72-.31-11.44-.37-17.17q-.06-4.76-.1-9.51l2,1,5.2,2.69,30.29,5.15,31.12,5.3.94,32,.47,15.87,11.47,4.67,9,3.64Z"/><path class="cls-3" d="M214.32,224.69c-2.72,1.68-5.29,2.47-7.54,2.23-14.79-1.59-43.64-13.18-61.8-34.63q0-1.57-.06-3.15-.06-4.75-.1-9.51l2,1,5.2,2.69,30.29,5.15,31.12,5.3Z"/><circle class="cls-2" cx="119.82" cy="154.58" r="17"/><circle class="cls-3" cx="125.82" cy="152.58" r="17"/><path class="cls-2" d="M235.36,129.11C247.1,169.8,222.16,219,206.82,219c-21,0-72-16.77-83.73-57.46S127,80.6,158,71.65,223.61,88.43,235.36,129.11Z"/><path class="cls-4" d="M169.92,136.18c6.1,0,6.1,9.38,0,9.42h-.28c-6.1,0-6.1-9.37,0-9.42h.28Z"/><path class="cls-4" d="M220,134.79c5.67,0,5.67,8.7,0,8.75h-.25c-5.66,0-5.66-8.71,0-8.75H220Z"/><path class="cls-5" d="M198.08,79.8c-.12.27-.24.55-.37.83a67,67,0,0,1-11.44,16.91c-9.25,10.2-20.84,18.16-32.86,24.77a192.39,192.39,0,0,1-21.48,10.54c-10.63,4.23-19.64,6.34-19.93,6.64-.93-11.89-7.43-36.83,24.82-61.25,26-19.67,63.69-18.13,63.69-18.13C200.39,67.52,201,73,198.08,79.8Z"/><path class="cls-6" d="M198.4,131c-.08.35,8.36,36.41,8.36,36.41h-12.5"/><path class="cls-6" d="M209.86,120.8a31.18,31.18,0,0,1,22.85-2.16"/><path class="cls-6" d="M154.75,124.5a36.68,36.68,0,0,1,31.23-1"/><path class="cls-7" d="M296.41,282a184.56,184.56,0,0,1-226.48-1l48.66-22.81a46.83,46.83,0,0,0,6.65-3.82c.64-.44,1.28-.9,1.89-1.38a46.35,46.35,0,0,0,12.78-15.09,44.69,44.69,0,0,0,4.64-14.48,28.66,28.66,0,0,0,2.22,1.94,95.14,95.14,0,0,0,19.82,11.26,99,99,0,0,0,10.46,3.69,93.52,93.52,0,0,0,33,3.49c1.54-.12,3.09-.27,4.63-.38l.15,5.08v.33l12.1,4.92Z"/><rect class="cls-8" x="125.22" y="86.33" width="28.06" height="9.73" rx="4.86" transform="translate(41.79 -43.74) rotate(20.94)"/><rect class="cls-9" x="118.57" y="101.17" width="28.06" height="9.73" rx="4.86" transform="translate(46.65 -40.39) rotate(20.94)"/><path class="cls-10" d="M172.41,174.65a1.85,1.85,0,0,1,2.68-.51c2.08,1.47,5.88,4.56,11.28,5.64,7.36,1.46,13.75-1.48,15.27.42.86,1.07-.19,2.37-2.2,4.05a19.74,19.74,0,0,1-14.86,3.68c-7.08-1.32-12.4-9.53-12.4-12.43A1.66,1.66,0,0,1,172.41,174.65Z"/></svg>