<svg id="Layer_1" data-name="Layer 1" xmlns="http://www.w3.org/2000/svg" viewBox="0 0 366.34 366.34"><defs><style>.cls-1{fill:#daaea8;}.cls-2{fill:#f2d4cf;}.cls-3{fill:#845161;}.cls-4{fill:#69303a;}.cls-5{fill:#00214e;}.cls-6,.cls-7{fill:none;stroke-miterlimit:10;}.cls-6{stroke:#00214e;}.cls-7{stroke:#f2d4cf;}.cls-8{fill:#fff;}</style></defs><title>Artboards_Diversity_Avatars_by_Netguru</title><path class="cls-1" d="M192.58,81.19c-1.37,5.88-9.21,8.78-12.52,13.39-3.43,4.79-3.73,13.1-8.66,16.16s-12.51-.34-18.32.62c-5.6.93-11.67,6.68-17.54,5.31s-8.78-9.21-13.4-12.52c-4.78-3.43-13.1-3.74-16.16-8.66s.34-12.51-.62-18.32c-.92-5.61-6.67-11.67-5.3-17.55s9.21-8.78,12.52-13.39c3.43-4.79,3.73-13.1,8.66-16.16s12.51.34,18.32-.62c5.6-.93,11.67-6.67,17.55-5.3s8.77,9.2,13.39,12.51c4.78,3.43,13.1,3.74,16.16,8.66s-.34,12.52.62,18.33C188.21,69.25,194,75.32,192.58,81.19Z"/><path class="cls-2" d="M210.4,216c-2.52,3-4.7,6.28-7.27,9.23-13.62,15.66-43.29,5.37-58-4-10.83-6.85-19-17.18-26-27.94-8.6-13.27-15.79-27.7-18.91-43.2C85.93,79.1,177,48.22,228.07,83.07c19,13,36.17,42.16,32,65.53-2.13,11.86-10.56,22.53-9.66,34.54,1,12.94,12.69,25.27,7.8,37.29-1.92,4.7-6.06,8.06-9.41,11.87-4.53,5.15-7.84,11.59-8.23,18.43s2.45,14,8.09,17.92c-13.93-1.86-22.51-18.54-18.91-32.12,1.18-4.46,3.36-8.62,4.31-13.14s.39-9.77-3.06-12.83c-4.43-3.93-11.65-2.44-16.3,1.22A30.41,30.41,0,0,0,210.4,216Z"/><path class="cls-3" d="M296.41,304.09a184.58,184.58,0,0,1-226.48-1l48.66-22.81a47.6,47.6,0,0,0,4.35-2.33c.38-.23.75-.46,1.12-.71s.79-.5,1.18-.77A46.57,46.57,0,0,0,139.91,260c4-7.54,5.32-15.88,5.38-24.38,0-5.73-.31-11.44-.37-17.18q-.06-4.75-.1-9.51l.19.1,1.79.93,5.2,2.68,30.29,5.15,31.12,5.31.72,24.45.22,7.51.47,15.87,11.47,4.67,9,3.65Z"/><path class="cls-4" d="M214.13,247.52a12,12,0,0,1-7.23,2c-14.79-1.59-43.64-13.18-61.8-34.63q0-1.58-.06-3.15l0-2.79,1.79.93,5.2,2.68,30.29,5.15,31.12,5.31Z"/><path class="cls-5" d="M296.41,304.09a184.56,184.56,0,0,1-226.48-1l48.66-22.81a47.68,47.68,0,0,0,4.35-2.34c23.68,17.41,56.64,28.75,85.06,16,8.06-3.62,15.33-10.05,18.29-18.31l9,3.64Z"/><circle class="cls-3" cx="119.82" cy="176.91" r="17"/><circle class="cls-4" cx="125.82" cy="174.91" r="17"/><path class="cls-3" d="M235.36,151.16C247.1,191.85,222.15,241,206.82,241c-21,0-72-16.77-83.73-57.46S127,102.65,158,93.7,223.61,110.48,235.36,151.16Z"/><path class="cls-2" d="M200.54,101.22c-2.4,4.74-7.4,8.86-10.37,13.71-3.89,6.35-6.83,13.25-10.13,19.92-2.45,5-5.19,9.94-9.33,13.61s-10,5.84-15.31,4.31c-3.64-1.05-6.6-3.65-9.85-5.58s-7.43-3.22-10.77-1.42c-4.92,2.64-4.85,9.81-8.37,14.14-8.08,9.93-22.89-3.45-24.67-12.12-2.61-12.67,7.79-23.26,15.35-32,6.3-7.3,14.83-18.44,24.73-20.87.17,0,58-23,58-23,.52,7.73,3.64,19.16,1.77,26.56A13,13,0,0,1,200.54,101.22Z"/><path class="cls-6" d="M198.4,153.06c-.06.24,5.54,15.88,8.93,25.32a5.26,5.26,0,0,1-4.94,7h-3.64"/><path class="cls-7" d="M209.86,142.85a31.18,31.18,0,0,1,22.85-2.16"/><path class="cls-7" d="M154.75,146.55a36.7,36.7,0,0,1,31.22-1"/><path class="cls-5" d="M172.92,157.63c6.1,0,6.1,9.37,0,9.42h-.28c-6.1-.05-6.1-9.38,0-9.42h.28Z"/><path class="cls-5" d="M223.18,154.54c5.66.05,5.66,8.7,0,8.75h-.26c-5.66,0-5.66-8.7,0-8.75h.26Z"/><path class="cls-6" d="M191.3,179.65a3.37,3.37,0,0,0-3,3.15,2.65,2.65,0,0,0,3.24,2.5"/><path class="cls-8" d="M173.65,194.77a1.86,1.86,0,0,1,2.68-.5c2.07,1.46,5.88,4.56,11.28,5.63,7.36,1.47,13.74-1.48,15.27.42.86,1.07-.19,2.37-2.2,4.05a19.75,19.75,0,0,1-14.86,3.69c-7.08-1.33-12.4-9.53-12.4-12.44A1.68,1.68,0,0,1,173.65,194.77Z"/></svg>