<svg id="Layer_1" data-name="Layer 1" xmlns="http://www.w3.org/2000/svg" xmlns:xlink="http://www.w3.org/1999/xlink" viewBox="0 0 366.34 366.34"><defs><style>.cls-1{fill:#845161;}.cls-2{fill:#f2a196;}.cls-3{fill:#e88870;}.cls-4{fill:#00214e;}.cls-5,.cls-6{fill:none;stroke-miterlimit:10;}.cls-5{stroke:#fff;}.cls-6{stroke:#00214e;}.cls-7{fill:url(#linear-gradient);}.cls-8{fill:#fff;}</style><linearGradient id="linear-gradient" x1="86.18" y1="272.08" x2="312.66" y2="272.08" gradientUnits="userSpaceOnUse"><stop offset="0" stop-color="#16243f"/><stop offset="1" stop-color="#6878b1"/></linearGradient></defs><title>Artboards_Diversity_Avatars_by_Netguru</title><path class="cls-1" d="M198.55,230.49c-10.4-.18-20.81-.68-31.62-1.34-13.47-.83-29.84,2.5-42.7-2.66-12.48-5-20.43-12.93-28.63-23-4.27-5.21-10.86-7.86-17.25-10s-13.06-4.11-18.2-8.47-8.27-11.93-5.33-18c7.23-14.91,30.75-9.93,30.8-32.43,0-7.65-3.41-16.22,1.13-22.38a19.07,19.07,0,0,1,5.54-4.58c10.3-6.35,23.58-5.73,33.8-12,11.54-7.14,9.14-20.65,19.42-30.07a71.87,71.87,0,0,1,11.08-7.94c26.92-16.66,54.75-15.1,82.33.77C253.67,66.9,266.48,82.16,272.51,98c6.69,17.64-6.51,37.25,4.6,52.59,2.52,3.48,5.86,6.3,8.59,9.62,11.44,13.9-6.17,22.46-13.39,31.9-5.79,7.59-4.9,18.69-10.46,26.45-6.45,9-19,10.51-30.09,11.2C220.37,230.51,209.46,230.68,198.55,230.49Z"/><path class="cls-2" d="M312.66,282.21a184.56,184.56,0,0,1-226.48-1l48.66-22.81a47.68,47.68,0,0,0,4.35-2.34l1.12-.7c.4-.25.79-.51,1.18-.78a46.54,46.54,0,0,0,14.67-16.47c4-7.55,5.32-15.89,5.38-24.39,0-4.67-.19-9.34-.31-14q0-1.58-.06-3.15-.06-4.75-.1-9.51l2,1,5.2,2.69,30.29,5.15,31.12,5.3.91,30.9,0,1.07.47,15.87,11.47,4.67,9,3.64Z"/><path class="cls-3" d="M230.57,225.09c-2.72,1.68-5.29,2.47-7.54,2.23-14.79-1.59-43.64-13.18-61.8-34.63q0-1.58-.06-3.15-.06-4.75-.1-9.51l2,1,5.2,2.69,30.29,5.15,31.12,5.3Z"/><circle class="cls-2" cx="136.07" cy="155.03" r="17"/><circle class="cls-3" cx="142.07" cy="153.03" r="17"/><path class="cls-2" d="M251.61,129.29c11.74,40.69-13.21,89.87-28.54,89.87-21,0-72-16.78-83.73-57.46s3.86-80.92,34.86-89.87S239.86,88.61,251.61,129.29Z"/><path class="cls-4" d="M188.45,137.74c6.1,0,6.1,9.38,0,9.42h-.28c-6.1,0-6.1-9.37,0-9.42h.28Z"/><path class="cls-4" d="M238.71,133.9c5.66,0,5.66,8.7,0,8.75h-.26c-5.66-.05-5.66-8.7,0-8.75h.26Z"/><circle class="cls-5" cx="188.43" cy="142.53" r="19"/><circle class="cls-5" cx="241.57" cy="139.53" r="19"/><path class="cls-1" d="M212.9,75.2c-4.3,18.71-13.69,34.59-30.86,46.15-18.51,12.82-38.07,19-59.39,23.26.54-13.11-.9-31.55,5.86-43.25A79.48,79.48,0,0,1,160.82,71c14.8-7.65,37.71-15.15,54.35-9.84A112,112,0,0,1,212.9,75.2Z"/><path class="cls-6" d="M214.65,131.19c-.08.34,7.92,32.34,7.92,32.34h-12.5"/><path class="cls-6" d="M226.11,121A31.08,31.08,0,0,1,249,118.82"/><path class="cls-6" d="M171,124.67a36.7,36.7,0,0,1,31.22-1"/><line class="cls-5" x1="207.43" y1="142.53" x2="222.57" y2="141.24"/><path class="cls-7" d="M312.66,282.21a184.56,184.56,0,0,1-226.48-1l48.66-22.81a46.83,46.83,0,0,0,6.65-3.82c.64-.44,1.28-.9,1.89-1.38a46.35,46.35,0,0,0,12.78-15.09,44.69,44.69,0,0,0,4.64-14.48,28.66,28.66,0,0,0,2.22,1.94,95.14,95.14,0,0,0,19.82,11.26,99,99,0,0,0,10.46,3.69,93.52,93.52,0,0,0,33,3.49c1.54-.12,3.09-.27,4.63-.38l.15,5.08V249l12.1,4.92Z"/><path class="cls-8" d="M188.66,174.82a1.86,1.86,0,0,1,2.68-.5c2.08,1.46,5.88,4.56,11.28,5.64,7.36,1.46,13.74-1.48,15.27.41.86,1.07-.19,2.38-2.2,4a19.69,19.69,0,0,1-14.86,3.69c-7.08-1.33-12.4-9.53-12.4-12.43A1.72,1.72,0,0,1,188.66,174.82Z"/></svg>