<svg id="Layer_1" data-name="Layer 1" xmlns="http://www.w3.org/2000/svg" xmlns:xlink="http://www.w3.org/1999/xlink" viewBox="0 0 366.34 366.34"><defs><style>.cls-1{fill:#845161;}.cls-2{fill:#f2d4cf;}.cls-3{fill:#daaea8;}.cls-4{fill:none;stroke:#00214e;stroke-miterlimit:10;}.cls-5{fill:#e18477;}.cls-6{fill:#00214e;}.cls-7{fill:#fff;}.cls-8{fill:url(#linear-gradient);}</style><linearGradient id="linear-gradient" x1="129.94" y1="139.5" x2="165.4" y2="55.37" gradientUnits="userSpaceOnUse"><stop offset="0.29" stop-color="#845161"/><stop offset="0.52" stop-color="#ad8390"/><stop offset="0.8" stop-color="#845161"/></linearGradient></defs><title>Artboards_Diversity_Avatars_by_Netguru</title><path class="cls-1" d="M258.34,151.53c-1-22.16,3.47-54.24-9.34-73.1-21.57-31.76-67.39-39.1-101.59-26.15a59.59,59.59,0,0,0-7.12,3.24c-19.43,10.4-32.3,30.64-41,50.83-1.93,4.45-3.64,8.9-5.18,13.24a685,685,0,0,0-27.9,104c40.18,14.58,80.87,22.87,123.93,22.66,22.06-.1,48.54.69,69.89-4.34Q260.38,196.71,258.34,151.53Zm-90.42-25.25h0l-4.77-1.39a70.11,70.11,0,0,0,6.37-3.93,71,71,0,0,0,28-36.32c11.94,6.25,22,11.53,28.43,14.76Z"/><path class="cls-2" d="M300.13,281.82a184.56,184.56,0,0,1-226.48-1L122.31,258a47.68,47.68,0,0,0,4.35-2.34l1.12-.7c.4-.25.79-.51,1.18-.78a46.54,46.54,0,0,0,14.67-16.47c4-7.55,5.32-15.89,5.38-24.39,0-5.72-.31-11.44-.37-17.17q-.06-4.76-.1-9.51l2,1,5.2,2.69L186,195.5l31.12,5.3.94,32,.47,15.87L230,253.31l9,3.64Z"/><path class="cls-3" d="M218.07,232.77A60.08,60.08,0,0,1,188,230.42c-21.58-7.25-36.11-24.74-37.48-42.76l5.2,2.69L186,195.5l31.12,5.3Z"/><circle class="cls-2" cx="119.54" cy="154.64" r="17"/><circle class="cls-3" cx="125.54" cy="152.64" r="17"/><path class="cls-2" d="M242.45,127.85c12.46,43.15-11.79,93.25-30.26,95.31-44.63,5-76.34-17.79-88.8-60.94s4.1-85.81,37-95.3S230,84.71,242.45,127.85Z"/><path class="cls-1" d="M202.64,60.76a113.76,113.76,0,0,1-2.27,14.05,89.82,89.82,0,0,1-2.85,9.83,71,71,0,0,1-28,36.32,70.11,70.11,0,0,1-6.37,3.93c-16.95,9.33-35.84,11.18-54.76,14.92.41-9.86.67-20.24,3.65-29.75A44.25,44.25,0,0,1,116,101a79.48,79.48,0,0,1,32.31-30.36,117.68,117.68,0,0,1,11.78-5.27C173.66,60.11,190,56.72,202.64,60.76Z"/><path class="cls-4" d="M213.57,122.58a31.21,31.21,0,0,1,22.86-2.16"/><path class="cls-5" d="M300.13,281.82a184.56,184.56,0,0,1-226.48-1L122.31,258a46.83,46.83,0,0,0,6.65-3.82c.64-.44,1.28-.9,1.89-1.38a46.35,46.35,0,0,0,12.78-15.09,44.69,44.69,0,0,0,4.64-14.48,28.66,28.66,0,0,0,2.22,1.94,95.14,95.14,0,0,0,19.82,11.26,99,99,0,0,0,10.46,3.69,93.52,93.52,0,0,0,33,3.49c1.54-.12,3.09-.27,4.63-.38l.15,5.08v.33l12.1,4.92Z"/><path class="cls-4" d="M173.3,152.62a10.34,10.34,0,0,0,11-10"/><path class="cls-4" d="M216,140.62a9,9,0,0,0,3.3,6.77,26.51,26.51,0,0,0,6.67,4"/><path class="cls-4" d="M165.06,182.88a25.63,25.63,0,0,1,4.57-5.65A24.63,24.63,0,0,1,182.84,171"/><line class="cls-4" x1="190.78" y1="103.4" x2="214.45" y2="103.4"/><line class="cls-4" x1="185" y1="111.22" x2="214.45" y2="111.22"/><path class="cls-6" d="M213.27,162.63c.47.74.9,1.51,1.3,2.3a6.92,6.92,0,0,1,.89,2.43,2.06,2.06,0,0,1-2.4,2.12c-.63-.13-.9.83-.27,1a3.1,3.1,0,0,0,3.64-2.45,5.2,5.2,0,0,0-.7-2.95,26,26,0,0,0-1.6-2.93c-.34-.54-1.21,0-.86.51Z"/><path class="cls-6" d="M196.55,163.79c-.85,1.37-1.85,3.06-1.37,4.74.4,1.36,1.84,2.62,3.31,2.08.6-.21.35-1.18-.26-1-1,.38-2-.68-2.14-1.64-.22-1.33.66-2.65,1.33-3.71.34-.55-.52-1.05-.87-.51Z"/><path class="cls-7" d="M176.13,181.64a1.86,1.86,0,0,1,2.68-.5c2.08,1.46,5.88,4.56,11.28,5.63,7.36,1.47,13.74-1.47,15.27.42.86,1.07-.19,2.38-2.2,4.05a19.69,19.69,0,0,1-14.86,3.69c-7.08-1.33-12.4-9.53-12.4-12.43A1.72,1.72,0,0,1,176.13,181.64Z"/><path class="cls-8" d="M197.52,84.64a71,71,0,0,1-28,36.32,70.11,70.11,0,0,1-6.37,3.93L116,111.2,112,110.06l-12.74-3.71c8.7-20.19,21.57-40.43,41-50.83l6.39,3.15c4.45,2.19,8.93,4.42,13.38,6.67C173.28,72,186.25,78.75,197.52,84.64Z"/><path class="cls-4" d="M158.47,126.28a36.73,36.73,0,0,1,31.22-1"/><ellipse class="cls-6" cx="172.88" cy="139.46" rx="3.27" ry="7.94" transform="matrix(0.07, -1, 1, 0.07, 21.03, 301.58)"/><ellipse class="cls-6" cx="228.81" cy="138.48" rx="7.94" ry="3.27" transform="translate(-18.6 36.9) rotate(-8.86)"/></svg>