<svg id="Layer_1" data-name="Layer 1" xmlns="http://www.w3.org/2000/svg" xmlns:xlink="http://www.w3.org/1999/xlink" viewBox="0 0 366.34 366.34"><defs><style>.cls-1{fill:url(#linear-gradient);}.cls-2{fill:#e18477;}.cls-3{fill:#a76962;}.cls-4{fill:none;stroke:#00214e;stroke-miterlimit:10;}.cls-5{fill:url(#linear-gradient-2);}.cls-6{fill:#845161;}.cls-7{fill:#00214e;}</style><linearGradient id="linear-gradient" x1="71.3" y1="124.45" x2="267.9" y2="124.45" gradientUnits="userSpaceOnUse"><stop offset="0" stop-color="#315676"/><stop offset="1" stop-color="#e1b9e0"/></linearGradient><linearGradient id="linear-gradient-2" x1="77.38" y1="150.26" x2="235.26" y2="34.32" gradientTransform="translate(10.28 -9.29) rotate(0.16)" gradientUnits="userSpaceOnUse"><stop offset="0" stop-color="#315676"/><stop offset="0.21" stop-color="#516889"/><stop offset="0.67" stop-color="#a296ba"/><stop offset="1" stop-color="#e1b9e0"/></linearGradient></defs><title>Artboards_Diversity_Avatars_by_Netguru</title><path class="cls-1" d="M232.53,198.36a437,437,0,0,1-161.23-9,438.44,438.44,0,0,1,34.38-98.9c13.26-27.16,40.89-41.08,70.68-43.44,24.51-1.93,47.64,8.38,60.25,29.37,9.73,16.21,15.79,37.92,19.76,56.35Q262.73,162.3,267.9,192C267.85,191.72,236,197.91,232.53,198.36Z"/><path class="cls-2" d="M296.41,281.19a184.56,184.56,0,0,1-226.48-1l48.66-22.81a47.68,47.68,0,0,0,4.35-2.34l1.12-.7c.4-.25.79-.51,1.18-.78a46.54,46.54,0,0,0,14.67-16.47c4-7.55,5.32-15.89,5.38-24.39,0-5.72-.31-11.44-.37-17.17q-.06-4.76-.1-9.51l2,1,5.2,2.69,30.29,5.15,31.12,5.3.94,32,.47,15.87,11.47,4.67,9,3.64Z"/><path class="cls-3" d="M214.35,232.14a60.08,60.08,0,0,1-30.07-2.35c-21.58-7.25-36.11-24.74-37.48-42.76l5.2,2.69,30.29,5.15,31.12,5.3Z"/><circle class="cls-2" cx="115.82" cy="154.01" r="17"/><circle class="cls-3" cx="121.82" cy="152.01" r="17"/><path class="cls-2" d="M238.73,127.23c12.46,43.14-11.79,93.25-30.26,95.3-44.63,5-76.34-17.79-88.79-60.93s4.1-85.82,37-95.31S226.28,84.08,238.73,127.23Z"/><path class="cls-4" d="M176.52,181.54a29.75,29.75,0,0,0,18.92,8.94"/><path class="cls-5" d="M202.09,71.37a31.72,31.72,0,0,1-1.68,5.56c-7.56,18.54-19.21,34.53-36.15,45.6-20,13.1-39.63,12.47-62,15.63,1.29-8.18.85-14.5,1.13-23.07.43-13.41,6.8-20,15.29-29.79C125,78,133.53,66.9,143.44,64.49L201.5,50.65C202.14,60.64,204.07,61.88,202.09,71.37Z"/><path class="cls-4" d="M209.86,122a31.08,31.08,0,0,1,22.85-2.16"/><path class="cls-4" d="M154.75,125.65a36.75,36.75,0,0,1,31.23-1"/><path class="cls-6" d="M296.41,281.19a184.56,184.56,0,0,1-226.48-1l48.66-22.81a46.83,46.83,0,0,0,6.65-3.82c.64-.44,1.28-.9,1.89-1.38a46.35,46.35,0,0,0,12.78-15.09,44.69,44.69,0,0,0,4.64-14.48,28.66,28.66,0,0,0,2.22,1.94,95.14,95.14,0,0,0,19.82,11.26,99,99,0,0,0,10.46,3.69A93.52,93.52,0,0,0,210,243c1.54-.12,3.09-.27,4.63-.38l.15,5.08V248l12.1,4.92Z"/><path class="cls-4" d="M161.34,182.25a25.58,25.58,0,0,1,4.57-5.64,24.62,24.62,0,0,1,13.22-6.25"/><line class="cls-4" x1="187.06" y1="102.78" x2="210.73" y2="102.78"/><line class="cls-4" x1="181.29" y1="110.59" x2="210.73" y2="110.59"/><path class="cls-4" d="M169.28,153.88a10.36,10.36,0,0,0,11-10"/><path class="cls-4" d="M213.14,141.69a9.07,9.07,0,0,0,3.3,6.78,26.81,26.81,0,0,0,6.67,3.95"/><path class="cls-7" d="M210.43,163.7a26.06,26.06,0,0,1,1.3,2.3,6.92,6.92,0,0,1,.89,2.43,2.06,2.06,0,0,1-2.4,2.13c-.63-.14-.9.83-.27,1a3.09,3.09,0,0,0,3.64-2.45,5.15,5.15,0,0,0-.7-2.94,25.19,25.19,0,0,0-1.6-2.93c-.34-.55-1.21,0-.86.5Z"/><path class="cls-7" d="M193.72,164.87c-.86,1.36-1.86,3.06-1.38,4.73.4,1.36,1.84,2.62,3.31,2.09.61-.22.35-1.19-.26-1-1,.38-2-.68-2.14-1.64-.22-1.32.66-2.64,1.33-3.71.34-.54-.52-1.05-.86-.5Z"/><ellipse class="cls-7" cx="171.78" cy="141.78" rx="3.27" ry="7.94" transform="translate(17.7 302.63) rotate(-85.77)"/><ellipse class="cls-7" cx="223.28" cy="140.14" rx="7.94" ry="3.27" transform="translate(-18.92 36.07) rotate(-8.86)"/></svg>