<svg id="Layer_1" data-name="Layer 1" xmlns="http://www.w3.org/2000/svg" xmlns:xlink="http://www.w3.org/1999/xlink" viewBox="0 0 366.34 366.34"><defs><style>.cls-1{fill:url(#linear-gradient);}.cls-2{fill:url(#linear-gradient-2);}.cls-3{fill:#e18477;}.cls-4{fill:url(#linear-gradient-3);}.cls-5{fill:#a76962;}.cls-6{fill:none;stroke:#00214e;stroke-miterlimit:10;}.cls-7{fill:#00214e;}.cls-8{fill:#fff;}</style><linearGradient id="linear-gradient" x1="101.92" y1="118.46" x2="261.9" y2="118.46" gradientUnits="userSpaceOnUse"><stop offset="0" stop-color="#16243f"/><stop offset="1" stop-color="#6878b1"/></linearGradient><linearGradient id="linear-gradient-2" x1="212.92" y1="68.96" x2="262.83" y2="148.5" xlink:href="#linear-gradient"/><linearGradient id="linear-gradient-3" x1="58.66" y1="280.95" x2="285.14" y2="280.95" xlink:href="#linear-gradient"/></defs><title>Artboards_Diversity_Avatars_by_Netguru</title><path class="cls-1" d="M239.07,155.94a35.93,35.93,0,0,1-5.09,4.41c-10.4,7.53-24.28,10-36.14,14.06-5,1.71-59.22,17.12-59.22,20.47,0-.73-5.31-6-12-12.4A79.91,79.91,0,0,1,107,96.74c10.91-28.67,45.69-48.43,74.82-53C195.71,41.58,212.17,40.37,225,47c6.55,3.41,12.05,8.38,17,13.89q2.34,2.61,4.54,5.33c.63.76,1.25,1.52,1.86,2.29C271.19,97.12,263.12,130.67,239.07,155.94Z"/><path class="cls-2" d="M239.07,155.94a35.93,35.93,0,0,1-5.09,4.41,22.42,22.42,0,0,1-1.15-2.3c-2.64-6-4-12.51-5-19a275.93,275.93,0,0,1-3.17-28.53c-.91-15.34-7.46-23,5.57-34.91a43,43,0,0,1,16.35-9.38c.63.76,1.25,1.52,1.86,2.29C271.19,97.12,263.12,130.67,239.07,155.94Z"/><path class="cls-3" d="M285.14,276.3a184.56,184.56,0,0,1-226.48-1l48.66-22.81a46.83,46.83,0,0,0,6.65-3.82c.64-.44,1.28-.9,1.89-1.38a46.35,46.35,0,0,0,12.78-15.09,44.69,44.69,0,0,0,4.64-14.48,67.91,67.91,0,0,0,.74-9.91c0-5.72-.31-11.44-.37-17.17q-.06-4.75-.1-9.51l2,1,5.2,2.69,2.41.41L171,190l31.12,5.3.94,32,.31,10.46.15,5.08v.33l12.1,4.92Z"/><path class="cls-4" d="M285.14,276.3a184.56,184.56,0,0,1-226.48-1l48.66-22.81a46.83,46.83,0,0,0,6.65-3.82c.64-.44,1.28-.9,1.89-1.38,23.55,16.76,55.69,27.33,83.49,14.82,6.62-3,12.7-7.84,16.3-14.06Z"/><path class="cls-5" d="M203.53,242.79c-10.45.63-22.13-2.07-33-8.34-20.41-11.79-31.32-32.35-27.4-49.21L171,190l31.12,5.3.94,32Z"/><circle class="cls-3" cx="123.71" cy="153.12" r="17"/><circle class="cls-5" cx="129.1" cy="153.12" r="15.22"/><path class="cls-3" d="M129.72,138c.22,2.6.08,5.2.28,7.81q.83,10.74,1.64,21.48L133.16,187c.56,7.26,3.39,11.61,8.12,17.42a85,85,0,0,0,31.26,23.92c11.59,5.17,27.68,10.32,40.05,5.3,12.65-5.13,16.69-19.33,20.95-31.11s8.21-24.73,8-37.45c-.27-17.26-4.84-26.94-4.84-26.94q1.65-10,3.32-19.94c1.25-7.51,2.86-15.35,1-22.9-1.35-5.51-5-9.34-8.78-13.29-4.69-4.83-7-4.66-13.64-2.78A53.71,53.71,0,0,0,190,99.48c-7,9.66-11.1,21.65-20.34,29.18-6.35,5.18-14.24,7.32-22.27,8a45.08,45.08,0,0,1-8.77.19,62.39,62.39,0,0,0-8.85.35l-.17,0C129.67,137.43,129.7,137.7,129.72,138Z"/><path class="cls-6" d="M157.83,130.37a80.58,80.58,0,0,1,28.13-.8"/><path class="cls-6" d="M220.42,129.42a55.11,55.11,0,0,1,17.46-1.21"/><path class="cls-6" d="M166.66,190.25a39.79,39.79,0,0,1,15.25-14.42"/><line class="cls-6" x1="185.93" y1="113.18" x2="217.54" y2="113.18"/><line class="cls-6" x1="181.91" y1="119.71" x2="213.51" y2="119.71"/><path class="cls-6" d="M185.14,147.1a11.66,11.66,0,0,1-7,9.3,24,24,0,0,1-6.41,1.37"/><path class="cls-6" d="M218,144.82A34.8,34.8,0,0,0,221.7,152a10.14,10.14,0,0,0,6.24,4"/><path class="cls-7" d="M214.62,166.19c.47.75.9,1.51,1.3,2.3a6.92,6.92,0,0,1,.89,2.43A2.06,2.06,0,0,1,214.4,173c-.62-.13-.89.83-.26,1a3.1,3.1,0,0,0,3.64-2.45,5.2,5.2,0,0,0-.7-2.95,27.73,27.73,0,0,0-1.6-2.93c-.34-.54-1.21,0-.86.51Z"/><path class="cls-7" d="M197.9,167.36c-.85,1.36-1.85,3.06-1.37,4.73.4,1.36,1.84,2.62,3.31,2.09.6-.22.34-1.19-.26-1-1.05.38-2-.68-2.14-1.64-.22-1.32.66-2.65,1.33-3.71.34-.55-.53-1.05-.87-.5Z"/><path class="cls-8" d="M178.71,186.77a1.86,1.86,0,0,1,2.69-.5c2.07,1.46,5.88,4.56,11.28,5.63,7.36,1.47,13.74-1.48,15.27.42.86,1.07-.19,2.37-2.21,4.05a19.77,19.77,0,0,1-14.85,3.69c-7.08-1.33-12.4-9.53-12.4-12.44A1.76,1.76,0,0,1,178.71,186.77Z"/><ellipse class="cls-7" cx="176.02" cy="145.68" rx="3.27" ry="7.94" transform="matrix(0.07, -1, 1, 0.07, 17.75, 310.47)"/><ellipse class="cls-7" cx="227.52" cy="144.03" rx="7.94" ry="3.27" transform="translate(-19.47 36.77) rotate(-8.86)"/></svg>