<svg id="Layer_1" data-name="Layer 1" xmlns="http://www.w3.org/2000/svg" viewBox="0 0 366.34 366.34"><defs><style>.cls-1{fill:#f2d4cf;}.cls-2{fill:#f2a196;}.cls-3{fill:#e88870;}.cls-4,.cls-5{fill:none;stroke-miterlimit:10;}.cls-4{stroke:#fff;}.cls-5{stroke:#00214e;}.cls-6{fill:#00214e;}.cls-7{fill:#fff;}</style></defs><title>Artboards_Diversity_Avatars_by_Netguru</title><path class="cls-1" d="M178.36,257.74c-34.66.17-62.28-3.7-95.79-12.55-13-3.43-44.43-15.36-44.43-15.36,17.57-33.9,33.35-68.6,48.15-103.79,10.09-24,23.36-52.44,49.34-62.28,42.06-15.93,98.88-.44,110.84,46.88,5.49,21.75,4,45.45,4.74,67.69.8,23.71,1.19,47.45,3.57,71.07C232,257.83,202.46,257.63,178.36,257.74Z"/><path class="cls-2" d="M288.35,293.3a184.56,184.56,0,0,1-226.48-1l48.66-22.81a47.68,47.68,0,0,0,4.35-2.34l1.12-.7c.4-.25.79-.51,1.18-.78a46.54,46.54,0,0,0,14.67-16.47c4-7.55,5.32-15.89,5.38-24.39,0-5.72-.31-11.44-.37-17.17q-.06-4.75-.1-9.51l2,1,5.2,2.69L174.23,207l31.12,5.3.94,32,.47,15.87,11.47,4.67,9,3.64Z"/><path class="cls-3" d="M206.29,244.25a60.08,60.08,0,0,1-30.07-2.35c-21.58-7.25-36.11-24.74-37.48-42.76l5.2,2.69L174.23,207l31.12,5.3Z"/><circle class="cls-2" cx="107.76" cy="166.12" r="17"/><circle class="cls-3" cx="113.76" cy="164.12" r="17"/><path class="cls-2" d="M230.67,139.34c12.45,43.14-11.79,93.25-30.26,95.3-44.64,5-76.34-17.79-88.8-60.93s4.1-85.82,37-95.31S218.21,96.19,230.67,139.34Z"/><circle class="cls-4" cx="164.12" cy="155.62" r="19"/><circle class="cls-4" cx="217.26" cy="152.62" r="19"/><path class="cls-1" d="M188.59,86.29c-4.31,18.7-13.7,34.58-30.86,46.14-18.52,12.83-39.81,14.64-61.13,18.86.54-13.11.83-27.15,7.59-38.84A79.48,79.48,0,0,1,136.5,82.09c14.81-7.65,37.72-15.15,54.36-9.85A114.07,114.07,0,0,1,188.59,86.29Z"/><path class="cls-5" d="M190.34,144.28c-.08.34,9.79,38.84,9.79,38.84h-12.5"/><path class="cls-5" d="M201.79,134.06a31.14,31.14,0,0,1,22.85-2.15"/><path class="cls-5" d="M146.68,137.76a36.76,36.76,0,0,1,31.23-1"/><line class="cls-4" x1="183.12" y1="155.62" x2="198.26" y2="154.33"/><path class="cls-6" d="M288.35,293.3a184.56,184.56,0,0,1-226.48-1l48.66-22.81a46.83,46.83,0,0,0,6.65-3.82c.64-.44,1.28-.9,1.89-1.38a46.35,46.35,0,0,0,12.78-15.09,44.69,44.69,0,0,0,4.64-14.48,28.66,28.66,0,0,0,2.22,1.94,95.14,95.14,0,0,0,19.82,11.26A99,99,0,0,0,169,251.6a93.52,93.52,0,0,0,33,3.49c1.54-.12,3.09-.27,4.63-.38l.15,5.08v.33l12.1,4.92Z"/><path class="cls-5" d="M160.33,164.29a10.34,10.34,0,0,0,11-10"/><path class="cls-5" d="M204.2,152.1a9,9,0,0,0,3.3,6.78,26.94,26.94,0,0,0,6.67,4"/><path class="cls-5" d="M153.28,194.36a25.3,25.3,0,0,1,4.56-5.64,24.62,24.62,0,0,1,13.22-6.25"/><line class="cls-5" x1="179" y1="114.88" x2="202.66" y2="114.88"/><line class="cls-5" x1="173.22" y1="122.7" x2="202.66" y2="122.7"/><path class="cls-7" d="M164.34,193.12a1.87,1.87,0,0,1,2.69-.5c2.07,1.46,5.88,4.56,11.27,5.64,7.36,1.46,13.75-1.48,15.28.42.85,1.07-.2,2.37-2.21,4a19.73,19.73,0,0,1-14.85,3.68c-7.09-1.32-12.4-9.53-12.4-12.43A1.83,1.83,0,0,1,164.34,193.12Z"/><path class="cls-6" d="M163,148.72c6.1-.06,6.28,9.26.18,9.43H163c-6.11.07-6.29-9.25-.19-9.42H163Z"/><path class="cls-6" d="M213.27,147.09c5.67-.07,5.83,8.59.17,8.74h-.25c-5.66.06-5.83-8.59-.17-8.75h.25Z"/></svg>