<svg id="Layer_1" data-name="Layer 1" xmlns="http://www.w3.org/2000/svg" xmlns:xlink="http://www.w3.org/1999/xlink" viewBox="0 0 366.34 366.34"><defs><style>.cls-1{fill:#f2a196;}.cls-2{fill:url(#linear-gradient);}.cls-3{fill:#e88870;}.cls-4{fill:#f2d4cf;}.cls-5{fill:none;stroke:#00214e;stroke-miterlimit:10;}.cls-6{fill:#fff;}.cls-7{fill:#00214e;}</style><linearGradient id="linear-gradient" x1="45.67" y1="227.51" x2="272.15" y2="227.51" gradientTransform="translate(14.48 65.3) rotate(-2.56)" gradientUnits="userSpaceOnUse"><stop offset="0" stop-color="#16243f"/><stop offset="1" stop-color="#6878b1"/></linearGradient></defs><title>Artboards_Diversity_Avatars_by_Netguru</title><path class="cls-1" d="M296.32,275.76A184.57,184.57,0,0,1,70,284.89l47.59-25a47,47,0,0,0,6.48-4.11c.62-.47,1.23-1,1.82-1.47A46.2,46.2,0,0,0,138,238.7,44.48,44.48,0,0,0,142,224a66.93,66.93,0,0,0,.3-9.93c-.22-5.71-.82-11.41-1.14-17.14-.18-3.16-.35-6.33-.53-9.49l2,.93,5.31,2.45,2.43.31,28.06,3.48,31.33,3.91,2.37,31.89.78,10.44.37,5.06,0,.33,12.31,4.38Z"/><path class="cls-2" d="M296.32,275.76A184.57,184.57,0,0,1,70,284.89l47.59-25a47,47,0,0,0,6.48-4.11c.62-.47,1.23-1,1.82-1.47C150.19,270,182.77,279.15,210,265.41c6.48-3.26,12.34-8.4,15.66-14.77Z"/><path class="cls-3" d="M213.33,246.26c-10.41,1.1-22.23-1.4-33.37-7.18-20.92-10.86-32.74-30.92-29.58-47.93l28.07,3.48,31.32,3.91,2.37,31.89Z"/><path class="cls-4" d="M258.91,80.91a41.3,41.3,0,0,1,4.72,16.83c1.17,21.16-10.28,42.16-23.42,58-.09.12-.19.23-.28.34-10.08,11.59-26.67,14.93-40.36,20.3-4.94,1.94-58.4,19.75-58.25,23.11,0-.73-5.57-5.78-12.58-11.86a79.84,79.84,0,0,1-25.39-42.19c-3.16-13.81-1.8-31.12,1.69-44.8,6.28-24.66,26.18-41.33,49.93-48.5,23-6.92,52.92-7.27,75.06,2.7C241.88,60.13,252.89,69.32,258.91,80.91Z"/><circle class="cls-1" cx="129.54" cy="159.93" r="17"/><circle class="cls-3" cx="134.93" cy="159.69" r="15.22"/><path class="cls-1" d="M134.44,143.65l3.66,30,2.4,19.64c.88,7.23,3.91,11.45,8.89,17a85.17,85.17,0,0,0,32.3,22.5c11.81,4.64,28.11,9.06,40.25,3.5,12.41-5.69,15.81-20.06,19.53-32s7.1-25.08,6.33-37.78c-1.05-17.23-6-26.69-6-26.69q1.22-10,2.42-20.08c.92-7.55,2.17-15.46,0-22.92-2.51-8.55-9.21-12-14.87-18.17-13.34,18.85-36.13,30.19-56,41.58C163.09,126.17,134.44,143.65,134.44,143.65Z"/><path class="cls-5" d="M208.89,140.16C208.82,140.51,224,178,224,178l-17.89,1.67"/><path class="cls-5" d="M162.61,135.67a80.66,80.66,0,0,1,28.07-2"/><path class="cls-5" d="M225.1,131.92a55.43,55.43,0,0,1,17.38-2"/><path class="cls-5" d="M174.11,195.1A39.74,39.74,0,0,1,188.7,180"/><path class="cls-5" d="M190,149.66a11.59,11.59,0,0,1-4.81,8.54,11.19,11.19,0,0,1-1.8,1.06,23.71,23.71,0,0,1-6.34,1.66"/><path class="cls-4" d="M256.11,120.84c.74-11.39-.47-23.22-5.85-33.29a37.47,37.47,0,0,0-14.41-15c-4.35-2.44-14-6.49-18.43-2.38-9.16,8.43,11.41,28.88,16.64,34.05A103.14,103.14,0,0,0,256.11,120.84Z"/><line class="cls-5" x1="189.92" y1="117.25" x2="221.49" y2="115.83"/><line class="cls-5" x1="186.19" y1="123.95" x2="217.76" y2="122.53"/><path class="cls-5" d="M222.69,145.91a34.19,34.19,0,0,0,4.06,7.05,10.09,10.09,0,0,0,6.42,3.71"/><path class="cls-6" d="M186,191.08a1.86,1.86,0,0,1,2.66-.62c2.14,1.37,6.07,4.29,11.52,5.12,7.41,1.14,13.66-2.09,15.27-.26.91,1-.08,2.38-2,4.14a19.7,19.7,0,0,1-14.67,4.35c-7.14-1-12.82-9-12.95-11.87A1.73,1.73,0,0,1,186,191.08Z"/><path class="cls-7" d="M179.54,143.94c6.09-.34,6.69,9,.6,9.41h-.27c-6.09.34-6.69-9-.6-9.41h.27Z"/><path class="cls-7" d="M229.66,140.06c5.65-.32,6.2,8.32.56,8.73H230c-5.65.31-6.21-8.32-.56-8.73h.26Z"/></svg>