<svg id="Layer_1" data-name="Layer 1" xmlns="http://www.w3.org/2000/svg" xmlns:xlink="http://www.w3.org/1999/xlink" viewBox="0 0 366.34 366.34"><defs><style>.cls-1{fill:url(#linear-gradient);}.cls-2{fill:url(#linear-gradient-2);}.cls-3{fill:#845161;}.cls-4{fill:#69303a;}.cls-5,.cls-6{fill:none;stroke-miterlimit:10;}.cls-5{stroke:#00214e;}.cls-6{stroke:#fff;}.cls-7{fill:url(#linear-gradient-3);}.cls-8{fill:url(#linear-gradient-4);}.cls-9{fill:#00214e;}</style><linearGradient id="linear-gradient" x1="-608.33" y1="-36.8" x2="-513.33" y2="-36.8" gradientTransform="translate(698.91 228.22) rotate(13.12)" gradientUnits="userSpaceOnUse"><stop offset="0" stop-color="#16243f"/><stop offset="1" stop-color="#6878b1"/></linearGradient><linearGradient id="linear-gradient-2" x1="113.47" y1="163.31" x2="275.45" y2="163.31" gradientTransform="matrix(1, 0, 0, 1, 0, 0)" xlink:href="#linear-gradient"/><linearGradient id="linear-gradient-3" x1="124.76" y1="93.8" x2="223.76" y2="135.07" gradientTransform="matrix(1, 0, 0, 1, 0, 0)" xlink:href="#linear-gradient"/><linearGradient id="linear-gradient-4" x1="85.26" y1="289.24" x2="311.74" y2="289.24" gradientTransform="matrix(1, 0, 0, 1, 0, 0)" xlink:href="#linear-gradient"/></defs><title>Artboards_Diversity_Avatars_by_Netguru</title><path class="cls-1" d="M207.34,75.83c-1.37,5.88-9.2,8.78-12.51,13.39-3.43,4.79-3.74,13.1-8.66,16.16s-12.51-.34-18.32.62c-5.61.93-11.67,6.67-17.55,5.3s-8.78-9.2-13.39-12.51c-4.79-3.43-13.1-3.74-16.16-8.66s.34-12.52-.62-18.32c-.93-5.61-6.67-11.68-5.3-17.55s9.2-8.78,12.51-13.39c3.43-4.79,3.74-13.1,8.66-16.16s12.51.34,18.32-.62c5.61-.93,11.67-6.68,17.55-5.31S180.65,28,185.26,31.3c4.79,3.43,13.1,3.74,16.16,8.66s-.34,12.51.62,18.32C203,63.89,208.71,70,207.34,75.83Z"/><path class="cls-2" d="M225.16,210.63c-2.52,3-4.7,6.29-7.26,9.24-13.62,15.66-43.3,5.37-58.05-4-10.84-6.85-19-17.18-26-27.94-8.6-13.27-15.79-27.7-18.9-43.21-14.27-71,76.78-101.9,127.86-67,19,13,36.18,42.16,32,65.53-2.13,11.85-10.57,22.53-9.66,34.54,1,12.94,12.69,25.27,7.79,37.28-1.92,4.71-6.05,8.07-9.41,11.88-4.53,5.14-7.83,11.58-8.23,18.42s2.45,14,8.1,17.92c-13.93-1.85-22.52-18.53-18.91-32.11,1.18-4.46,3.35-8.63,4.3-13.14s.4-9.77-3-12.83c-4.43-3.93-11.65-2.44-16.3,1.22A29.89,29.89,0,0,0,225.16,210.63Z"/><path class="cls-3" d="M311.74,299.37a184.56,184.56,0,0,1-226.48-1l48.66-22.81a47.68,47.68,0,0,0,4.35-2.34l1.12-.7c.4-.25.79-.51,1.18-.78a46.54,46.54,0,0,0,14.67-16.47c4-7.55,5.32-15.89,5.38-24.39,0-5.72-.31-11.44-.37-17.17q-.06-4.75-.1-9.51l2,1,5.2,2.69,30.29,5.15,31.12,5.3.94,32,.47,15.87,11.47,4.67,9,3.64Z"/><path class="cls-4" d="M229.68,250.32A60.08,60.08,0,0,1,199.61,248c-21.58-7.25-36.11-24.74-37.48-42.76l5.2,2.69,30.29,5.15,31.12,5.3Z"/><circle class="cls-3" cx="131.15" cy="172.19" r="17"/><circle class="cls-4" cx="137.15" cy="170.19" r="17"/><path class="cls-3" d="M254.06,145.41c12.46,43.14-11.79,93.25-30.26,95.3-44.63,5-76.34-17.79-88.79-60.93s4.1-85.82,37-95.31S241.61,102.26,254.06,145.41Z"/><path class="cls-5" d="M189.23,198.17a29.82,29.82,0,0,0,18.54,9.7"/><path class="cls-5" d="M227.59,158.17a9.07,9.07,0,0,0,3.3,6.78,26.87,26.87,0,0,0,6.68,4"/><path class="cls-5" d="M215.36,156c-.06.24,5.54,15.88,8.93,25.32a5.25,5.25,0,0,1-4.95,7h-3.63"/><ellipse class="cls-6" cx="185.47" cy="160.28" rx="19" ry="11.84"/><ellipse class="cls-6" cx="240.27" cy="157.73" rx="19" ry="11.84"/><line class="cls-6" x1="204.47" y1="160.28" x2="221.41" y2="158.99"/><path class="cls-7" d="M213.36,96.75c-2.4,4.75-7.4,8.86-10.37,13.71-3.89,6.36-6.83,13.26-10.13,19.92-2.45,5-5.18,9.94-9.33,13.61s-10,5.85-15.31,4.32c-3.64-1.05-6.6-3.65-9.85-5.59s-7.43-3.21-10.77-1.42c-4.92,2.64-4.85,9.82-8.37,14.15-8.08,9.93-22.88-3.45-24.67-12.13-2.61-12.67,7.79-23.26,15.35-32,6.3-7.29,14.83-18.43,24.73-20.87.17,0,58-23,58-23,.52,7.73,3.64,19.16,1.77,26.56A12.27,12.27,0,0,1,213.36,96.75Z"/><path class="cls-5" d="M203.07,182.07a3.15,3.15,0,0,0,2.31,5.78"/><path class="cls-5" d="M225.19,140.13A31.13,31.13,0,0,1,248,138"/><path class="cls-5" d="M170.08,143.83a36.75,36.75,0,0,1,31.23-1"/><path class="cls-8" d="M311.74,299.37a184.56,184.56,0,0,1-226.48-1l48.66-22.81a46.83,46.83,0,0,0,6.65-3.82c.64-.44,1.28-.9,1.89-1.38a46.35,46.35,0,0,0,12.78-15.09,44.69,44.69,0,0,0,4.64-14.48,28.66,28.66,0,0,0,2.22,1.94A95.14,95.14,0,0,0,181.92,254a99,99,0,0,0,10.46,3.69,93.52,93.52,0,0,0,33,3.49c1.54-.12,3.09-.27,4.63-.38l.15,5.08v.33l12.1,4.92Z"/><path class="cls-5" d="M183.73,170.36a10.36,10.36,0,0,0,11-10"/><path class="cls-5" d="M176.67,200.43a25.58,25.58,0,0,1,4.57-5.64,24.62,24.62,0,0,1,13.22-6.25"/><line class="cls-5" x1="202.39" y1="120.95" x2="226.06" y2="120.95"/><line class="cls-5" x1="196.62" y1="128.77" x2="226.06" y2="128.77"/><path class="cls-9" d="M186.43,155.07c6.1-.07,6.28,9.25.18,9.42h-.27c-6.1.07-6.28-9.25-.18-9.42h.27Z"/><path class="cls-9" d="M236.67,153.43c5.66-.07,5.83,8.59.17,8.74h-.25c-5.67.06-5.84-8.59-.17-8.75h.25Z"/></svg>