<svg id="Layer_1" data-name="Layer 1" xmlns="http://www.w3.org/2000/svg" xmlns:xlink="http://www.w3.org/1999/xlink" viewBox="0 0 366.34 366.34"><defs><style>.cls-1{fill:url(#linear-gradient);}.cls-2{fill:#845161;}.cls-3{fill:#69303a;}.cls-4{fill:none;stroke:#00214e;stroke-miterlimit:10;}.cls-5{fill:url(#linear-gradient-2);}.cls-6{fill:url(#linear-gradient-3);}.cls-7{fill:#00214e;}.cls-8{fill:#fff;}</style><linearGradient id="linear-gradient" x1="36.18" y1="247.08" x2="272.6" y2="27.34" gradientUnits="userSpaceOnUse"><stop offset="0" stop-color="#315676"/><stop offset="1" stop-color="#e1b9e0"/></linearGradient><linearGradient id="linear-gradient-2" x1="61.55" y1="288.24" x2="288.03" y2="288.24" gradientUnits="userSpaceOnUse"><stop offset="0" stop-color="#16243f"/><stop offset="1" stop-color="#6878b1"/></linearGradient><linearGradient id="linear-gradient-3" x1="118.43" y1="187.71" x2="192.03" y2="45.33" xlink:href="#linear-gradient"/></defs><title>Artboards_Diversity_Avatars_by_Netguru</title><path class="cls-1" d="M264.76,132.16c0,6.74-8.58,12.55-9.84,18.92-1.3,6.57,4.38,15.21,1.88,21.25s-12.71,8.23-16.36,13.69-1.75,15.68-6.42,20.34-14.84,2.73-20.34,6.41-7.54,13.82-13.69,16.37-14.68-3.18-21.25-1.89c-6.37,1.27-12.18,9.85-18.92,9.85s-12.55-8.58-18.92-9.85c-6.56-1.29-15.21,4.39-21.25,1.89s-8.22-12.71-13.68-16.37S90.29,211,85.62,206.36,82.9,191.52,79.21,186s-13.81-7.54-16.36-13.69,3.18-14.68,1.88-21.25c-1.26-6.37-9.84-12.18-9.84-18.92s8.58-12.55,9.84-18.92C66,106.68,60.35,98,62.85,92s12.7-8.22,16.36-13.68S81,62.63,85.62,58s14.84-2.73,20.35-6.41,7.54-13.81,13.68-16.36,14.69,3.18,21.25,1.88c6.37-1.26,12.18-9.84,18.92-9.84s12.55,8.58,18.92,9.84c6.57,1.3,15.21-4.39,21.25-1.88s8.23,12.7,13.69,16.36S229.36,53.29,234,58s2.72,14.84,6.41,20.35S254.25,85.85,256.8,92s-3.18,14.69-1.88,21.25C256.18,119.61,264.76,125.42,264.76,132.16Z"/><path class="cls-2" d="M288,298.37a184.56,184.56,0,0,1-226.48-1l48.66-22.81a47.68,47.68,0,0,0,4.35-2.34l1.12-.7c.4-.25.79-.51,1.18-.78a46.54,46.54,0,0,0,14.67-16.47c4-7.55,5.32-15.89,5.38-24.39,0-5.72-.31-11.44-.37-17.17q-.06-4.75-.1-9.51l2,1,5.2,2.69,30.29,5.15,31.12,5.3.94,32,.47,15.87,11.47,4.67,9,3.64Z"/><path class="cls-3" d="M206,249.32A60.08,60.08,0,0,1,175.9,247c-21.58-7.25-36.11-24.74-37.48-42.76l5.2,2.69,30.29,5.15,31.12,5.3Z"/><circle class="cls-2" cx="107.44" cy="171.19" r="17"/><circle class="cls-3" cx="113.44" cy="169.19" r="17"/><path class="cls-2" d="M230.35,144.41c12.46,43.14-11.79,93.25-30.26,95.3-44.63,5-76.34-17.79-88.8-60.93s4.11-85.82,37-95.31S217.9,101.26,230.35,144.41Z"/><path class="cls-4" d="M194.45,154.64a53,53,0,0,0,2.48,10.49c1.14,3,2.62,4.82,4.63,7.34a16.68,16.68,0,0,1,1.82,2.66c2.77,5.34-.11,11.61-6.28,12l-3.81.23"/><path class="cls-4" d="M179.36,181.07a3.15,3.15,0,0,0,2.31,5.78"/><path class="cls-4" d="M201.48,139.13A31.13,31.13,0,0,1,224.33,137"/><path class="cls-4" d="M146.37,142.83a36.73,36.73,0,0,1,31.22-1"/><path class="cls-5" d="M288,298.37a184.56,184.56,0,0,1-226.48-1l48.66-22.81a46.83,46.83,0,0,0,6.65-3.82c.64-.44,1.28-.9,1.89-1.38a46.35,46.35,0,0,0,12.78-15.09,44.69,44.69,0,0,0,4.64-14.48,28.66,28.66,0,0,0,2.22,1.94A95.14,95.14,0,0,0,158.21,253a99,99,0,0,0,10.46,3.69,93.52,93.52,0,0,0,33,3.49c1.54-.12,3.09-.27,4.63-.38l.15,5.08v.33l12.1,4.92Z"/><path class="cls-4" d="M160,169.36a10.36,10.36,0,0,0,11-10"/><path class="cls-4" d="M203.88,157.17a9.07,9.07,0,0,0,3.3,6.78,26.81,26.81,0,0,0,6.67,4"/><path class="cls-4" d="M153,199.43a25.58,25.58,0,0,1,4.57-5.64,24.56,24.56,0,0,1,13.22-6.25"/><line class="cls-4" x1="178.68" y1="119.95" x2="202.35" y2="119.95"/><line class="cls-4" x1="172.9" y1="127.77" x2="202.35" y2="127.77"/><path class="cls-6" d="M205.08,102.78c.28,3.94-4.65,4.11-7.05,1.53-.62-.67-1.06-1.49-1.69-2.15a2.42,2.42,0,0,0-2.43-.82,2.83,2.83,0,0,0-1.26,1.16c-1.94,2.88-2.18,6.62-3.62,9.73a12.23,12.23,0,0,1-7.56,6.42c-5.73,1.6-10.35-1.73-12.51-6.82-.54-1.27-1.72-3.63-3.46-2.72-2.11,1.11-2.13,4.61-2.58,6.65a51.66,51.66,0,0,1-1.89,6.92,18.7,18.7,0,0,1-8.92,10.4c-5.56,2.91-16.69,3.46-19.32-3.58a12.57,12.57,0,0,0-1-2.44,2.47,2.47,0,0,0-2.14-1.29,1.76,1.76,0,0,0-.57.13,2.59,2.59,0,0,0-1.26,1.29,6.83,6.83,0,0,0-.5,2.37c-.39,4.4-1,9-3,13s-6,7.53-10.42,8.16a5.34,5.34,0,0,1-4.84-1.58c-2.4-2.86-1.28-8.24-1-11.65,1.11-12.85,5-25.68,12.31-36.38,6.61-9.63,16.1-17.17,27.4-20.43,19.32-5.58,40,1.88,56.05,17.9l0,.06A11,11,0,0,1,205.08,102.78Z"/><path class="cls-7" d="M203.93,98.64h0c-19.21-4.3-41.56-2.36-56.4,6.79-25.8,15.91-31.5,27.91-39.38,40.58l-.34.56c0-.71,0-1.43,0-2.15.34-30.66,15.53-56.67,40-63.74,19.32-5.58,40,1.88,56.05,17.9Z"/><path class="cls-8" d="M164,198.2a1.85,1.85,0,0,1,2.68-.51c2.08,1.47,5.88,4.56,11.28,5.64,7.36,1.46,13.75-1.48,15.27.42.86,1.07-.19,2.37-2.2,4.05a19.74,19.74,0,0,1-14.86,3.68c-7.08-1.32-12.4-9.53-12.4-12.43A1.66,1.66,0,0,1,164,198.2Z"/><path class="cls-7" d="M161.85,153c6.1-.07,6.28,9.26.18,9.43h-.27c-6.1.07-6.28-9.25-.18-9.42h.27Z"/><path class="cls-7" d="M212.09,151.35c5.66-.07,5.83,8.59.17,8.74H212c-5.67.06-5.84-8.59-.17-8.75h.25Z"/></svg>