<svg id="Layer_1" data-name="Layer 1" xmlns="http://www.w3.org/2000/svg" xmlns:xlink="http://www.w3.org/1999/xlink" viewBox="0 0 366.34 366.34"><defs><style>.cls-1{fill:url(#linear-gradient);}.cls-2{fill:#f2a196;}.cls-3{fill:#e88870;}.cls-4{fill:#ff2609;}.cls-5{fill:none;stroke:#00214e;stroke-miterlimit:10;}.cls-6{fill:#00214e;}.cls-7{fill:url(#linear-gradient-2);}.cls-8{fill:#fff;}</style><linearGradient id="linear-gradient" x1="92.08" y1="175.29" x2="256.69" y2="175.29" gradientUnits="userSpaceOnUse"><stop offset="0" stop-color="#16243f"/><stop offset="1" stop-color="#6878b1"/></linearGradient><linearGradient id="linear-gradient-2" x1="92.08" y1="160.85" x2="265.6" y2="160.85" xlink:href="#linear-gradient"/></defs><title>Artboards_Diversity_Avatars_by_Netguru</title><path class="cls-1" d="M219.64,257.41a132.68,132.68,0,0,1-18.6,18c-12,9.51-20.95,8.42-34.94,7.15-16.25-1.47-32.38-4.17-48.58-6.16-2.06-.26-4.26-.58-5.78-2.05-1.32-1.29-1.86-3.2-2.34-5A545.72,545.72,0,0,1,92.2,157.89c-1.78-36.06,16-71.36,49.3-84.59,34.65-13.75,79.73-4.62,100.27,29.78C270.58,151.34,254.67,216.39,219.64,257.41Z"/><path class="cls-2" d="M296.41,280.68a184.56,184.56,0,0,1-226.48-1l48.66-22.81a47.68,47.68,0,0,0,4.35-2.34l1.12-.7c.4-.25.79-.51,1.18-.78a46.54,46.54,0,0,0,14.67-16.47c4-7.55,5.32-15.89,5.38-24.39,0-5.72-.31-11.44-.37-17.17q-.06-4.75-.1-9.51l2,1,5.2,2.69,30.29,5.15,31.12,5.3.94,32,.47,15.87,11.47,4.67,9,3.64Z"/><path class="cls-3" d="M214.35,231.63a60.08,60.08,0,0,1-30.07-2.35c-21.58-7.25-36.11-24.74-37.48-42.76l5.2,2.69,30.29,5.15,31.12,5.3Z"/><circle class="cls-2" cx="115.82" cy="153.5" r="17"/><circle class="cls-3" cx="121.82" cy="151.5" r="17"/><path class="cls-2" d="M238.73,126.71C251.19,169.86,226.94,220,208.47,222c-44.63,5-76.34-17.79-88.79-60.94s4.1-85.81,37-95.3S226.28,83.57,238.73,126.71Z"/><path class="cls-4" d="M238,101.42C233.3,91.55,221.84,87.17,211.37,84c-5.66-1.72-11.47-3.36-17.38-3.18A41.18,41.18,0,0,0,178.25,85c-8.66,4-17.47,9.66-23.92,16.72-3.13,3.42-6,7-9.18,10.43q-2.67,2.85-5.09,5.92c-1.23,1.56-2.63,4.75-4.22,5.84C165.31,103.71,202.77,94.75,238,101.42Z"/><path class="cls-5" d="M198.4,131.65c-.08.35,9.79,38.85,9.79,38.85h-12.5"/><path class="cls-5" d="M209.86,121.44a31.18,31.18,0,0,1,22.85-2.16"/><path class="cls-5" d="M154.75,125.14a36.68,36.68,0,0,1,31.23-1"/><path class="cls-6" d="M296.41,280.68a184.56,184.56,0,0,1-226.48-1l48.66-22.81a46.83,46.83,0,0,0,6.65-3.82c.64-.44,1.28-.9,1.89-1.38a46.35,46.35,0,0,0,12.78-15.09,44.69,44.69,0,0,0,4.64-14.48,28.66,28.66,0,0,0,2.22,1.94,95.14,95.14,0,0,0,19.82,11.26A99,99,0,0,0,177.05,239a93.52,93.52,0,0,0,33,3.49c1.54-.12,3.09-.27,4.63-.38l.15,5.08v.33l12.1,4.92Z"/><path class="cls-7" d="M263,117.79C257,87.32,240,60,208.4,50.49,161,36.27,101.11,72.13,93.58,121.45c-6.75,44.26,9.54,105.66,44.06,135.45,19.58,16.9,48.87,22.28,72.9,12.8,14-5.5,19-15.85,25.4-28.39,9.83-19.29,19.14-39,24.86-59.89A142.57,142.57,0,0,0,263,117.79ZM210.41,218.9c-11.47,4.63-28.46-.46-38.7-6q-2.18-1.19-4.24-2.54c-20.78-13.66-31.66-37.58-38.32-60.7a101.44,101.44,0,0,1-2.52-10.14c.06.32,6.41-2.82,6.88-3.07a50.35,50.35,0,0,0,8.75-5.95c9.87-8.06,15.94-19.15,24.73-28.19,6.42-6.61,13.94-12.47,23-14.77,14.68-3.73,29.39,8.31,36.3,20.39,7.88,13.78,12.42,28.74,11.51,44.65a145.7,145.7,0,0,1-4,27.24c-3.17,12.54-8.45,24.5-17,34a22.7,22.7,0,0,1-4.45,4A11,11,0,0,1,210.41,218.9Z"/><path class="cls-5" d="M168.4,151.66a10.36,10.36,0,0,0,11-10"/><path class="cls-5" d="M212.26,139.48a9.07,9.07,0,0,0,3.3,6.77,26.87,26.87,0,0,0,6.68,3.95"/><path class="cls-5" d="M161.34,181.74a25.4,25.4,0,0,1,4.57-5.65,24.7,24.7,0,0,1,13.22-6.25"/><line class="cls-5" x1="187.06" y1="105.01" x2="210.73" y2="105.01"/><line class="cls-5" x1="181.29" y1="112.82" x2="210.73" y2="112.82"/><path class="cls-8" d="M172.41,180.5a1.86,1.86,0,0,1,2.68-.5c2.08,1.46,5.88,4.56,11.28,5.63,7.36,1.47,13.75-1.48,15.27.42.86,1.07-.19,2.38-2.2,4a19.74,19.74,0,0,1-14.86,3.69c-7.08-1.33-12.4-9.53-12.4-12.44A1.68,1.68,0,0,1,172.41,180.5Z"/><path class="cls-6" d="M171.5,138.45c6.1-.06,6.28,9.26.18,9.43h-.27c-6.11.07-6.29-9.25-.19-9.42h.28Z"/><path class="cls-6" d="M221.73,136.82c5.67-.07,5.84,8.59.17,8.74h-.25c-5.66.06-5.83-8.59-.17-8.75h.25Z"/></svg>