<svg xmlns="http://www.w3.org/2000/svg" version="1.1" xmlns:xlink="http://www.w3.org/1999/xlink" xmlns:svgjs="http://svgjs.dev/svgjs" viewBox="0 0 800 800"><defs><linearGradient x1="50%" y1="0%" x2="50%" y2="100%" id="ffflurry-grad" gradientTransform="rotate(270)"><stop stop-color="hsl(0, 0%, 0%)" stop-opacity="1" offset="0%"></stop><stop stop-color="hsl(162, 100%, 58%)" stop-opacity="1" offset="45%"></stop><stop stop-color="hsl(270, 73%, 53%)" stop-opacity="1" offset="100%"></stop></linearGradient></defs><rect width="100%" height="100%" fill="hsl(0, 0%, 0%)"></rect><g fill="url(#ffflurry-grad)"><rect width="121" height="2" x="74.5" y="686" rx="1" transform="rotate(134, 135, 687)" opacity="0.40"></rect><rect width="131" height="2" x="218.5" y="147" rx="1" transform="rotate(134, 284, 148)" opacity="0.80"></rect><rect width="95" height="2" x="307.5" y="751" rx="1" transform="rotate(134, 355, 752)" opacity="0.55"></rect><rect width="110" height="2" x="24" y="472" rx="1" transform="rotate(134, 79, 473)" opacity="0.53"></rect><rect width="104" height="2" x="59" y="582" rx="1" transform="rotate(134, 111, 583)" opacity="0.13"></rect><rect width="120" height="2" x="332" y="56" rx="1" transform="rotate(134, 392, 57)" opacity="0.37"></rect><rect width="105" height="2" x="687.5" y="660" rx="1" transform="rotate(134, 740, 661)" opacity="0.28"></rect><rect width="111" height="2" x="222.5" y="656" rx="1" transform="rotate(134, 278, 657)" opacity="0.35"></rect><rect width="170" height="2" x="634" y="368" rx="1" transform="rotate(134, 719, 369)" opacity="0.44"></rect><rect width="137" height="2" x="48.5" y="269" rx="1" transform="rotate(134, 117, 270)" opacity="0.84"></rect><rect width="113" height="2" x="96.5" y="159" rx="1" transform="rotate(134, 153, 160)" opacity="0.56"></rect><rect width="296" height="2" x="369" y="124" rx="1" transform="rotate(134, 517, 125)" opacity="0.69"></rect><rect width="132" height="2" x="-36" y="716" rx="1" transform="rotate(134, 30, 717)" opacity="0.47"></rect><rect width="171" height="2" x="466.5" y="346" rx="1" transform="rotate(134, 552, 347)" opacity="0.98"></rect><rect width="147" height="2" x="623.5" y="118" rx="1" transform="rotate(134, 697, 119)" opacity="0.75"></rect><rect width="89" height="2" x="105.5" y="35" rx="1" transform="rotate(134, 150, 36)" opacity="0.56"></rect><rect width="109" height="2" x="62.5" y="369" rx="1" transform="rotate(134, 117, 370)" opacity="0.95"></rect><rect width="190" height="2" x="-50" y="159" rx="1" transform="rotate(134, 45, 160)" opacity="0.25"></rect><rect width="91" height="2" x="96.5" y="768" rx="1" transform="rotate(134, 142, 769)" opacity="0.93"></rect><rect width="57" height="2" x="26.5" y="44" rx="1" transform="rotate(134, 55, 45)" opacity="0.88"></rect><rect width="142" height="2" x="230" y="377" rx="1" transform="rotate(134, 301, 378)" opacity="0.53"></rect><rect width="214" height="2" x="157" y="513" rx="1" transform="rotate(134, 264, 514)" opacity="0.65"></rect><rect width="168" height="2" x="380" y="263" rx="1" transform="rotate(134, 464, 264)" opacity="0.44"></rect><rect width="70" height="2" x="264" y="246" rx="1" transform="rotate(134, 299, 247)" opacity="0.37"></rect><rect width="191" height="2" x="476.5" y="750" rx="1" transform="rotate(134, 572, 751)" opacity="0.65"></rect><rect width="139" height="2" x="539.5" y="635" rx="1" transform="rotate(134, 609, 636)" opacity="0.48"></rect><rect width="315" height="2" x="289.5" y="628" rx="1" transform="rotate(134, 447, 629)" opacity="0.63"></rect><rect width="102" height="2" x="182" y="57" rx="1" transform="rotate(134, 233, 58)" opacity="0.63"></rect><rect width="59" height="2" x="353.5" y="305" rx="1" transform="rotate(134, 383, 306)" opacity="0.62"></rect><rect width="131" height="2" x="523.5" y="507" rx="1" transform="rotate(134, 589, 508)" opacity="0.59"></rect><rect width="213" height="2" x="299.5" y="473" rx="1" transform="rotate(134, 406, 474)" opacity="0.13"></rect></g></svg>