<svg xmlns="http://www.w3.org/2000/svg" viewBox="0 0 500 500"><g id="freepik--background-complete--inject-3"><rect x="162.02" y="35.34" width="4.25" height="19.03" style="fill:#e0e0e0"></rect><rect x="162.02" y="35.34" width="4.25" height="19.03" transform="translate(119.29 209) rotate(-90)" style="fill:#e0e0e0"></rect><rect x="263.58" y="129.08" width="6.51" height="29.18" style="fill:#e0e0e0"></rect><rect x="263.58" y="129.08" width="6.51" height="29.18" transform="translate(123.16 410.51) rotate(-90)" style="fill:#e0e0e0"></rect><rect x="343.9" y="44.13" width="4.25" height="19.03" style="fill:#e0e0e0"></rect><rect x="343.9" y="44.13" width="4.25" height="19.03" transform="translate(292.37 399.66) rotate(-90)" style="fill:#e0e0e0"></rect><rect x="439.01" y="79.3" width="6.51" height="29.18" style="fill:#e0e0e0"></rect><rect x="439.01" y="79.3" width="6.51" height="29.18" transform="translate(348.37 536.15) rotate(-90)" style="fill:#e0e0e0"></rect><rect x="346.02" y="221.2" width="132.21" height="244.57" style="fill:#f5f5f5"></rect><rect x="463.08" y="318.81" width="6.57" height="138.85" transform="translate(932.73 776.46) rotate(180)" style="fill:#e0e0e0"></rect><rect x="451.29" y="318.81" width="6.57" height="138.85" transform="translate(909.16 776.46) rotate(180)" style="fill:#e0e0e0"></rect><rect x="439.5" y="318.81" width="6.57" height="138.85" transform="translate(885.58 776.46) rotate(180)" style="fill:#e0e0e0"></rect><rect x="427.72" y="318.81" width="6.57" height="138.85" transform="translate(862 776.46) rotate(180)" style="fill:#e0e0e0"></rect><rect x="416.51" y="318.81" width="6.57" height="138.85" transform="translate(839.58 776.46) rotate(180)" style="fill:#e0e0e0"></rect><rect x="404.96" y="318.81" width="6.57" height="138.85" transform="translate(816.49 776.46) rotate(180)" style="fill:#e0e0e0"></rect><rect x="393.17" y="318.81" width="6.57" height="138.85" transform="translate(792.92 776.46) rotate(180)" style="fill:#e0e0e0"></rect><rect x="380.65" y="318.81" width="6.57" height="138.85" transform="translate(767.88 776.46) rotate(180)" style="fill:#e0e0e0"></rect><rect x="368.86" y="318.81" width="6.57" height="138.85" transform="translate(744.3 776.46) rotate(180)" style="fill:#e0e0e0"></rect><rect x="357.39" y="318.81" width="6.57" height="138.85" transform="translate(721.35 776.46) rotate(180)" style="fill:#e0e0e0"></rect><rect x="462.67" y="237.27" width="6.57" height="73.19" transform="translate(931.91 547.73) rotate(180)" style="fill:#e0e0e0"></rect><rect x="450.88" y="237.27" width="6.57" height="73.19" transform="translate(908.33 547.73) rotate(180)" style="fill:#e0e0e0"></rect><rect x="439.09" y="237.27" width="6.57" height="73.19" transform="translate(884.75 547.73) rotate(180)" style="fill:#e0e0e0"></rect><rect x="427.3" y="237.27" width="6.57" height="73.19" transform="translate(861.18 547.73) rotate(180)" style="fill:#e0e0e0"></rect><rect x="416.09" y="237.27" width="6.57" height="73.19" transform="translate(838.76 547.73) rotate(180)" style="fill:#e0e0e0"></rect><rect x="404.55" y="237.27" width="6.57" height="73.19" transform="translate(815.67 547.73) rotate(180)" style="fill:#e0e0e0"></rect><rect x="392.76" y="237.27" width="6.57" height="73.19" transform="translate(792.09 547.73) rotate(180)" style="fill:#e0e0e0"></rect><rect x="379.57" y="237.27" width="6.57" height="73.19" transform="translate(765.7 547.73) rotate(180)" style="fill:#e0e0e0"></rect><rect x="367.78" y="237.27" width="6.57" height="73.19" transform="translate(742.12 547.73) rotate(180)" style="fill:#e0e0e0"></rect><rect x="356.59" y="237.27" width="6.57" height="73.19" transform="translate(719.75 547.73) rotate(180)" style="fill:#e0e0e0"></rect><rect x="249.07" y="288.61" width="93.47" height="177.16" style="fill:#f5f5f5"></rect><rect x="327.38" y="318.81" width="6.57" height="138.85" transform="translate(661.34 776.46) rotate(180)" style="fill:#e0e0e0"></rect><rect x="315.6" y="318.81" width="6.57" height="138.85" transform="translate(637.76 776.46) rotate(180)" style="fill:#e0e0e0"></rect><rect x="303.81" y="318.81" width="6.57" height="138.85" transform="translate(614.19 776.46) rotate(180)" style="fill:#e0e0e0"></rect><rect x="292.02" y="318.81" width="6.57" height="138.85" transform="translate(590.61 776.46) rotate(180)" style="fill:#e0e0e0"></rect><rect x="280.81" y="318.81" width="6.57" height="138.85" transform="translate(568.19 776.46) rotate(180)" style="fill:#e0e0e0"></rect><rect x="269.26" y="318.81" width="6.57" height="138.85" transform="translate(545.1 776.46) rotate(180)" style="fill:#e0e0e0"></rect><rect x="257.48" y="318.81" width="6.57" height="138.85" transform="translate(521.52 776.46) rotate(180)" style="fill:#e0e0e0"></rect><rect x="326.97" y="297.33" width="6.57" height="13.13" transform="translate(660.52 607.79) rotate(180)" style="fill:#e0e0e0"></rect><rect x="315.18" y="297.33" width="6.57" height="13.13" transform="translate(636.94 607.79) rotate(180)" style="fill:#e0e0e0"></rect><rect x="303.4" y="297.33" width="6.57" height="13.13" transform="translate(613.36 607.79) rotate(180)" style="fill:#e0e0e0"></rect><rect x="291.61" y="297.33" width="6.57" height="13.13" transform="translate(589.78 607.79) rotate(180)" style="fill:#e0e0e0"></rect><rect x="280.4" y="297.33" width="6.57" height="13.13" transform="translate(567.37 607.79) rotate(180)" style="fill:#e0e0e0"></rect><rect x="268.85" y="297.33" width="6.57" height="13.13" transform="translate(544.28 607.79) rotate(180)" style="fill:#e0e0e0"></rect><rect x="257.06" y="297.33" width="6.57" height="13.13" transform="translate(520.7 607.79) rotate(180)" style="fill:#e0e0e0"></rect><path d="M346.26,466.93c-.14,0-.26-54.9-.26-122.6s.12-122.62.26-122.62.26,54.89.26,122.62S346.41,466.93,346.26,466.93Z" style="fill:#e0e0e0"></path><rect x="365.65" y="143.67" width="100.31" height="78.04" style="fill:#f5f5f5"></rect><rect x="390.02" y="160.21" width="6.57" height="50.44" transform="translate(786.61 370.86) rotate(180)" style="fill:#e0e0e0"></rect><rect x="378.23" y="160.21" width="6.57" height="50.44" transform="translate(763.04 370.86) rotate(180)" style="fill:#e0e0e0"></rect><rect x="414.5" y="160.21" width="6.57" height="50.44" transform="translate(835.57 370.86) rotate(180)" style="fill:#e0e0e0"></rect><rect x="402.71" y="160.21" width="6.57" height="50.44" transform="translate(811.99 370.86) rotate(180)" style="fill:#e0e0e0"></rect><rect x="438.98" y="160.21" width="6.57" height="50.44" transform="translate(884.52 370.86) rotate(180)" style="fill:#e0e0e0"></rect><rect x="427.19" y="160.21" width="6.57" height="50.44" transform="translate(860.94 370.86) rotate(180)" style="fill:#e0e0e0"></rect><rect x="451.66" y="160.21" width="6.57" height="50.44" transform="translate(909.9 370.86) rotate(180)" style="fill:#e0e0e0"></rect><rect x="120.27" y="306.9" width="93.47" height="159.45" style="fill:#f5f5f5"></rect><rect x="128.85" y="349.98" width="6.57" height="109.95" style="fill:#e0e0e0"></rect><rect x="140.64" y="349.98" width="6.57" height="109.95" style="fill:#e0e0e0"></rect><rect x="152.43" y="349.98" width="6.57" height="109.95" style="fill:#e0e0e0"></rect><rect x="164.22" y="349.98" width="6.57" height="109.95" style="fill:#e0e0e0"></rect><rect x="175.43" y="349.98" width="6.57" height="109.95" style="fill:#e0e0e0"></rect><rect x="186.97" y="349.98" width="6.57" height="109.95" style="fill:#e0e0e0"></rect><rect x="198.76" y="349.98" width="6.57" height="109.95" style="fill:#e0e0e0"></rect><rect x="129.26" y="316.85" width="6.57" height="26.52" style="fill:#e0e0e0"></rect><rect x="141.05" y="316.85" width="6.57" height="26.52" style="fill:#e0e0e0"></rect><rect x="152.84" y="316.85" width="6.57" height="26.52" style="fill:#e0e0e0"></rect><rect x="164.63" y="316.85" width="6.57" height="26.52" style="fill:#e0e0e0"></rect><rect x="175.84" y="316.85" width="6.57" height="26.52" style="fill:#e0e0e0"></rect><rect x="187.38" y="316.85" width="6.57" height="26.52" style="fill:#e0e0e0"></rect><rect x="199.17" y="316.85" width="6.57" height="26.52" style="fill:#e0e0e0"></rect><rect x="25.55" y="162.16" width="99.69" height="304.19" style="fill:#f5f5f5"></rect><rect x="64.49" y="71.62" width="24.49" height="4.58" style="fill:#f5f5f5"></rect><rect x="74.64" y="35.34" width="3.9" height="37.62" style="fill:#f5f5f5"></rect><rect x="42.14" y="76.2" width="69.18" height="87.45" style="fill:#f5f5f5"></rect><rect x="50.76" y="86.97" width="6.87" height="70.66" style="fill:#e0e0e0"></rect><rect x="63.08" y="86.97" width="6.87" height="70.66" style="fill:#e0e0e0"></rect><rect x="75.41" y="86.97" width="6.87" height="70.66" style="fill:#e0e0e0"></rect><rect x="87.73" y="86.97" width="6.87" height="70.66" style="fill:#e0e0e0"></rect><rect x="99.45" y="86.97" width="6.87" height="70.66" style="fill:#e0e0e0"></rect><rect x="34.7" y="174.64" width="7.01" height="279.45" style="fill:#e0e0e0"></rect><rect x="47.28" y="174.64" width="7.01" height="279.45" style="fill:#e0e0e0"></rect><rect x="59.85" y="174.64" width="7.01" height="279.45" style="fill:#e0e0e0"></rect><rect x="72.42" y="174.64" width="7.01" height="279.45" style="fill:#e0e0e0"></rect><rect x="84.38" y="174.64" width="7.01" height="279.45" style="fill:#e0e0e0"></rect><rect x="96.69" y="174.64" width="7.01" height="279.45" style="fill:#e0e0e0"></rect><rect x="109.26" y="174.64" width="7.01" height="279.45" style="fill:#e0e0e0"></rect></g><g id="freepik--Floor--inject-3"><path d="M481.18,467.28c0,.14-104,.26-232.17.26s-232.19-.12-232.19-.26S120.76,467,249,467,481.18,467.14,481.18,467.28Z" style="fill:#263238"></path></g><g id="freepik--speech-bubble-2--inject-3"><path d="M338.31,113.59l-9.46,1.69a28.71,28.71,0,1,1,5.33-8.8h0Z" style="fill:#fff"></path><path d="M338.31,113.59s-.11-.16-.3-.47l-.81-1.37-3.11-5.23h.17a.11.11,0,0,1-.15,0,.11.11,0,0,1,0-.13,28.77,28.77,0,0,0,1.59-13.8,28.18,28.18,0,0,0-.92-4.33A30.53,30.53,0,0,0,333,83.88a28.15,28.15,0,0,0-6.14-8.36,28.67,28.67,0,0,0-22-7.6,29,29,0,0,0-12.45,4.23,27.89,27.89,0,0,0-9.55,9.92,28.47,28.47,0,0,0,45.92,33.13s0,0,.06,0l7-1.17,1.83-.3.64-.1-.59.13-1.78.34-7.07,1.33.07,0a28.51,28.51,0,0,1-11.65,8A28.87,28.87,0,0,1,282.4,81.81l.93-1.55c.34-.49.7-1,1.05-1.45a31.48,31.48,0,0,1,2.3-2.72c.39-.44.86-.81,1.28-1.21a14.41,14.41,0,0,1,1.32-1.16,26.64,26.64,0,0,1,2.85-2,29.46,29.46,0,0,1,12.67-4.29,29.11,29.11,0,0,1,22.37,7.79,28.53,28.53,0,0,1,6.19,8.5,30.17,30.17,0,0,1,1.74,4.5,27.62,27.62,0,0,1,.9,4.39,28.65,28.65,0,0,1-1.73,13.92l-.18-.1v0a.12.12,0,0,1,.15,0l0,0,3,5.37.77,1.36Z" style="fill:#263238"></path><polygon points="307.06 107.99 293 98.59 296.28 93.69 305.71 99.99 317.43 84.47 322.14 88.03 307.06 107.99" style="fill:#FFC100"></polygon></g><g id="freepik--speech-bubble-1--inject-3"><path d="M175.59,110.82l4.71-9.27A31.42,31.42,0,0,1,216,59.85a31.43,31.43,0,1,1-29.91,51.41v0Z" style="fill:#fff"></path><path d="M175.59,110.82l.7,0,2,.06,7.76.26-.1.16h0a.11.11,0,0,1,.19-.12,31.47,31.47,0,0,0,12.72,8.75,29.85,29.85,0,0,0,4.67,1.33,35.7,35.7,0,0,0,5.17.58A31.13,31.13,0,0,0,241,89.09c-.05-.61-.05-1.23-.12-1.84s-.19-1.22-.29-1.83l-.14-.92c-.06-.3-.15-.6-.22-.9l-.47-1.82c-.16-.6-.42-1.18-.62-1.77a17.78,17.78,0,0,0-.68-1.76,31.82,31.82,0,0,0-1.75-3.38c-.34-.54-.64-1.1-1-1.63l-1.13-1.53L234,71l-.63-.7-1.26-1.41a32.41,32.41,0,0,0-5.81-4.62,31.86,31.86,0,0,0-13.47-4.59,31.39,31.39,0,0,0-24,8,31.11,31.11,0,0,0-6.87,9c-.37.81-.83,1.58-1.11,2.4l-.88,2.41a42.15,42.15,0,0,0-1.08,4.74,31.18,31.18,0,0,0,1.56,15.36.14.14,0,0,1,0,.09c-1.55,3-2.74,5.26-3.55,6.83l-.93,1.77c-.21.4-.33.61-.33.61l.28-.58c.2-.42.49-1,.87-1.77l3.46-7v.09a31.19,31.19,0,0,1-1.69-15.48,42.91,42.91,0,0,1,1.06-4.8l.89-2.44a25.08,25.08,0,0,1,1.1-2.44,31.57,31.57,0,0,1,6.93-9.14,31.83,31.83,0,0,1,44,1.19l1.28,1.43.65.71.57.77L236.1,73c.36.53.68,1.1,1,1.66A30.05,30.05,0,0,1,238.89,78c.3.57.46,1.2.7,1.79s.47,1.19.63,1.8l.47,1.85c.07.3.17.61.23.92l.14.93c.1.62.19,1.24.29,1.86s.08,1.25.12,1.87a31.57,31.57,0,0,1-32.77,33.18,33.57,33.57,0,0,1-5.23-.61A31.3,31.3,0,0,1,186,111.33l.18-.12v0a.12.12,0,0,1,0,.15h-.06l-7.83-.41-2-.11Z" style="fill:#263238"></path><path d="M211.05,105.58H195.68V74.25h15.37Zm-14.37-1h13.37V75.25H196.68Z" style="fill:#263238"></path><rect x="199.04" y="78.87" width="3.16" height="3.82" style="fill:#263238"></rect><rect x="204.53" y="78.87" width="3.16" height="3.82" style="fill:#263238"></rect><rect x="199.04" y="84.83" width="3.16" height="3.82" style="fill:#263238"></rect><rect x="204.53" y="84.83" width="3.16" height="3.82" style="fill:#263238"></rect><rect x="199.04" y="90.8" width="3.16" height="3.82" style="fill:#263238"></rect><rect x="204.53" y="90.8" width="3.16" height="3.82" style="fill:#263238"></rect><rect x="199.04" y="96.95" width="3.16" height="3.82" style="fill:#263238"></rect><rect x="204.53" y="96.95" width="3.16" height="3.82" style="fill:#263238"></rect><rect x="213.18" y="93.51" width="3.16" height="3.82" style="fill:#263238"></rect><rect x="218.67" y="93.51" width="3.16" height="3.82" style="fill:#263238"></rect><rect x="213.18" y="98.86" width="3.16" height="3.82" style="fill:#263238"></rect><rect x="218.67" y="98.86" width="3.16" height="3.82" style="fill:#263238"></rect><path d="M225,105.58H210V90h15Zm-14-1h13V91H211Z" style="fill:#263238"></path><rect x="215.14" y="77.95" width="7.05" height="10.03" style="fill:#455a64"></rect><polygon points="218.66 79.66 213.63 79.66 216.15 76.5 218.66 73.35 221.18 76.5 223.7 79.66 218.66 79.66" style="fill:#455a64"></polygon></g><g id="freepik--character-2--inject-3"><path d="M379.62,453.72v1.14s-19.13,7.89-19.3,11.54l38.12-.56-.7-12.68A21.79,21.79,0,0,1,379.62,453.72Z" style="fill:#263238"></path><path d="M398.45,465.84l-.17-3-36.47,1.65s-1.69.76-1.48,2Z" style="fill:#455a64"></path><path d="M379.5,455c0,.18.94.25,1.86.84s1.42,1.36,1.59,1.28-.12-1.15-1.25-1.83S379.45,454.8,379.5,455Z" style="fill:#fff"></path><path d="M375.52,456.68c0,.18.77.48,1.42,1.26s.83,1.61,1,1.6.29-1.07-.53-2S375.52,456.5,375.52,456.68Z" style="fill:#fff"></path><path d="M373.32,461.5c.17,0,.42-.9-.08-1.91s-1.37-1.41-1.44-1.25.47.69.86,1.53S373.14,461.48,373.32,461.5Z" style="fill:#fff"></path><path d="M406.88,442.23l-16.23,4.54,4.05,9.2-4.21,23.29a2.64,2.64,0,0,0,1.84,3,2.69,2.69,0,0,0,2.73-.79c3.58-4,16.68-18.86,16.37-20.67l-.52-4.84c-.11-1-1.08-3.39-1.08-3.61Z" style="fill:#263238"></path><path d="M392.81,482.38l18.47-23.24.09,1.06a2.93,2.93,0,0,1-.75,2.43c-1.45,2.34-5.57,7.65-15.49,18.87a2.69,2.69,0,0,1-2.32.88Z" style="fill:#455a64"></path><path d="M397.68,470.92a7.88,7.88,0,0,0-2.43-1.74,8.26,8.26,0,0,0-3-.28c0-.06.28-.29.88-.42a4.21,4.21,0,0,1,2.33.18,4.1,4.1,0,0,1,1.87,1.38C397.66,470.52,397.74,470.89,397.68,470.92Z" style="fill:#fff"></path><path d="M396.15,474.43a21.69,21.69,0,0,0-2.37-.87,23.07,23.07,0,0,0-2.53-.08,3,3,0,0,1,2.65-.46C395.45,473.32,396.28,474.35,396.15,474.43Z" style="fill:#fff"></path><path d="M400.69,466.31a26.42,26.42,0,0,0-3.57-1.57,27.77,27.77,0,0,0-3.89-.52,6,6,0,0,1,4,0A5.85,5.85,0,0,1,400.69,466.31Z" style="fill:#fff"></path><path d="M394.51,452.81a16.62,16.62,0,0,1,.19,3.13h0v0c-.2,1.35-.49,3.08-.81,4.95-.39,2.21-.77,4.21-1.07,5.66a11.75,11.75,0,0,1-.58,2.32,11.87,11.87,0,0,1,.25-2.38c.21-1.46.53-3.47.92-5.69.33-1.87.65-3.59.92-4.92v0A19,19,0,0,1,394.51,452.81Z" style="fill:#455a64"></path><path d="M417.6,302.88c1.28-6.17,4.52-17.33,3.25-22.47-3-11.91-8.15-18.8-15.24-33.92h-5.27l-50.58-.88-4.14,9.18c-4.6,12.37-7.74,19.75-9,28.8-1.49,10.42,1.12,25.52,6.92,40.77,12.5,32.91,19.48,59.23,20,66.32s1.23,14.41,7.81,36.86c4.79,16.39,8.34,26.18,8.34,26.18,5,2.82,10.27,3.58,15.08.84l14.68-5.66s-4.5-38.65-9.75-48.91c-3.78-7.38-10-10.88-7.08-20.5S413.68,321.83,417.6,302.88Z" style="fill:#263238"></path><path d="M358.4,271.67a1.86,1.86,0,0,1,.2.26l.56.77,2.14,3.05,8,11.53,0,.05v.05c-.39,4.32-.54,9.33-.81,14.92s-.56,11.73-.87,18.33-.72,13.66-1.1,21.05-.82,15.13-1.56,23.08c-.77,6.61-1.45,13.11-.89,19.35.15,1.56.34,3.1.63,4.61a30.25,30.25,0,0,0,1.1,4.41c1,2.8,2.26,5.52,3.41,8.16,4.67,10.57,9,20,12.68,27.95L390.61,448l2.35,5.12c.25.57.45,1,.6,1.33s.19.46.19.46-.09-.14-.24-.44l-.64-1.31c-.57-1.18-1.38-2.89-2.43-5.07l-8.81-18.73c-3.68-7.92-8.09-17.35-12.78-27.91-1.16-2.65-2.38-5.33-3.45-8.19a30.74,30.74,0,0,1-1.11-4.47c-.3-1.53-.5-3.08-.65-4.65-.57-6.31.11-12.85.88-19.46.74-7.91,1.12-15.66,1.57-23s.79-14.45,1.14-21.05.65-12.75.94-18.33.47-10.6.89-14.92l0,.09c-3.38-5-6.06-8.91-7.91-11.61l-2.08-3.09-.52-.8A1.51,1.51,0,0,1,358.4,271.67Z" style="fill:#455a64"></path><path d="M365.14,163.62l3.11-7.85,18.51-1,7.56,1,.83,2.18,5.13,90.78s-17.93,3.62-26.89,2.36-19.51-5.35-19.51-5.35V194.11Z" style="fill:#f5f5f5"></path><path d="M393,167.31s0,.06-.13.16l-.4.45c-.35.39-.88,1-1.58,1.64a64.92,64.92,0,0,1-6.06,5.31l-.09.07-.07-.09a68.37,68.37,0,0,1-5.56-6.95c-.19-.27-.37-.55-.55-.8h.23c-1.59,2.13-3.09,4.15-4.45,6a3,3,0,0,1-.62.62,1.15,1.15,0,0,1-.86.24,1.43,1.43,0,0,1-.74-.42c-.2-.2-.35-.41-.51-.6l-1.76-2.2-2.52-3.19-.67-.87a2.44,2.44,0,0,1-.22-.31l.26.28.71.84,2.59,3.13,1.78,2.18c.32.38.64.84,1.12.92s.91-.34,1.24-.77l4.43-6,.11-.16.11.16.54.79a73.73,73.73,0,0,0,5.52,6.95l-.17,0a71.27,71.27,0,0,0,6.11-5.21c.71-.68,1.25-1.22,1.63-1.59l.43-.42A.92.92,0,0,1,393,167.31Z" style="fill:#263238"></path><g style="opacity:0.30000000000000004"><path d="M371.85,173.07s2.35,2.89,3,2.16,4.14-6.11,4.55-6.33,4.62,7.32,6.27,6.8,7.53-6.41,7.53-6.41l.11-2.31-8.56,7.79L378.68,167l-5.12,6.65S372.48,174.53,371.85,173.07Z"></path></g><path d="M375.79,251.64a5,5,0,0,1,0-.85c0-.6,0-1.42.08-2.44.09-2.16.21-5.21.36-9,.32-7.57.75-18,1.15-29.57s.69-22,.9-29.58c.1-3.75.19-6.8.25-9q.06-1.53.09-2.43a5.12,5.12,0,0,1,.07-.85,5,5,0,0,1,0,.85v2.44c0,2.17-.05,5.22-.09,9-.11,7.57-.35,18-.74,29.59s-.89,22-1.3,29.57c-.22,3.74-.4,6.79-.53,9-.07,1-.13,1.83-.18,2.44A6.31,6.31,0,0,1,375.79,251.64Z" style="fill:#263238"></path><g style="opacity:0.30000000000000004"><path d="M359.48,215l-9.72,63.81.75,6.91c.85,1,2.56.65,3.42-.31a6.84,6.84,0,0,0,1.34-3.58C359,259.76,361,237.32,359.48,215Z"></path></g><path d="M345.8,163.86a11.59,11.59,0,0,0-7.54,7.68l-11.58,40.85,9.5,28,9.92-16.88,7-61.09Z" style="fill:#FFC100"></path><path d="M359.18,161.24l-11,2.15-3.08,58.39c0,.72.72,12,.72,12l-19,42.42c4.24,7.56,15.7,11.11,23.78,13,0,0,8.18-58,8.71-70.78s8.74-62.47,8.74-62.47Z" style="fill:#FFC100"></path><path d="M329.2,271.39l.07-.19.24-.56.92-2.14c.81-1.87,2-4.57,3.46-7.94l11.84-26.88v.06c-.09-2.89-.2-5.89-.34-9-.32-6.91-.7-13.5-.95-19.49s-.41-11.4-.46-15.94,0-8.21,0-10.74c0-1.26.05-2.24.07-2.92,0-.33,0-.58,0-.76s0-.26,0-.26,0,.09,0,.26v.76c0,.68,0,1.66,0,2.92,0,2.53,0,6.21.07,10.74s.24,9.93.52,15.93.62,12.58,1,19.49c.14,3.07.25,6.08.33,9v.06l-11.92,26.85c-1.5,3.35-2.7,6-3.54,7.9-.41.92-.74,1.63-1,2.12-.11.24-.19.42-.26.55A.74.74,0,0,1,329.2,271.39Z" style="fill:#263238"></path><path d="M358.79,212.08s0-.05-.05-.14l-.1-.41c-.09-.38-.21-.9-.36-1.57-.29-1.37-.69-3.36-1.07-5.85s-.74-5.44-1-8.75-.52-6.94-.7-10.76c-.06-1.43-.13-2.83-.19-4.2l-.09-2c0-.33,0-.66,0-1l0-.5v-.25s0-.08,0-.13,0,0,0-.09l0-.06s.12-.05.14,0,.07,0,.1.08l-.19,0,2.94-2.06,0,.22L355,173l-.09,0,0-.09c.48-1.81,1.06-3.43,1.56-4.85s1-2.66,1.37-3.67.71-1.79.93-2.33c.11-.25.2-.45.26-.61s.1-.2.1-.2a.92.92,0,0,1-.07.22l-.22.62c-.21.56-.5,1.35-.88,2.35s-.82,2.25-1.31,3.68-1.05,3-1.52,4.85l-.06-.13,3.2,1.47.2.09-.18.13-2.93,2.06-.19,0s.1-.07.09-.07,0,0,0,0a.05.05,0,0,0,.05,0l.05,0h0v.37l0,.49.05,1c0,.66.06,1.34.09,2,.06,1.37.13,2.77.19,4.2.18,3.82.4,7.45.68,10.75s.62,6.27,1,8.75.73,4.47,1,5.85c.13.67.24,1.2.31,1.58,0,.17.06.31.08.41S358.79,212.08,358.79,212.08Z" style="fill:#263238"></path><path d="M413.26,239.07l7-70.65-19.67-7.21s-4.61-4.24-7.06-6.43l-.87,11.08s-2.66,45.35,1.53,68.19,3.6,22.06,6.66,36.92c2.23,10.81,2.6,20.25,6,21.2s20.36-5.26,20.36-5.26Z" style="fill:#FFC100"></path><path d="M420.25,168.42s7.7,2.93,8.86,12.84c.85,7.32,5.35,49.13.64,54.34a139.28,139.28,0,0,1-18.41,16.56l-11-14.31,10.44-11.48,5.89-50.65Z" style="fill:#FFC100"></path><path d="M398.42,209.65a.72.72,0,0,1,0-.14c0-.1,0-.23.07-.39q.11-.54.3-1.5c.24-1.3.6-3.19.93-5.54.7-4.7,1.3-11.23,1.64-18.47q.12-2.56.24-5c0-.81.07-1.6.11-2.38l.06-1.15c0-.19,0-.38,0-.57v-.27a.53.53,0,0,0,0-.13v0h0s0,0,0,0a.13.13,0,0,0,.08,0s.08,0,.08,0h0l-.18,0-2.93-2.07-.17-.11.19-.09,3.2-1.47-.06.12a39.51,39.51,0,0,1-.65-3.9c-.15-1.16-.29-2.15-.45-2.95s-.33-1.42-.45-1.84l-.16-.47c0-.1-.05-.16,0-.16a1.15,1.15,0,0,1,.07.15c0,.11.11.26.18.46a13.78,13.78,0,0,1,.51,1.83c.18.81.34,1.8.51,2.95a39.22,39.22,0,0,0,.69,3.88l0,.08-.08,0L399,172.09l0-.2,2.94,2.05-.19,0,0,0a.22.22,0,0,1,.1-.05.21.21,0,0,1,.1,0l0,0,0,0s0,.06,0,.09v.44c0,.19,0,.38,0,.57,0,.38,0,.76-.05,1.15,0,.78-.07,1.57-.1,2.38-.08,1.61-.15,3.28-.23,5a179.08,179.08,0,0,1-1.73,18.49c-.36,2.35-.75,4.23-1,5.53-.15.63-.26,1.13-.35,1.49q-.06.24-.09.39C398.44,209.61,398.43,209.65,398.42,209.65Z" style="fill:#263238"></path><path d="M425.51,228.06s-.69-.46-1.87-1a13.79,13.79,0,0,0-2.16-.83,15.24,15.24,0,0,0-2.79-.5,15.41,15.41,0,0,0-2.83.08,13,13,0,0,0-2.26.5c-1.26.39-2,.8-2,.75a2.08,2.08,0,0,1,.5-.31,6,6,0,0,1,.61-.29,7.69,7.69,0,0,1,.84-.34,12.58,12.58,0,0,1,2.29-.56,13.19,13.19,0,0,1,5.72.43,13,13,0,0,1,2.17.89,7.34,7.34,0,0,1,.78.46,5.6,5.6,0,0,1,.57.38A2.37,2.37,0,0,1,425.51,228.06Z" style="fill:#263238"></path><g style="opacity:0.30000000000000004"><path d="M400.6,162.12s3.55,8.28,3,9-2.36,1.18-2.36,1.18,3.06,1.33,3.06,2.5c0,2.34-3.29,16.18-3.29,16.18l.81-16.91-2.93-2,3.2-1.49Z"></path></g><path d="M414.76,185.43a2.14,2.14,0,0,1,0,.58c0,.43-.06,1-.1,1.65-.11,1.51-.27,3.56-.46,6.07-.45,5.19-1.05,12.23-1.72,20-.23,2.42-.44,4.77-.65,7q-.16,1.68-.36,3.27a19.51,19.51,0,0,1-.54,3.07l0,0,0,0L403.3,235l-2.16,2.16a5.44,5.44,0,0,1-.8.74,5.79,5.79,0,0,1,.7-.83l2.06-2.26,7.44-7.91,0,.08a21.15,21.15,0,0,0,.49-3c.12-1.05.23-2.14.34-3.26.2-2.24.41-4.59.63-7,.73-7.77,1.39-14.81,1.87-20,.26-2.51.48-4.56.63-6.06.08-.66.15-1.21.2-1.64A2.35,2.35,0,0,1,414.76,185.43Z" style="fill:#263238"></path><path d="M328.76,205.06l-7.63,17-7.2-8.07-9.61,6.78,11.29,18.11c3.55,4.55,6.94,7.65,10.8,7.16a11.78,11.78,0,0,0,2.28-.55c5.3-1.81,8.95-5.37,10.33-10.8l4.37-21.91Z" style="fill:#FFC100"></path><path d="M329.55,235.42a5.54,5.54,0,0,1-.15-.72c-.08-.46-.22-1.13-.41-1.95s-.45-1.78-.79-2.84-.77-2.2-1.28-3.37-1.08-2.26-1.62-3.23-1.09-1.81-1.56-2.5-.88-1.25-1.16-1.62a5.52,5.52,0,0,1-.43-.59,4,4,0,0,1,.49.54c.31.36.73.9,1.22,1.58s1,1.53,1.61,2.49a36.09,36.09,0,0,1,1.65,3.24c.51,1.18.93,2.34,1.27,3.4s.58,2,.75,2.87.28,1.5.34,2A4,4,0,0,1,329.55,235.42Z" style="fill:#263238"></path><path d="M371.62,96.79l-.06.26,0,0C371.61,97,371.61,96.88,371.62,96.79Z" style="fill:#263238"></path><path d="M353.13,145.7c.13-2.72-.89-5.35-1.75-7.94s-1.57-5.39-.84-8c.92-3.3,3.89-5.6,5.49-8.64s1.72-6.63,2-10.06.86-7.07,3.14-9.66c2.88-3.28,10.42-3.87,14-1.34.55,19.52.38,38.85-3.8,57.93-9.53.41-14.36-1.45-22.67-6.11C351.35,151.31,353,148.43,353.13,145.7Z" style="fill:#263238"></path><path d="M394,158.07l3.45-47.4a4.19,4.19,0,0,0-3.62-4.35l-22-6.23c-7.08-1-12.05,7.66-12.7,14.77-.72,7.9-1.29,17.58-.52,23.51,1.55,11.93,10.61,13.7,10.61,13.7-.19,5.88-.12,6-.12,6l9.71,8.88Z" style="fill:#ffbf9d"></path><path d="M362.34,125.18a1.52,1.52,0,0,0,1.42,1.58,1.46,1.46,0,0,0,1.61-1.33,1.53,1.53,0,0,0-1.42-1.58A1.46,1.46,0,0,0,362.34,125.18Z" style="fill:#263238"></path><path d="M361.07,120c.18.2,1.36-.62,3-.57s2.82.91,3,.71-.09-.45-.6-.85a4.21,4.21,0,0,0-2.4-.81,4,4,0,0,0-2.39.7C361.16,119.51,361,119.87,361.07,120Z" style="fill:#263238"></path><path d="M376.32,125.47a1.52,1.52,0,0,0,1.42,1.58,1.46,1.46,0,0,0,1.61-1.33,1.52,1.52,0,0,0-1.42-1.58A1.45,1.45,0,0,0,376.32,125.47Z" style="fill:#263238"></path><path d="M377.17,120.72c.19.2,1.37-.62,3-.57s2.82.91,3,.71-.09-.45-.6-.84a4.19,4.19,0,0,0-2.4-.82,4,4,0,0,0-2.39.7C377.27,120.27,377.08,120.63,377.17,120.72Z" style="fill:#263238"></path><path d="M370.88,132.71a10.39,10.39,0,0,0-2.65-.56c-.42-.05-.81-.15-.87-.44a2.09,2.09,0,0,1,.31-1.23c.42-1,.87-2,1.33-3.15,1.85-4.49,3.2-8.18,3-8.26s-1.83,3.51-3.68,8c-.44,1.1-.87,2.16-1.27,3.17a2.41,2.41,0,0,0-.27,1.64,1.09,1.09,0,0,0,.67.63,2.92,2.92,0,0,0,.71.12A11.26,11.26,0,0,0,370.88,132.71Z" style="fill:#263238"></path><path d="M369.2,152.07a30.24,30.24,0,0,0,16-3.79c.71-1.64-3.18,5.93-16.09,6.9Z" style="fill:#ff9a6c"></path><path d="M371,136.61a4,4,0,0,1,3.37-1.67,2.65,2.65,0,0,1,2.13,1.24,2.56,2.56,0,0,1-.12,2.65,2.52,2.52,0,0,1-2.69.88,6.05,6.05,0,0,1-2.37-1.56,1.94,1.94,0,0,1-.5-.63.83.83,0,0,1,.09-.83" style="fill:#ff9a6c"></path><path d="M375.67,134c-.27,0-.32,1.75-1.88,3s-3.44,1-3.47,1.22.42.36,1.22.4a4.46,4.46,0,0,0,2.89-.91,3.86,3.86,0,0,0,1.46-2.5C376,134.42,375.79,134,375.67,134Z" style="fill:#263238"></path><path d="M376.64,114c.15.45,1.79.29,3.71.57s3.46.86,3.72.47c.12-.19-.14-.62-.75-1.07a6.21,6.21,0,0,0-2.74-1,6.28,6.28,0,0,0-2.92.25C376.94,113.4,376.58,113.74,376.64,114Z" style="fill:#e0e0e0"></path><path d="M361.81,114.33c.28.38,1.42,0,2.77,0s2.5.32,2.78-.06c.12-.19-.05-.56-.54-.93a3.84,3.84,0,0,0-2.24-.68,3.92,3.92,0,0,0-2.24.69C361.85,113.77,361.69,114.15,361.81,114.33Z" style="fill:#263238"></path><path d="M369.19,100c2-4.88,6.45-5.91,11.18-6.42s11.75,1.45,15.66,4a36.54,36.54,0,0,1,8.66,7.34c2.1,2.71,3,5.8,4.34,8.92,2,4.86,1.9,10.23,2.18,15.45a94,94,0,0,0,3.13,19.4c.62,2.28,1.25,5-2,6.31a7.49,7.49,0,0,1-1.88.46c-5,.6-9.84,2.23-15.41,2.58h-3.43c-4.35,0-6.58-2.8-6.43-6.35.45-10.73,5.68-28.35,6.26-31.73C391.48,120,393.29,96.84,369.19,100Z" style="fill:#263238"></path><path d="M370.76,99.9a7,7,0,0,1,2.5,4.9c.26,1.87.15,3.79.5,5.64a11.81,11.81,0,0,0,6.79,8.51c1.11.47,2.62.67,3.31-.32a6.51,6.51,0,0,0,4,6.21c1.76.71,3.73.59,5.58,1s3.79,1.68,3.89,3.58l.78-13.19-3.71-11.66L383,97.8Z" style="fill:#263238"></path><path d="M391,121.64a9.69,9.69,0,0,1-1.09-.88,8,8,0,0,1-1.8-3.33,27.52,27.52,0,0,1-.79-5.61,44.88,44.88,0,0,0-.81-6.95,13.25,13.25,0,0,0-3.1-6.23,7.78,7.78,0,0,0-2.49-1.79,7.67,7.67,0,0,0-2.6-.64,6.14,6.14,0,0,0-3.71.89,3,3,0,0,0-.49.35,2,2,0,0,0-.33.3,2.67,2.67,0,0,0-.25.28,7.77,7.77,0,0,1,1.11-.86,6.2,6.2,0,0,1,3.66-.8,7.53,7.53,0,0,1,5,2.41,13.22,13.22,0,0,1,3,6.14,46.72,46.72,0,0,1,.82,6.91,26.43,26.43,0,0,0,.85,5.65,7.78,7.78,0,0,0,1.89,3.34A4.15,4.15,0,0,0,391,121.64Z" style="fill:#fff"></path><path d="M400.86,120.05a6.87,6.87,0,0,1-1.74-.44,9.08,9.08,0,0,1-3.64-3.2,17.31,17.31,0,0,1-1.67-2.94,13.21,13.21,0,0,1-.93-3.76c-.17-1.36-.22-2.81-.38-4.31-.09-.74-.19-1.51-.36-2.27a12.42,12.42,0,0,0-.76-2.25A12.18,12.18,0,0,0,385,94.74a11.5,11.5,0,0,0-7.24-.49,11.88,11.88,0,0,0-4.44,2.15A9.26,9.26,0,0,0,372,97.64a.32.32,0,0,0,.09-.08l.26-.23c.11-.11.25-.24.42-.38s.37-.32.61-.48a12,12,0,0,1,4.42-2.06,11.5,11.5,0,0,1,7.12.52,12.1,12.1,0,0,1,6.25,6,12.75,12.75,0,0,1,.74,2.21,22.37,22.37,0,0,1,.36,2.25c.16,1.48.22,2.93.39,4.31a13.25,13.25,0,0,0,1,3.8,17.7,17.7,0,0,0,1.71,3,9.12,9.12,0,0,0,3.74,3.19,5.55,5.55,0,0,0,1.3.32l.35,0Z" style="fill:#455a64"></path><path d="M383.86,118.63s0,0,0,.11,0,.19,0,.32,0,.33.07.54.09.45.15.72a7.32,7.32,0,0,0,.75,1.88,6.61,6.61,0,0,0,1.8,2,10.65,10.65,0,0,0,6.84,1.69,20.35,20.35,0,0,0,4.24-.66,17,17,0,0,0,4.32-1.74l.27-.16-.31,0a16.57,16.57,0,0,1-5-1.54l-.09,0-.07.21a15.77,15.77,0,0,0,10.27-1.84l.21-.12-.23-.07a19.36,19.36,0,0,1-6.09-3.09,9.74,9.74,0,0,1-3.18-4.23,9.84,9.84,0,0,1-.52-3.44c0-.39.05-.7.07-.93V108s0-.08,0-.08a.45.45,0,0,1,0,.08l0,.24c0,.22-.06.53-.11.93a9.7,9.7,0,0,0,.47,3.49A9.87,9.87,0,0,0,401,117a19.72,19.72,0,0,0,6.14,3.15l0-.19a15.63,15.63,0,0,1-10.13,1.8l-.77-.13.7.34.09,0a16.74,16.74,0,0,0,5,1.56l0-.21a17.25,17.25,0,0,1-4.27,1.73,19.8,19.8,0,0,1-4.19.66,10.53,10.53,0,0,1-6.74-1.61,6.51,6.51,0,0,1-1.79-2,8.22,8.22,0,0,1-.78-1.85c-.06-.27-.12-.5-.16-.71s-.06-.39-.09-.53,0-.24-.05-.32A.66.66,0,0,0,383.86,118.63Z" style="fill:#455a64"></path><path d="M408.24,151.09c.06,0-.66-6.36-1.61-14.18s-1.78-14.16-1.84-14.16.66,6.36,1.61,14.18S408.17,151.09,408.24,151.09Z" style="fill:#455a64"></path><path d="M384.16,240.83A6.93,6.93,0,0,0,378.7,242c-2.48,1.82-6.73,4.24-11,3.4-6.63-1.31-10.23-7.53-8.75-15s7.15-11.93,13.79-10.62c4.29.84,7.31,4.68,8.92,7.31a7,7,0,0,0,4.6,3.15,7.05,7.05,0,0,0,8.28-5.56l7.36-44.26-69.32-12.11-47.38-8.21-7.4,42c-.75,3.82,2.46,7.21,6.28,8a6.91,6.91,0,0,0,5.45-1.18c2.48-1.82,6.74-4.24,11-3.4,6.64,1.31,10.24,7.53,8.76,15.05s-7.16,11.93-13.8,10.62c-4.28-.84-7.31-4.68-8.92-7.31a7,7,0,0,0-4.6-3.16,7,7,0,0,0-8.27,5.56l-8.88,49.46,69.72,12.27,40.9,7.2,5,.89,9.25-46.93A7,7,0,0,0,384.16,240.83Z" style="fill:#455a64"></path><path d="M315.11,212.72a1.8,1.8,0,0,0-1.89-1.87c-.58,0-1.33.07-2.25.16-2.39.24-9.46,3.72-9.65,5.12a3,3,0,0,0,.77,2.85s-1.38,1.83-.88,3.35c.44,1.29,2.52,1.74,2.52,1.74s-1.54,1.79,0,3.07c.55.44,1.66,1.29,1.91,1.58a4.8,4.8,0,0,0,.44,1.1,4.19,4.19,0,0,0,3,1.74l.4,0a3,3,0,0,0,2.14-.62c2.76-2.11,10.58-8.23,10.73-9.93,0,0,1.49-1.16.91-2.37s-2.81-.69-2.81-.69a1.83,1.83,0,0,0,.56-2.09c-.51-1.28-4.46-1.17-6.25-.93-1.43.18-5.41.83-5.41.83s5.3-1.82,5.61-2.72A1.35,1.35,0,0,0,315.11,212.72Z" style="fill:#ffbf9d"></path><path d="M322.43,221.05a3.42,3.42,0,0,1-.53.33c-.35.19-.86.46-1.51.78-1.28.64-3.1,1.44-5.14,2.23s-3.93,1.42-5.3,1.86c-.68.22-1.23.38-1.62.5a4.42,4.42,0,0,1-.6.15,4.29,4.29,0,0,1,.58-.23l1.6-.55c1.36-.47,3.22-1.13,5.27-1.91s3.85-1.57,5.15-2.17l1.54-.73A4.64,4.64,0,0,1,322.43,221.05Z" style="fill:#ff9a6c"></path><path d="M320.77,217.94a2.65,2.65,0,0,1-.58.13c-.37.07-.91.17-1.58.32-1.33.29-3.14.79-5.12,1.42-1,.31-1.94.59-2.79.88s-1.6.61-2.22.87-1.12.51-1.47.67a3,3,0,0,1-.54.24l.13-.09.38-.22c.33-.18.82-.44,1.44-.72s1.37-.61,2.22-.92,1.8-.59,2.79-.9a51.24,51.24,0,0,1,5.16-1.37c.66-.13,1.21-.21,1.59-.26Z" style="fill:#ff9a6c"></path><path d="M309.43,215.8a4.5,4.5,0,0,1-.85.45c-.54.25-1.3.57-2.14.92s-1.58.68-2.12.93a7.57,7.57,0,0,1-.88.39,3.81,3.81,0,0,1,.82-.51,19.79,19.79,0,0,1,2.11-1c.84-.35,1.6-.65,2.15-.87A5.54,5.54,0,0,1,309.43,215.8Z" style="fill:#ff9a6c"></path><path d="M319.94,224.15a2.91,2.91,0,0,1-.36.42c-.25.25-.62.61-1.09,1-.94.87-2.3,2-3.78,3.23-.36.31-.71.64-1.08.92a10.29,10.29,0,0,1-1.08.77,7.18,7.18,0,0,1-2.06.9,4.29,4.29,0,0,1-1.51.13,2.67,2.67,0,0,1-.41-.05l-.14,0a4.5,4.5,0,0,1,.55,0,4.69,4.69,0,0,0,1.47-.2,7.4,7.4,0,0,0,2-.91,11.79,11.79,0,0,0,1.06-.77c.36-.28.7-.6,1.07-.92,1.48-1.26,2.86-2.35,3.82-3.18l1.12-1A3.78,3.78,0,0,1,319.94,224.15Z" style="fill:#ff9a6c"></path><path d="M398.35,240.66s-2.48-2.66-4.57-3.09-5-.06-5.49-.42-1.59-1.78-2.58-.9-2.59,4.39,1.64,6.11l3,.49a14.88,14.88,0,0,1-1.79,4c-.92,1.07-13.29,12.33-13.29,12.33s-1.49,1.08-1.06,2.47,3.3,1.1,3.3,1.1a4.45,4.45,0,0,0,4,1.58,15.33,15.33,0,0,0,3.36-1,4.14,4.14,0,0,0,4.95.81c2.88-1.51,15.16-12.47,15.16-12.47l-3.09-10.89Z" style="fill:#ffbf9d"></path><path d="M401.22,238.52l-3.08,2.15c3.82,3.85,6.72,7.27,5.93,11.89l5.94-2.41S410.52,240.91,401.22,238.52Z" style="fill:#ffbf9d"></path><path d="M386.84,256.62a15.46,15.46,0,0,1-4.19,3.66,15.69,15.69,0,0,1-5,2.41c-.06-.15,2.19-1.17,4.72-2.85S386.73,256.51,386.84,256.62Z" style="fill:#ff9a6c"></path><path d="M391.15,259a11.07,11.07,0,0,1-7,4.85c-.05-.15,1.75-.81,3.67-2.16S391,258.92,391.15,259Z" style="fill:#ff9a6c"></path></g><g id="freepik--character-1--inject-3"><polygon points="214.67 183.78 218.43 181.53 223.38 194.87 219.37 197.35 214.67 183.78" style="fill:#f5f5f5"></polygon><path d="M148.81,97.74A20.61,20.61,0,0,0,129.05,78l-1.06,0c-11.54.19-17.81,10.1-17.3,21.62l1.46,46.4,18.23,7,7.05-6.48c0-3.25,0-10,.07-10s11.13-1.26,11.72-12.31C149.51,118.78,149.2,107.73,148.81,97.74Z" style="fill:#ffbf9d"></path><path d="M137.5,136.43a26.67,26.67,0,0,1-14.23-4.85s3.12,8.46,14.2,7.92Z" style="fill:#ff9a6c"></path><path d="M145,107.28a1.57,1.57,0,0,1-1.59,1.53,1.49,1.49,0,0,1-1.56-1.49,1.57,1.57,0,0,1,1.58-1.53A1.51,1.51,0,0,1,145,107.28Z" style="fill:#263238"></path><path d="M146.26,102.53c-.21.2-1.37-.74-3.07-.8s-3,.73-3.15.51.13-.46.69-.83a4.31,4.31,0,0,1,2.53-.67,4.16,4.16,0,0,1,2.43.9C146.2,102.06,146.36,102.44,146.26,102.53Z" style="fill:#263238"></path><path d="M130.22,107.28a1.58,1.58,0,0,1-1.59,1.53,1.51,1.51,0,0,1-1.57-1.49,1.59,1.59,0,0,1,1.59-1.53A1.51,1.51,0,0,1,130.22,107.28Z" style="fill:#263238"></path><path d="M129.58,102.24c-.2.19-1.36-.74-3.06-.81s-3,.74-3.16.52.13-.46.69-.83a4.34,4.34,0,0,1,2.54-.67,4.28,4.28,0,0,1,2.43.89C129.52,101.77,129.68,102.15,129.58,102.24Z" style="fill:#263238"></path><path d="M135.14,115.55a11,11,0,0,1,2.78-.39c.44,0,.85-.09.94-.39a2.23,2.23,0,0,0-.24-1.29c-.36-1.07-.75-2.19-1.15-3.36-1.59-4.78-2.72-8.7-2.52-8.77s1.63,3.76,3.22,8.54c.38,1.18.75,2.3,1.09,3.38a2.46,2.46,0,0,1,.16,1.71,1.12,1.12,0,0,1-.74.61,3.46,3.46,0,0,1-.74.07A11.63,11.63,0,0,1,135.14,115.55Z" style="fill:#263238"></path><path d="M130.35,96.94c-.25.43-1.88-.1-3.88-.22s-3.7.11-3.88-.34c-.08-.22.27-.6,1-.92a6.74,6.74,0,0,1,5.91.43C130.17,96.32,130.46,96.74,130.35,96.94Z" style="fill:#263238"></path><path d="M146.54,97.54c-.36.37-1.73-.06-3.4-.13s-3.08.18-3.39-.23c-.14-.2.09-.58.72-.93a5.66,5.66,0,0,1,5.47.29C146.52,97,146.7,97.35,146.54,97.54Z" style="fill:#263238"></path><path d="M111.26,107.76c-.19-.09-7.51-2.56-7.58,5s7.54,6.08,7.56,5.86S111.26,107.76,111.26,107.76Z" style="fill:#ffbf9d"></path><path d="M109,115.74s-.13.09-.35.19a1.28,1.28,0,0,1-1,0,3.24,3.24,0,0,1-1.48-2.94,4.36,4.36,0,0,1,.38-1.88,1.55,1.55,0,0,1,1-1,.68.68,0,0,1,.77.37c.1.22,0,.37.09.38s.16-.13.11-.44a.85.85,0,0,0-.3-.48,1,1,0,0,0-.72-.2,1.85,1.85,0,0,0-1.39,1.17,4.45,4.45,0,0,0-.48,2.1c0,1.53.8,3,1.89,3.29a1.42,1.42,0,0,0,1.21-.19C108.94,115.92,109,115.76,109,115.74Z" style="fill:#ff9a6c"></path><path d="M129.8,116.6c.26,0,.27,1.72,1.77,3s3.34,1,3.35,1.27-.41.34-1.19.36a4.31,4.31,0,0,1-2.8-1,3.76,3.76,0,0,1-1.37-2.47C129.49,117,129.68,116.59,129.8,116.6Z" style="fill:#263238"></path><path d="M164.09,87.78a1.71,1.71,0,0,0-.83-1,5.46,5.46,0,0,0-2.82-.5,15.73,15.73,0,0,1-6.91-1.82,8,8,0,0,0,2.05-1.4A4.75,4.75,0,0,0,157,78.3a1,1,0,0,0-.58-.73c-.49-.16-.93.32-1.28.7a4.11,4.11,0,0,1-3.87,1.59,6.72,6.72,0,0,1-2.86-.89.52.52,0,0,1-.1-.11l-1.14-1.18h0c-2.82-2.86-5.25-4.84-7.76-5.89-3.68-1.53-9.85-2.2-13.72-1.23s-7.36,4-7.94,8c-2.14-1.86-5.39-1.88-8-.85l-.07,0c-2.94,1-4.64,4.09-5.54,7.07,0,.16-.09.33-.14.49a11.64,11.64,0,0,1-4,3.81c-.28.16-.61.36-.65.69a1,1,0,0,0,.5.78,5.94,5.94,0,0,0,2.36,1,13.28,13.28,0,0,1-1,2c-.33.56-.73,1.23-.45,1.81A1.23,1.23,0,0,0,102,96a3.64,3.64,0,0,0,1.37-.6l-1,2.34a7,7,0,0,0,3.19-.18c.59,2.8,1,8,1.7,9.89,2,.06,2.5-.15,3.51.19,1.31.45.78,2.77,2.49,2.13.87-.33,2.25-3.6,2.55-4.49A43.39,43.39,0,0,0,117.91,87a14,14,0,0,1,4.32-3l-.13.12c3.11-1,6.62-2.06,9.54-.58,2.27,1.16,3.58,3.54,5.26,5.44a15.86,15.86,0,0,0,11.63,5.83c.4,3.34.46,8.81.59,11.93l2.74-6.21v0c.22-.37.4-.74.58-1.1l.06-.11v0a19.37,19.37,0,0,1,.89-1.76l0,0A2,2,0,0,0,156.3,95a4.45,4.45,0,0,0-.93-1,3.07,3.07,0,0,0,2.93.8A2.42,2.42,0,0,0,160,92.42a2.05,2.05,0,0,0-1.2-1.67,7,7,0,0,0,4-.82C163.57,89.49,164.35,88.77,164.09,87.78Z" style="fill:#263238"></path><path d="M121.22,79.87a9.34,9.34,0,0,0-1.12,1,7.94,7.94,0,0,0-1.74,3.66,13.48,13.48,0,0,0-.32,2.81c0,1,.06,2.12.12,3.27a29.07,29.07,0,0,1,0,3.63,12.67,12.67,0,0,1-.27,1.92,4.06,4.06,0,0,1-.8,1.85,1.67,1.67,0,0,1-1.57.51,2.58,2.58,0,0,1-1.4-.81,5.83,5.83,0,0,1-1-2.83l.24,0a9.13,9.13,0,0,1-1.38,2.3,3.27,3.27,0,0,1-2.17,1.15,2.2,2.2,0,0,1-1.14-.21,1.94,1.94,0,0,1-.76-.77,1.87,1.87,0,0,1-.23-1,1.38,1.38,0,0,1,.37-.86l.11.11a7.08,7.08,0,0,1-2.4,1.76c-.31.14-.57.22-.74.28a1.71,1.71,0,0,1-.26.06l.25-.11c.16-.06.41-.16.72-.31a7.38,7.38,0,0,0,2.32-1.78l.11.1a1.41,1.41,0,0,0-.09,1.65,1.74,1.74,0,0,0,.69.68,2,2,0,0,0,1,.18,3.1,3.1,0,0,0,2-1.09,8.9,8.9,0,0,0,1.32-2.26l.17-.35.07.38a5.53,5.53,0,0,0,1,2.71,2.27,2.27,0,0,0,1.25.72,1.41,1.41,0,0,0,1.34-.43,3.74,3.74,0,0,0,.74-1.73,13.37,13.37,0,0,0,.27-1.87,28.82,28.82,0,0,0,0-3.61c-.06-1.15-.12-2.25-.09-3.28a13.8,13.8,0,0,1,.35-2.85A7.87,7.87,0,0,1,120,80.8,4.35,4.35,0,0,1,121.22,79.87Z" style="fill:#455a64"></path><path d="M155.38,91l-.09.07-.28.2a4.94,4.94,0,0,1-.47.3,7.17,7.17,0,0,1-.68.34,9.74,9.74,0,0,1-4.75.8,12.5,12.5,0,0,1-6.66-2.54,21.67,21.67,0,0,1-5.67-6.69c-.79-1.35-1.44-2.73-2.14-4a14.91,14.91,0,0,0-2.44-3.4,7.54,7.54,0,0,0-3.17-2,5.49,5.49,0,0,0-1.68-.21,5.91,5.91,0,0,0-1.55.28,6.58,6.58,0,0,0-2.33,1.36,6.29,6.29,0,0,0-1.26,1.61,6.67,6.67,0,0,0-.59,1.66s0,0,0-.12,0-.2.05-.34a5.57,5.57,0,0,1,.44-1.25,6.17,6.17,0,0,1,1.26-1.66A6.57,6.57,0,0,1,125.74,74a6.22,6.22,0,0,1,1.6-.3,5.63,5.63,0,0,1,1.75.21,7.8,7.8,0,0,1,3.28,2,15.09,15.09,0,0,1,2.49,3.45c.72,1.28,1.36,2.66,2.14,4A22,22,0,0,0,142.59,90a12.46,12.46,0,0,0,6.53,2.55,10,10,0,0,0,4.7-.71A16.06,16.06,0,0,0,155.38,91Z" style="fill:#455a64"></path><path d="M156.44,86.18s-.13.11-.4.27a8.49,8.49,0,0,1-1.18.59,11.85,11.85,0,0,1-1.87.59,14.34,14.34,0,0,1-2.39.29,13.9,13.9,0,0,1-2.4-.19,11.52,11.52,0,0,1-1.89-.52,8.74,8.74,0,0,1-1.2-.53,1.74,1.74,0,0,1-.42-.26s.63.28,1.68.62a13,13,0,0,0,1.88.45,14.34,14.34,0,0,0,2.35.17,13.92,13.92,0,0,0,2.34-.27,13.24,13.24,0,0,0,1.85-.52C155.82,86.48,156.42,86.14,156.44,86.18Z" style="fill:#455a64"></path><path d="M144.4,433l.16,21.45s21.85,7,22.27,11l-41.58,1.8-1.62-33.41Z" style="fill:#263238"></path><path d="M131.62,453.23a1.71,1.71,0,0,0-1.09,2,1.64,1.64,0,0,0,2,1.1,1.8,1.8,0,0,0,1.15-2.11,1.69,1.69,0,0,0-2.17-.92" style="fill:#e0e0e0"></path><path d="M125.25,467.28l0-3.37,39.88-.47s1.88.73,1.73,2Z" style="fill:#455a64"></path><path d="M145.22,454.24c0,.2-1,.34-2,1s-1.46,1.57-1.65,1.5.06-1.26,1.25-2.08S145.26,454.05,145.22,454.24Z" style="fill:#fff"></path><path d="M149.66,455.85c.06.2-.81.58-1.46,1.47s-.81,1.8-1,1.8-.38-1.14.46-2.23S149.65,455.66,149.66,455.85Z" style="fill:#fff"></path><path d="M152.36,461c-.18.05-.5-.95,0-2.08s1.4-1.62,1.5-1.46-.47.79-.85,1.73S152.57,460.93,152.36,461Z" style="fill:#fff"></path><path d="M144.64,449.35c-.07.19-1-.05-2.16.08s-2,.53-2.14.36.72-.93,2.07-1.07S144.74,449.19,144.64,449.35Z" style="fill:#fff"></path><path d="M96.19,437.59l-2.26,25.86,4.12,21a2.66,2.66,0,0,1-2.28,3.15h0a2.65,2.65,0,0,1-2.29-.84c-3.7-4-17.27-19-17-20.87.31-2.18.56-27.42.56-27.42Z" style="fill:#263238"></path><path d="M95.77,487.56,76.59,464.11l-.07,1.09a4,4,0,0,0,.78,2.65c1.52,2,5.84,7.58,16.11,18.87a2.64,2.64,0,0,0,2.36.84Z" style="fill:#455a64"></path><g style="opacity:0.6000000000000001"><path d="M82.44,456.09a1.61,1.61,0,0,1,.3,2.13,1.54,1.54,0,0,1-2.1.32,1.7,1.7,0,0,1-.31-2.25,1.59,1.59,0,0,1,2.22-.09" style="fill:#fff"></path></g><path d="M90.58,475.86A8,8,0,0,1,93,474a7.89,7.89,0,0,1,3-.38c0-.07-.29-.29-.89-.41a4.12,4.12,0,0,0-2.35.26A4.06,4.06,0,0,0,90.92,475C90.58,475.46,90.51,475.84,90.58,475.86Z" style="fill:#fff"></path><path d="M92.2,479.45a22,22,0,0,1,2.37-1,23.6,23.6,0,0,1,2.55-.16,2.94,2.94,0,0,0-2.68-.39C92.88,478.28,92.07,479.37,92.2,479.45Z" style="fill:#fff"></path><path d="M87.43,471.2A26.29,26.29,0,0,1,91,469.46a26.42,26.42,0,0,1,3.9-.65,7.29,7.29,0,0,0-7.45,2.39Z" style="fill:#fff"></path><path d="M87.46,463.28c.06.16,1.53-.34,3.39-.29s3.31.59,3.38.44a5.06,5.06,0,0,0-3.37-1A5.17,5.17,0,0,0,87.46,463.28Z" style="fill:#fff"></path><path d="M87.93,455.68a12.54,12.54,0,0,1,3.52-.4,13,13,0,0,1,3.38,1.08c0-.05-.22-.4-.79-.78a5.77,5.77,0,0,0-2.53-.87,5.63,5.63,0,0,0-2.65.36C88.22,455.33,87.89,455.62,87.93,455.68Z" style="fill:#fff"></path><path d="M91.5,453.83a2.45,2.45,0,0,0,.1-1,6.81,6.81,0,0,0-.62-2.62,3,3,0,0,0-1.2-1.52,1.07,1.07,0,0,0-1.22.16,1.77,1.77,0,0,0-.48,1.14,3.75,3.75,0,0,0,3.06,3.68,4.34,4.34,0,0,0,4.42-2,1.5,1.5,0,0,0,.16-1.25,1.06,1.06,0,0,0-1.06-.62,3.7,3.7,0,0,0-1.77.77,7.4,7.4,0,0,0-1.89,1.9,2.45,2.45,0,0,0-.46.87,12.46,12.46,0,0,1,2.58-2.43,3.53,3.53,0,0,1,1.55-.64.55.55,0,0,1,.58.34,1,1,0,0,1-.15.81,3.88,3.88,0,0,1-3.85,1.69,3.26,3.26,0,0,1-2.65-3.08,1.32,1.32,0,0,1,.31-.82.57.57,0,0,1,.67-.09,2.72,2.72,0,0,1,1,1.27A10.12,10.12,0,0,1,91.5,453.83Z" style="fill:#fff"></path><path d="M166.39,255.21a92.35,92.35,0,0,1,2,27.1c-.45,5.76-19.88,165.09-19.88,165.09H122.28l7.37-149.75-2.14.47S113.18,362,112,372.33C111,381.62,98.1,454.68,98.1,454.68l-24.76-.27,9.21-94.3,8.92-85.7,3.35-25Z" style="fill:#263238"></path><path d="M214.7,181.53l-25.49,12.61-14.42-37.56a21.4,21.4,0,0,0-15.26-12.82,18,18,0,0,0-2.64-.35l10.31,60a57.8,57.8,0,0,0,8,13.69c2.15,2.59,6.43,5.31,15.9,2.34l30.46-20.39Z" style="fill:#263238"></path><path d="M110.85,136.1l12.62,10.49,6.44,5,3.26-.46,1.8-4.92,2.43-9.59,3.4,4.49L150,160.64l10.33,94.47s-18,5.28-27.34,5.91-24.19-1.91-24.19-1.91V209.4l-5.29-49.23,6.39-18.86Z" style="fill:#f5f5f5"></path><path d="M137.52,260.39a.9.9,0,0,1,0-.26c0-.2,0-.45,0-.78,0-.71-.06-1.71-.11-3-.09-2.63-.21-6.38-.37-11-.32-9.3-.83-22.14-1.56-36.31s-1.56-27-2.2-36.28l-.76-11c-.09-1.28-.16-2.28-.2-3,0-.33,0-.58,0-.78s0-.26,0-.27a1.14,1.14,0,0,1,0,.27c0,.19,0,.45.09.77.06.71.15,1.71.27,3,.23,2.59.54,6.34.89,11,.71,9.27,1.57,22.09,2.3,36.27s1.2,27,1.45,36.32c.13,4.65.22,8.41.25,11,0,1.29,0,2.29,0,3v.78C137.53,260.3,137.52,260.39,137.52,260.39Z" style="fill:#263238"></path><path d="M104.6,145.8l.9-.48-18,9.43,6.8,46.56,3.78,24L84,282.23s10.58,6.91,15.88,5.55c2.83-.73,5.25-6.42,7.12-10.9a100.32,100.32,0,0,0,7.21-28c1-9.69,2-22,1.31-30.42-1.32-15.67-3.39-41.52-3.58-48.32s-1.79-31.85-1.79-31.85Z" style="fill:#263238"></path><path d="M137.82,136.17l10.46,5.67,9.18,1.57,12.38,27.1-2.36,49L179.84,280s-9.06,3.21-12.65,1.89-8.49-9.44-8.68-14.35-7.17-52.47-7.17-52.47l-5.94-55.91A46,46,0,0,0,141,143.82Z" style="fill:#263238"></path><path d="M148.28,143.41a3.39,3.39,0,0,1,.33.38l.94,1.14,3.46,4.34.07.09-.09.07-2.94,2.23,0-.24,3.45,1.09.1,0v.12c-.06,6.13-.14,13.86-.23,22.24-.15,10.23-.29,19.48-.39,26.22-.06,3.33-.12,6-.16,7.94,0,.91,0,1.64-.06,2.16,0,.23,0,.41,0,.56s0,.19,0,.19,0-.06,0-.19,0-.33,0-.56c0-.53,0-1.25,0-2.16,0-1.91,0-4.62,0-7.95.07-6.73.16-16,.27-26.22.12-8.37.23-16.1.31-22.24l.11.15-3.43-1.12-.26-.08.22-.16,3-2.2,0,.17-3.38-4.4-.89-1.18A3.84,3.84,0,0,1,148.28,143.41Z" style="fill:#455a64"></path><path d="M114.71,208.71a.62.62,0,0,1-.07-.18l-.18-.55-.69-2.12c-.6-1.83-1.5-4.48-2.65-7.74l-1.9-5.32a62.23,62.23,0,0,1-1.93-6.2A139.85,139.85,0,0,1,104.58,172c-.93-6.8-1.54-13.22-1.9-18.73v-.08l.06-.06,3-2.86,0,.24-2.82-2.14-.1-.09.08-.11,5.08-6.89,1.39-1.86.38-.47a1.47,1.47,0,0,1,.13-.16s0,.07-.1.18l-.34.5-1.34,1.91-5,7,0-.2,2.83,2.12.15.11-.13.12-3,2.89.05-.14c.4,5.51,1,11.92,2,18.71a144.89,144.89,0,0,0,2.66,14.59q.86,3.31,1.89,6.18l1.86,5.34c1.12,3.27,2,5.93,2.53,7.78.28.93.49,1.65.62,2.14.06.23.11.42.14.56S114.71,208.71,114.71,208.71Z" style="fill:#455a64"></path><polygon points="160.99 242.84 163.24 249.83 175.98 248.66 172.01 241.97 160.99 242.84" style="fill:#263238"></polygon><path d="M161,242.84s.25,0,.76-.1l2.23-.22c1.93-.18,4.71-.44,8-.72h.1l.06.1,4,6.67.15.26-.3,0-.66.06L163.26,250h-.12l0-.11c-.69-2.19-1.22-4-1.58-5.18-.16-.57-.3-1-.41-1.39a3.69,3.69,0,0,1-.12-.47,4,4,0,0,1,.2.51l.49,1.41c.43,1.25,1,3,1.71,5l-.16-.11,12.08-1.16.65-.06-.15.29-3.95-6.69.16.09c-3.22.24-6,.41-7.9.53l-2.28.13C161.31,242.84,161,242.85,161,242.84Z" style="fill:#455a64"></path><g style="opacity:0.30000000000000004"><path d="M153.41,152.65l2.1,2.9s-.59,43.94-2.82,54.85Z"></path></g><path d="M110.85,145.31a4.53,4.53,0,0,0,.79.93c.54.57,1.33,1.38,2.32,2.38,2,2,4.73,4.69,7.81,7.65l2,2,.34.33.16-.44c1-2.78,2-5.3,2.72-7.38l-.37.08,2.6,2.34a5.16,5.16,0,0,0,1,.79,5,5,0,0,0-.85-1c-.57-.59-1.41-1.44-2.46-2.48l-.24-.24-.13.32c-.8,2.07-1.78,4.57-2.86,7.33l.5-.11-2-2c-3.08-3-5.89-5.62-7.95-7.52-1-1-1.86-1.72-2.45-2.23A4.63,4.63,0,0,0,110.85,145.31Z" style="fill:#263238"></path><path d="M134.44,153.06a26.5,26.5,0,0,0,1.86-4l-.41.07a27.94,27.94,0,0,1,3.66,6.35c.17.39.31.78.45,1.15l.34.92.26-.94a31.36,31.36,0,0,0,1.09-7.51,11.18,11.18,0,0,0-.2-3.08,29.17,29.17,0,0,0-.22,3.06,38,38,0,0,1-1.28,7.36l.6,0c-.14-.38-.29-.78-.46-1.18a24.84,24.84,0,0,0-3.86-6.42l-.27-.32-.15.38A27.25,27.25,0,0,0,134.44,153.06Z" style="fill:#263238"></path><polygon points="136.71 155.6 134.22 159.27 130.48 159.27 128.48 155.6 130.39 151.57 133.65 151.11 136.71 155.6" style="fill:#FFC100"></polygon><polygon points="134.36 157.4 145.64 242.57 136 255.64 126.35 241.78 130.62 157.4 134.36 157.4" style="fill:#FFC100"></polygon><path d="M156.32,250a10.92,10.92,0,0,0,.12,1.88c.15,1.32.34,3,.57,5.09s.58,4.74.93,7.55a45.07,45.07,0,0,0,2.27,9.07c1.17,3.07,2.69,6.09,5.28,7.69a8,8,0,0,0,4,1,19.54,19.54,0,0,0,3.56-.3,33.4,33.4,0,0,0,5-1.23,8.64,8.64,0,0,0,1.76-.69,15.53,15.53,0,0,0-1.83.46,44.15,44.15,0,0,1-5,1,20.11,20.11,0,0,1-3.48.22,7.54,7.54,0,0,1-3.75-.94c-2.35-1.47-3.86-4.4-5-7.42-2.33-6.15-2.64-12.19-3.35-16.45-.31-2.06-.57-3.76-.77-5.07A11.46,11.46,0,0,0,156.32,250Z" style="fill:#455a64"></path><path d="M114.88,252.5a2,2,0,0,1-.09.56l-.39,1.6c-.34,1.38-.88,3.37-1.58,5.82a168,168,0,0,1-6.47,18.81,44.91,44.91,0,0,1-2.55,5.1,14.57,14.57,0,0,1-1.59,2.23l-.47.48c-.18.15-.37.28-.55.42a3.39,3.39,0,0,1-.63.32c-.21.07-.43.09-.64.14a11.33,11.33,0,0,1-4.83-.33,26.7,26.7,0,0,1-4-1.39,43.43,43.43,0,0,1-5.35-2.79c-.61-.37-1.08-.68-1.38-.89a2.46,2.46,0,0,1-.46-.35,2.26,2.26,0,0,1,.51.26l1.43.8a53.82,53.82,0,0,0,5.39,2.64,28.58,28.58,0,0,0,3.92,1.3,11,11,0,0,0,4.62.28,3.1,3.1,0,0,0,2-1.23,14.4,14.4,0,0,0,1.53-2.16,44.62,44.62,0,0,0,2.5-5,194.34,194.34,0,0,0,6.6-18.71c.72-2.38,1.31-4.33,1.74-5.77q.29-.94.48-1.56A2.88,2.88,0,0,1,114.88,252.5Z" style="fill:#455a64"></path><path d="M95.1,151h0s-15.47,3.47-17.44,16.77c-2.27,15.31-4.26,50.35-4.26,50.35l26.52-35.51" style="fill:#263238"></path><path d="M90.17,154.05s.68.61,1.7,1.66a20.63,20.63,0,0,1,5.34,9.93c.31,1.43.38,2.34.44,2.34a2,2,0,0,0,0-.65,12.43,12.43,0,0,0-.21-1.74,18.59,18.59,0,0,0-5.4-10.05,13.32,13.32,0,0,0-1.34-1.14A2.43,2.43,0,0,0,90.17,154.05Z" style="fill:#263238"></path><path d="M169.34,161.83c-.17,0-.71,12.37-1.19,27.64s-.74,27.65-.56,27.65.7-12.36,1.19-27.63S169.51,161.84,169.34,161.83Z" style="fill:#455a64"></path><path d="M87.53,154.75s-7.2,4.86-8,8.79c-.68,3.18-6.37,51-7.1,56.94s-3.56,18.32,3.7,23.25c4.88,3.31,20.3,6.63,20.3,6.63-1.52-7.11,1.59-12.31,9.18-16.25L95.3,224.38l4.62-41.77Z" style="fill:#263238"></path><path d="M98.11,225.29c-.18,0-2.7-13-5.63-29.09S87.31,167,87.48,167s2.7,13,5.64,29.09S98.28,225.25,98.11,225.29Z" style="fill:#455a64"></path><path d="M96.12,215.71a13.81,13.81,0,0,1-.07,2.48c-.1,1.55-.28,3.72-.5,6.22l-.07-.21,2,1.86c2.29,2.17,4.34,4.16,5.81,5.62a20.77,20.77,0,0,1,2.3,2.43,21.43,21.43,0,0,1-2.55-2.17c-1.54-1.38-3.63-3.33-5.92-5.5l-2-1.87-.09-.09v-.12c.25-2.49.48-4.66.67-6.2A13.46,13.46,0,0,1,96.12,215.71Z" style="fill:#455a64"></path><path d="M85,230.55a10.85,10.85,0,0,1,4.42-4.1,10.7,10.7,0,0,1,5.81-1.59,26.7,26.7,0,0,0-5.56,2A27.37,27.37,0,0,0,85,230.55Z" style="fill:#455a64"></path><path d="M120.05,189.52a7,7,0,0,1-7.44,6.57,6.94,6.94,0,0,1-5-2.52c-1.93-2.38-5.42-5.78-9.76-6-6.72-.42-11.75,4.67-12.23,12.29s3.89,13.29,10.62,13.71c4.34.27,8.22-2.67,10.43-4.79a6.93,6.93,0,0,1,5.23-1.89,7,7,0,0,1,6.57,7.44l-3,47.54,105.79,4.5,2.29-50a7,7,0,0,1,7.44-6.57,6.94,6.94,0,0,1,5,2.52c1.93,2.38,5.42,5.78,9.76,6.05,6.72.42,11.76-4.67,12.23-12.29s-3.89-13.29-10.61-13.71c-4.34-.27-8.23,2.67-10.44,4.79a6.91,6.91,0,0,1-5.23,1.89c-3.87-.24-7.47-3.17-7.23-7l1.8-42.44-104.76-4.46Z" style="fill:#FFC100"></path><path d="M107.15,237.57s3.12-2.42,5.44-2.52,5.34.81,5.94.51,2-1.63,2.92-.52,2,5.15-2.82,6.26h-3.32a16.07,16.07,0,0,0,1.21,4.63c.8,1.31,12.08,15.51,12.08,15.51s1.41,1.41.71,2.82-3.73.6-3.73.6a4.79,4.79,0,0,1-4.53,1,16.34,16.34,0,0,1-3.42-1.61,4.47,4.47,0,0,1-5.44,0c-2.82-2.11-14.07-16-14.07-16l5.2-11.11Z" style="fill:#ffbf9d"></path><path d="M104,235l3.2,2.55c-4.75,3.46-7.22,7.7-7.19,12.79l-4.09-2.83S95.18,237.07,104,235Z" style="fill:#f5f5f5"></path><path d="M116.87,255.64c.13-.1,1.82,2.16,4.23,4.63s4.67,4.18,4.56,4.32a6.39,6.39,0,0,1-1.56-1,30.14,30.14,0,0,1-3.37-2.94,30.6,30.6,0,0,1-2.88-3.42A6,6,0,0,1,116.87,255.64Z" style="fill:#ff9a6c"></path><path d="M111.28,258.46c.13-.11,1.38,1.4,3.23,2.89a13.33,13.33,0,0,1,3.18,3,28.64,28.64,0,0,1-3.5-2.61A10.11,10.11,0,0,1,111.28,258.46Z" style="fill:#ff9a6c"></path><path d="M220.51,171.23s.5-3.42,7.69-2.26c4.51.73,2.15,3.65,2.15,3.65a2.75,2.75,0,0,1-.49,4.5l.47.35s3.59,1.8.49,5a3.14,3.14,0,0,1-.41,3.61c-1.54,1.55-5.41-.51-5.41-.51s-5.47-.09-5.78-1.54a2,2,0,0,1,1.09-2.23,30.32,30.32,0,0,1,3.81-.46s-4.78-.05-5.21-1c-.77-1.67-.57-3.38,5.21-3.16h0s-4.3-.09-4.79-1,.11-2.29,1.66-3a6.27,6.27,0,0,1,2.93-.61S219.9,173.39,220.51,171.23Z" style="fill:#ffbf9d"></path><path d="M230.13,172.64a23.86,23.86,0,0,1-3.89.14,26.59,26.59,0,0,1-3.89,0,10.44,10.44,0,0,1,3.88-.56A10.67,10.67,0,0,1,230.13,172.64Z" style="fill:#ff9a6c"></path><path d="M229.94,177.29a22.89,22.89,0,0,1-3.67,0,23,23,0,0,1-3.67-.08,9.46,9.46,0,0,1,3.68-.44A9.12,9.12,0,0,1,229.94,177.29Z" style="fill:#ff9a6c"></path><path d="M230.91,182.71c-.06.14-1.69-.57-3.82-.91s-3.89-.21-3.91-.37a7.83,7.83,0,0,1,4-.15A7.64,7.64,0,0,1,230.91,182.71Z" style="fill:#ff9a6c"></path></g></svg>
