<svg xmlns="http://www.w3.org/2000/svg" viewBox="0 0 500 500"><g id="freepik--background-complete--inject-149"><path d="M64.88,208.78c7.19,0,128.17.8,135.78.56.54,0,.83-.82.29-1.09-4.79-2.38-10.23-1.9-15.21-3.58-2.93-1-4.73-2.9-6.76-5.1a14,14,0,0,0-6.3-4.11,13.26,13.26,0,0,0-6.85-.21c-2.46.58-4.59,2-6.93,2.87-5.81,2.2-11.46.11-15.61-4.19-3.42-3.54-6.79-6.89-11.44-8.8a15.21,15.21,0,0,0-12.12-.17c-4.44,2-7.48,6.06-11.65,8.49-4.94,2.89-10.85,2.21-16.31,3.08s-9.64,5.46-14.43,8.11a10.24,10.24,0,0,1-5.22,1.62c-1.07,0-2.12-.32-3.18-.45-1.64-.21-3.21-.16-4.32,1.22C64.35,207.36,64.41,208.78,64.88,208.78Z" style="fill:#ebebeb"></path><path d="M77,82.52c5.25,0,93.58.58,99.13.4.4,0,.61-.6.22-.8-3.5-1.73-7.47-1.38-11.11-2.61-2.14-.72-3.45-2.12-4.94-3.72a10.22,10.22,0,0,0-4.59-3,9.79,9.79,0,0,0-5-.16c-1.79.43-3.35,1.46-5.05,2.1-4.25,1.6-8.37.08-11.4-3.06-2.5-2.58-5-5-8.35-6.42a11.08,11.08,0,0,0-8.85-.12c-3.24,1.46-5.46,4.42-8.51,6.19-3.6,2.11-7.92,1.61-11.9,2.25s-7,4-10.54,5.92a7.45,7.45,0,0,1-3.81,1.18A22.72,22.72,0,0,1,80,80.34c-1.2-.14-2.35-.11-3.16.89C76.61,81.48,76.65,82.52,77,82.52Z" style="fill:#ebebeb"></path><path d="M244.32,248.52c5.25,0,93.58.58,99.13.41.4,0,.61-.6.22-.8-3.5-1.73-7.47-1.38-11.11-2.61-2.14-.72-3.45-2.12-4.94-3.72a10.22,10.22,0,0,0-4.59-3,9.68,9.68,0,0,0-5-.16,42.82,42.82,0,0,0-5.06,2.1c-4.24,1.6-8.36.08-11.39-3.06-2.5-2.59-5-5-8.35-6.42a11.12,11.12,0,0,0-8.85-.13c-3.24,1.47-5.47,4.42-8.51,6.2-3.61,2.11-7.92,1.61-11.91,2.25s-7,4-10.53,5.92a7.55,7.55,0,0,1-3.81,1.18,22.72,22.72,0,0,1-2.32-.33,3.19,3.19,0,0,0-3.16.89C243.94,247.49,244,248.52,244.32,248.52Z" style="fill:#ebebeb"></path><path d="M287.57,110.93c5.25,0,93.58.58,99.13.4a.43.43,0,0,0,.21-.79c-3.49-1.73-7.46-1.39-11.1-2.61-2.14-.72-3.45-2.12-4.94-3.73a10.28,10.28,0,0,0-4.6-3,9.74,9.74,0,0,0-5-.15c-1.79.42-3.35,1.45-5.06,2.1-4.24,1.6-8.36.08-11.39-3.06-2.5-2.59-5-5-8.36-6.43a11.05,11.05,0,0,0-8.84-.12c-3.24,1.47-5.47,4.42-8.51,6.2-3.61,2.1-7.92,1.61-11.91,2.24s-7,4-10.53,5.93a7.55,7.55,0,0,1-3.81,1.18c-.78,0-1.55-.24-2.32-.33-1.21-.15-2.35-.12-3.16.89C287.19,109.89,287.23,110.93,287.57,110.93Z" style="fill:#ebebeb"></path><path d="M132.48,141.05c.1.3,139.22,0,137.46,0-.8,0,1.22-1.19.43-1.58-4.53-2.25-9.48-2.31-14.41-2.76a22,22,0,0,1-8.42-2.05c-2.62-1.37-4.26-3.75-6.12-5.95a26.13,26.13,0,0,0-23.76-9c-9.89,1.54-17.68,9.08-27.59,10.47-6,.83-11.58-1.47-17.4-2.29a21.36,21.36,0,0,0-13.07,2.39c-3.13,1.56-6,2.87-9.58,3.11-2.72.2-5.46-.12-8.19-.14a18.36,18.36,0,0,0-12.05,4.81C129.34,138.45,127.94,141.05,132.48,141.05Z" style="fill:#ebebeb"></path><path d="M297.46,302.89c.1.3,139.22,0,137.46,0-.8,0,1.22-1.19.43-1.58-4.53-2.25-9.48-2.31-14.41-2.76a22,22,0,0,1-8.42-2.05c-2.62-1.37-4.26-3.75-6.12-5.95a26.16,26.16,0,0,0-23.76-9c-9.89,1.55-17.68,9.09-27.59,10.47-6,.84-11.58-1.46-17.4-2.28a21.36,21.36,0,0,0-13.07,2.39c-3.13,1.56-6,2.87-9.58,3.11-2.72.2-5.46-.12-8.19-.14a18.36,18.36,0,0,0-12.05,4.81C294.32,300.29,292.92,302.89,297.46,302.89Z" style="fill:#ebebeb"></path><path d="M79.13,361.17h25a4.3,4.3,0,0,1,4.3,4.3V392a0,0,0,0,1,0,0H74.83a0,0,0,0,1,0,0V365.47A4.3,4.3,0,0,1,79.13,361.17Z" style="fill:#ebebeb"></path><path d="M114.28,361.17h25a4.3,4.3,0,0,1,4.3,4.3V392a0,0,0,0,1,0,0H110a0,0,0,0,1,0,0V365.47A4.3,4.3,0,0,1,114.28,361.17Z" style="fill:#ebebeb"></path><path d="M149.43,361.17h25a4.3,4.3,0,0,1,4.3,4.3V392a0,0,0,0,1,0,0H145.13a0,0,0,0,1,0,0V365.47A4.3,4.3,0,0,1,149.43,361.17Z" style="fill:#ebebeb"></path><path d="M184.58,361.17h25a4.3,4.3,0,0,1,4.3,4.3V392a0,0,0,0,1,0,0H180.28a0,0,0,0,1,0,0V365.47A4.3,4.3,0,0,1,184.58,361.17Z" style="fill:#ebebeb"></path><path d="M219.73,361.17h25a4.3,4.3,0,0,1,4.3,4.3V392a0,0,0,0,1,0,0H215.43a0,0,0,0,1,0,0V365.47A4.3,4.3,0,0,1,219.73,361.17Z" style="fill:#ebebeb"></path><path d="M254.88,361.17h25a4.3,4.3,0,0,1,4.3,4.3V392a0,0,0,0,1,0,0H250.58a0,0,0,0,1,0,0V365.47A4.3,4.3,0,0,1,254.88,361.17Z" style="fill:#ebebeb"></path><path d="M290,361.17h25a4.3,4.3,0,0,1,4.3,4.3V392a0,0,0,0,1,0,0H285.73a0,0,0,0,1,0,0V365.47A4.3,4.3,0,0,1,290,361.17Z" style="fill:#ebebeb"></path><path d="M325.18,361.17h25a4.3,4.3,0,0,1,4.3,4.3V392a0,0,0,0,1,0,0H320.89a0,0,0,0,1,0,0V365.47A4.3,4.3,0,0,1,325.18,361.17Z" style="fill:#ebebeb"></path><path d="M360.34,361.17h25a4.3,4.3,0,0,1,4.3,4.3V392a0,0,0,0,1,0,0H356a0,0,0,0,1,0,0V365.47A4.3,4.3,0,0,1,360.34,361.17Z" style="fill:#ebebeb"></path><path d="M395.49,361.17h25a4.3,4.3,0,0,1,4.3,4.3V392a0,0,0,0,1,0,0H391.19a0,0,0,0,1,0,0V365.47A4.3,4.3,0,0,1,395.49,361.17Z" style="fill:#ebebeb"></path><path d="M61.5,373.53h25a4.3,4.3,0,0,1,4.3,4.3V403.1a0,0,0,0,1,0,0H57.2a0,0,0,0,1,0,0V377.83A4.3,4.3,0,0,1,61.5,373.53Z" style="fill:#c7c7c7"></path><path d="M96.7,373.53h25a4.3,4.3,0,0,1,4.3,4.3V403.1a0,0,0,0,1,0,0H92.4a0,0,0,0,1,0,0V377.83A4.3,4.3,0,0,1,96.7,373.53Z" style="fill:#c7c7c7"></path><path d="M131.91,373.53h25a4.3,4.3,0,0,1,4.3,4.3V403.1a0,0,0,0,1,0,0H127.61a0,0,0,0,1,0,0V377.83A4.3,4.3,0,0,1,131.91,373.53Z" style="fill:#c7c7c7"></path><path d="M167.11,373.53h25a4.3,4.3,0,0,1,4.3,4.3V403.1a0,0,0,0,1,0,0H162.81a0,0,0,0,1,0,0V377.83A4.3,4.3,0,0,1,167.11,373.53Z" style="fill:#c7c7c7"></path><path d="M202.32,373.53h25a4.3,4.3,0,0,1,4.3,4.3V403.1a0,0,0,0,1,0,0H198a0,0,0,0,1,0,0V377.83A4.3,4.3,0,0,1,202.32,373.53Z" style="fill:#c7c7c7"></path><path d="M237.52,373.53h25a4.3,4.3,0,0,1,4.3,4.3V403.1a0,0,0,0,1,0,0H233.23a0,0,0,0,1,0,0V377.83A4.3,4.3,0,0,1,237.52,373.53Z" style="fill:#c7c7c7"></path><path d="M272.73,373.53h25a4.3,4.3,0,0,1,4.3,4.3V403.1a0,0,0,0,1,0,0H268.43a0,0,0,0,1,0,0V377.83A4.3,4.3,0,0,1,272.73,373.53Z" style="fill:#c7c7c7"></path><path d="M307.94,373.53h25a4.3,4.3,0,0,1,4.3,4.3V403.1a0,0,0,0,1,0,0H303.64a0,0,0,0,1,0,0V377.83A4.3,4.3,0,0,1,307.94,373.53Z" style="fill:#c7c7c7"></path><path d="M343.14,373.53h25a4.3,4.3,0,0,1,4.3,4.3V403.1a0,0,0,0,1,0,0H338.84a0,0,0,0,1,0,0V377.83A4.3,4.3,0,0,1,343.14,373.53Z" style="fill:#c7c7c7"></path><path d="M378.35,373.53h25a4.3,4.3,0,0,1,4.3,4.3V403.1a0,0,0,0,1,0,0H374a0,0,0,0,1,0,0V377.83A4.3,4.3,0,0,1,378.35,373.53Z" style="fill:#c7c7c7"></path><path d="M413.55,373.53h25a4.3,4.3,0,0,1,4.3,4.3V403.1a0,0,0,0,1,0,0H409.25a0,0,0,0,1,0,0V377.83A4.3,4.3,0,0,1,413.55,373.53Z" style="fill:#c7c7c7"></path><path d="M79.13,385.21h25a4.3,4.3,0,0,1,4.3,4.3V416a0,0,0,0,1,0,0H74.83a0,0,0,0,1,0,0V389.51A4.3,4.3,0,0,1,79.13,385.21Z" style="fill:#dbdbdb"></path><path d="M114.28,385.21h25a4.3,4.3,0,0,1,4.3,4.3V416a0,0,0,0,1,0,0H110a0,0,0,0,1,0,0V389.5A4.3,4.3,0,0,1,114.28,385.21Z" style="fill:#dbdbdb"></path><path d="M149.43,385.21h25a4.3,4.3,0,0,1,4.3,4.3V416a0,0,0,0,1,0,0H145.13a0,0,0,0,1,0,0V389.51A4.3,4.3,0,0,1,149.43,385.21Z" style="fill:#dbdbdb"></path><path d="M184.58,385.21h25a4.3,4.3,0,0,1,4.3,4.3V416a0,0,0,0,1,0,0H180.28a0,0,0,0,1,0,0V389.51A4.3,4.3,0,0,1,184.58,385.21Z" style="fill:#dbdbdb"></path><path d="M219.73,385.21h25a4.3,4.3,0,0,1,4.3,4.3V416a0,0,0,0,1,0,0H215.43a0,0,0,0,1,0,0V389.51A4.3,4.3,0,0,1,219.73,385.21Z" style="fill:#dbdbdb"></path><path d="M254.88,385.21h25a4.3,4.3,0,0,1,4.3,4.3V416a0,0,0,0,1,0,0H250.58a0,0,0,0,1,0,0V389.51A4.3,4.3,0,0,1,254.88,385.21Z" style="fill:#dbdbdb"></path><path d="M290,385.21h25a4.3,4.3,0,0,1,4.3,4.3V416a0,0,0,0,1,0,0H285.73a0,0,0,0,1,0,0V389.51A4.3,4.3,0,0,1,290,385.21Z" style="fill:#dbdbdb"></path><path d="M325.18,385.21h25a4.3,4.3,0,0,1,4.3,4.3V416a0,0,0,0,1,0,0H320.89a0,0,0,0,1,0,0V389.51A4.3,4.3,0,0,1,325.18,385.21Z" style="fill:#dbdbdb"></path><path d="M360.34,385.21h25a4.3,4.3,0,0,1,4.3,4.3V416a0,0,0,0,1,0,0H356a0,0,0,0,1,0,0V389.51A4.3,4.3,0,0,1,360.34,385.21Z" style="fill:#dbdbdb"></path><path d="M395.49,385.21h25a4.3,4.3,0,0,1,4.3,4.3V416a0,0,0,0,1,0,0H391.19a0,0,0,0,1,0,0V389.51A4.3,4.3,0,0,1,395.49,385.21Z" style="fill:#dbdbdb"></path><path d="M61.5,399h25a4.3,4.3,0,0,1,4.3,4.3V416a0,0,0,0,1,0,0H57.2a0,0,0,0,1,0,0V403.33A4.3,4.3,0,0,1,61.5,399Z" style="fill:#ebebeb"></path><path d="M96.7,399h25a4.3,4.3,0,0,1,4.3,4.3V416a0,0,0,0,1,0,0H92.4a0,0,0,0,1,0,0V403.33A4.3,4.3,0,0,1,96.7,399Z" style="fill:#ebebeb"></path><path d="M131.91,399h25a4.3,4.3,0,0,1,4.3,4.3V416a0,0,0,0,1,0,0H127.61a0,0,0,0,1,0,0V403.33A4.3,4.3,0,0,1,131.91,399Z" style="fill:#ebebeb"></path><path d="M167.11,399h25a4.3,4.3,0,0,1,4.3,4.3V416a0,0,0,0,1,0,0H162.81a0,0,0,0,1,0,0V403.33A4.3,4.3,0,0,1,167.11,399Z" style="fill:#ebebeb"></path><path d="M202.32,399h25a4.3,4.3,0,0,1,4.3,4.3V416a0,0,0,0,1,0,0H198a0,0,0,0,1,0,0V403.33A4.3,4.3,0,0,1,202.32,399Z" style="fill:#ebebeb"></path><path d="M237.52,399h25a4.3,4.3,0,0,1,4.3,4.3V416a0,0,0,0,1,0,0H233.23a0,0,0,0,1,0,0V403.33A4.3,4.3,0,0,1,237.52,399Z" style="fill:#ebebeb"></path><path d="M272.73,399h25a4.3,4.3,0,0,1,4.3,4.3V416a0,0,0,0,1,0,0H268.43a0,0,0,0,1,0,0V403.33A4.3,4.3,0,0,1,272.73,399Z" style="fill:#ebebeb"></path><path d="M307.94,399h25a4.3,4.3,0,0,1,4.3,4.3V416a0,0,0,0,1,0,0H303.64a0,0,0,0,1,0,0V403.33A4.3,4.3,0,0,1,307.94,399Z" style="fill:#ebebeb"></path><path d="M343.14,399h25a4.3,4.3,0,0,1,4.3,4.3V416a0,0,0,0,1,0,0H338.84a0,0,0,0,1,0,0V403.33A4.3,4.3,0,0,1,343.14,399Z" style="fill:#ebebeb"></path><path d="M378.35,399h25a4.3,4.3,0,0,1,4.3,4.3V416a0,0,0,0,1,0,0H374a0,0,0,0,1,0,0V403.33A4.3,4.3,0,0,1,378.35,399Z" style="fill:#ebebeb"></path><path d="M413.55,399h25a4.3,4.3,0,0,1,4.3,4.3V416a0,0,0,0,1,0,0H409.25a0,0,0,0,1,0,0V403.33A4.3,4.3,0,0,1,413.55,399Z" style="fill:#ebebeb"></path><rect x="184.89" y="415.98" width="130.22" height="50.67" style="fill:#dbdbdb"></rect><rect x="315.11" y="415.98" width="130.22" height="50.67" style="fill:#ebebeb"></rect><path d="M429.41,433.65c1.3,8-19.67,17.86-46.84,22.09S332.33,457,331,449s19.67-17.86,46.84-22.09S428.11,425.68,429.41,433.65Z" style="fill:#dbdbdb"></path><rect x="54.67" y="415.98" width="130.22" height="50.67" style="fill:#ebebeb"></rect><path d="M169,433.65c1.3,8-19.67,17.86-46.84,22.09S71.89,457,70.59,449s19.67-17.86,46.84-22.09S167.67,425.68,169,433.65Z" style="fill:#dbdbdb"></path></g><g id="freepik--Floor--inject-149"><path d="M52.86,466.65c126.3-.61,268-.61,394.28,0-126.3.62-268,.62-394.28,0Z" style="fill:#263238"></path></g><g id="freepik--Wicket--inject-149"><rect x="77.03" y="304.9" width="7.34" height="161.46" style="fill:#FFC100"></rect><rect x="77.03" y="304.9" width="7.34" height="161.46" style="opacity:0.1"></rect><rect x="101.99" y="304.9" width="7.34" height="161.46" style="fill:#FFC100"></rect><rect x="101.99" y="304.9" width="7.34" height="161.46" style="opacity:0.1"></rect><rect x="126.94" y="304.9" width="7.34" height="161.46" style="fill:#FFC100"></rect><rect x="126.94" y="304.9" width="7.34" height="161.46" style="opacity:0.1"></rect><rect x="79.92" y="303.02" width="25.74" height="1.88" style="fill:#FFC100"></rect><rect x="84.93" y="300.5" width="2.24" height="6.93" rx="0.78" style="fill:#FFC100"></rect><rect x="87.18" y="300.5" width="2.24" height="6.93" rx="0.78" style="fill:#FFC100"></rect><rect x="89.42" y="300.5" width="2.24" height="6.93" rx="0.78" style="fill:#FFC100"></rect><rect x="91.67" y="300.5" width="2.24" height="6.93" rx="0.78" style="fill:#FFC100"></rect><rect x="93.91" y="300.5" width="2.24" height="6.93" rx="0.78" style="fill:#FFC100"></rect><rect x="96.16" y="300.5" width="2.24" height="6.93" rx="0.78" style="fill:#FFC100"></rect><rect x="98.4" y="300.5" width="2.24" height="6.93" rx="0.78" style="fill:#FFC100"></rect><rect x="105.66" y="303.02" width="25.74" height="1.88" style="fill:#FFC100"></rect><rect x="110.67" y="300.5" width="2.24" height="6.93" rx="0.78" style="fill:#FFC100"></rect><rect x="112.92" y="300.5" width="2.24" height="6.93" rx="0.78" style="fill:#FFC100"></rect><rect x="115.16" y="300.5" width="2.24" height="6.93" rx="0.78" style="fill:#FFC100"></rect><rect x="117.41" y="300.5" width="2.24" height="6.93" rx="0.78" style="fill:#FFC100"></rect><rect x="119.65" y="300.5" width="2.24" height="6.93" rx="0.78" style="fill:#FFC100"></rect><rect x="121.9" y="300.5" width="2.24" height="6.93" rx="0.78" style="fill:#FFC100"></rect><rect x="124.14" y="300.5" width="2.24" height="6.93" rx="0.78" style="fill:#FFC100"></rect></g><g id="freepik--Character--inject-149"><path d="M365.3,466.09c1,0,19.14.88,20.69-.51,15.71-14.08,36.79-49,37.24-50.89.3-1.16-18-16.65-18.13-16.74-1.71-1.9-28.82-25.45-28.82-25.45l-29.62,30.74,28.24,25.61.55.54a116.83,116.83,0,0,1-4.6,20c-.45,1.33-6.29,7.06-6.68,8.16C362.88,461.24,363.89,466.09,365.3,466.09Z" style="fill:#eb9481"></path><path d="M365.3,466.09c1,0,19.14.88,20.69-.51,15.71-14.07,36.79-49,37.24-50.88.3-1.17-18-16.66-18.13-16.75-.69-.76-5.46-5-10.93-9.82l-29.8,31.17,10.53,9.55.55.54a117.05,117.05,0,0,1-4.6,20.05c-.46,1.33-6.29,7.05-6.68,8.16C362.88,461.25,363.88,466.09,365.3,466.09Z" style="fill:#37474f"></path><path d="M397.49,391.06l.74.66L368,422.59l-.74-.68Zm-28,32.91.74.67,30.27-30.88-.74-.66Z" style="fill:#FFC100"></path><path d="M364.59,466.36c.59.4,20.52.56,21.84-.63,12.58-11.36,38-49.23,38.27-51.5.15-1.19-8.76-9.25-18.6-16l-30.91,31.25s-1.95,13-4.48,20c-.57,1.58-6.3,6.82-6.82,8C362.29,461,363.75,465.79,364.59,466.36Z" style="fill:#FFC100"></path><path d="M366.1,455.93a12,12,0,0,1,9.1-1.66,10.26,10.26,0,0,1,6.51,4.51c0,.07-.09.15-.15.09-3.46-4.1-10.27-5.41-15.37-2.79A.09.09,0,1,1,366.1,455.93Z" style="fill:#263238"></path><path d="M366.8,434a25.43,25.43,0,0,0,8.19-1.81c.19-.07.37-.12.55-.2,1.09-.39,2.18-.78,3.24-1.12a.48.48,0,0,0,.27-.25A.59.59,0,0,0,379,430a.12.12,0,0,0,0-.2l-.41-.26-.12-.1s0,0,0,0l-.52-.3a13.32,13.32,0,0,0-1.25-.65,24.72,24.72,0,0,0-9.82-2.55c-2.5-.06-5.85,1.15-5.72,4.24C361.24,433.08,364.39,434.05,366.8,434Zm-3.2-2.18c-3.79-3.46,2.12-4.76,4-4.64a28,28,0,0,1,3.54.56,46.79,46.79,0,0,1,5,1.4l1.83.6h0l.28.1-.3.08-.33.09c-.78.22-1.56.46-2.34.7s-1.84.59-2.76.86C370.26,432.3,365.67,433.75,363.6,431.85Z" style="fill:#263238"></path><path d="M379,430.67l0,0c1.2-1.15,2.49-2.28,3.72-3.44a23.74,23.74,0,0,0,4.64-5.63c1.1-2,1.72-5.13-.48-6.66a1.65,1.65,0,0,0-.27-.19c-2.66-1.56-5.3.82-6.41,3.07a24.54,24.54,0,0,0-2.3,9,16.88,16.88,0,0,0-.05,2.36,3.49,3.49,0,0,0,0,.64s0,0,0,0a.21.21,0,0,0,0,.15,1.54,1.54,0,0,0,0,.37.13.13,0,0,0,.17.11A.56.56,0,0,0,379,430.67Zm0-1.64c-.17.17-.31.33-.47.51l-.19.19c0-.09.05-.18.06-.27v0c.27-1.45.5-2.9.81-4.35a26.65,26.65,0,0,1,.63-2.64,25.22,25.22,0,0,1,1.19-3.39c.63-1.41,3.43-4.83,5.1-3.09a3.79,3.79,0,0,1,.85,1.74c.7,2.74-2.73,6.11-4.41,7.8C381.41,426.69,380.19,427.83,379,429Z" style="fill:#263238"></path><path d="M373.33,434.79c2.79-3.77,7.4-7.1,12.22-7.1.18,0,.18.26,0,.33a65.65,65.65,0,0,0-11.85,7.18A.29.29,0,0,1,373.33,434.79Z" style="fill:#263238"></path><path d="M372.26,438.53c2.79-3.78,7.4-7.1,12.22-7.1.19,0,.18.26,0,.33a65.08,65.08,0,0,0-11.85,7.18A.29.29,0,0,1,372.26,438.53Z" style="fill:#263238"></path><path d="M371.2,442.26c2.78-3.77,7.39-7.1,12.21-7.1.19,0,.18.27,0,.34a64.45,64.45,0,0,0-11.84,7.18A.3.3,0,0,1,371.2,442.26Z" style="fill:#263238"></path><path d="M370.13,446c2.79-3.77,7.4-7.1,12.21-7.1.19,0,.19.27.05.33a64.79,64.79,0,0,0-11.85,7.19A.3.3,0,0,1,370.13,446Z" style="fill:#263238"></path><path d="M364.42,463.65c5.38-.7,10.88-.59,16.28-1.11l1.9-.19a2.79,2.79,0,0,0,1.89-.56,28.56,28.56,0,0,0,2.42-3c1.62-2.07,3.23-4.16,4.83-6.24,6.46-8.37,12.78-16.84,19.05-25.36l5.32-7.19c1.78-2.41,3.72-4.7,5.5-7.1.07-.09.21,0,.15.09-1.51,2.26-2.86,4.61-4.41,6.84s-3.09,4.47-4.67,6.67Q408,433,403.11,439.51t-9.8,12.88c-1.66,2.15-3.34,4.3-5,6.44-.82,1-1.63,2.07-2.45,3.09a3.31,3.31,0,0,1-2.49,1.44c-6.24.59-12.61.44-18.87.75C364.21,464.12,364.16,463.69,364.42,463.65Z" style="fill:#263238"></path><path d="M211.15,210.91s9.24,29.48,15.9,36.83c0,0,41.92,90,58.29,107.7C301,372.38,366,423.91,366,423.91l30.25-34s-45.54-47.53-76.51-64.36c-4.79-2.6-38.66-83.18-38.71-85.08,0,0,.53-5.88-.85-10.07-4.82-14.7-16.71-29.75-16.71-29.75Z" style="fill:#FFC100"></path><path d="M268.85,208.27l-7.7,108c-16.74-31.29-34.1-68.56-34.1-68.56-6.66-7.35-15.9-36.83-15.9-36.83l52.31-10.22S265.81,203.67,268.85,208.27Z" style="opacity:0.1"></path><path d="M318.87,364.27s15.91-16.07,20.79-26.87l9.21,6.86S342.53,357,328,371.86Z" style="fill:#ebebeb"></path><path d="M297.81,349.09s12.75-8.17,22.38-25.08l9.91,5s-3.51,9.76-21.39,24.79Z" style="fill:#ebebeb"></path><path d="M358.12,397s15.92-16.06,20.8-26.87l9.21,6.86s-6.35,12.75-20.9,27.61Z" style="fill:#ebebeb"></path><path d="M371.53,426.9c-5.59.36-59.44-40.68-62.32-43.48s-30.7-20.93-38.15-35.64c-3.79-7.47-2.22-15.52.49-17.79,5.29-4.44,16.58-.14,27.64,7.43,16.71,11.43,32.39,30.5,38.9,35.18s44.44,38.29,45.09,40.47c.59,2-3.95,5.28-7.35,8.88C374,423.86,373.47,426.78,371.53,426.9Z" style="fill:#dbdbdb"></path><path d="M271.68,347.44c6.77,7.63,15.11,14.13,22.78,20.87,4.94,4.12,9.82,8.33,15,12.2,3.19,2.18,6.41,4.36,9.47,6.7,13.25,9.88,33.1,25.46,46.46,34.73a27.92,27.92,0,0,0,3.32,2,28,28,0,0,1-3.4-1.84c-16.21-10.56-31.41-22.6-47-34.06-3-2.36-6.27-4.56-9.43-6.75-5.12-3.93-10-8.13-14.9-12.37-7.61-6.92-15.75-13.47-22.28-21.45Z" style="fill:#c7c7c7"></path><path d="M275.06,343.61c6.77,7.62,15.11,14.13,22.79,20.86,4.94,4.13,9.82,8.34,14.95,12.21,3.19,2.18,6.42,4.36,9.48,6.7,13.24,9.87,33.1,25.45,46.46,34.73a29.19,29.19,0,0,0,3.31,2,31.21,31.21,0,0,1-3.4-1.84c-16.2-10.56-31.4-22.61-47-34.06-3.05-2.36-6.28-4.57-9.43-6.75-5.13-3.93-10-8.14-14.9-12.37-7.62-6.92-15.75-13.48-22.29-21.45Z" style="fill:#c7c7c7"></path><path d="M281.82,340.54c4.18,2.69,7.9,6,11.74,9.2,7.57,6.45,15,13.07,22.54,19.55a48.82,48.82,0,0,0,5.85,4.52c16.85,12.8,32.37,27.24,49.3,39.92a18.47,18.47,0,0,0,3.16,2,18.28,18.28,0,0,1-3.25-1.83c-15.43-10.65-34.75-27.79-49.74-39.26a47.9,47.9,0,0,1-5.9-4.63c-10.88-9.17-22.45-20.84-33.7-29.43Z" style="fill:#c7c7c7"></path><path d="M287,366.75c.14,2.56,3.69,4.75,3.69,4.75s1.91,3.37,4.55,4.26a6.61,6.61,0,0,0,5.41,2.37c1.31-.06,7.22-3.1,11.11-6.43,2.27-1.95,8.83-11,8.62-11.54S308.44,348,307.26,348s-8.61,9.65-11.81,12.54S286.92,366.14,287,366.75Z" style="fill:#ebebeb"></path><path d="M290.64,371.5c1.39-1.06,4.21-3.16,5.63-4.2,4.77-3.34,8.58-7.83,12.53-12.07l2.41-2.56c-3.35,4.82-7,9.54-11.6,13.25a71.43,71.43,0,0,1-9,5.58Z" style="fill:#c7c7c7"></path><path d="M295.19,375.76c3.83-2.38,7.9-4.63,11.16-7.74,2.43-2.37,4.72-4.94,7-7.48l2.32-2.54a65.52,65.52,0,0,1-8.61,10.74,37.87,37.87,0,0,1-11.86,7Z" style="fill:#c7c7c7"></path><path d="M271.06,347.78a13.2,13.2,0,0,1,.27-10.19c3.76-7.07,13.34-3.88,19.08-1.33,9.51,4.42,17.49,11.46,25.09,18.53,6.32,5.92,12,12.49,18.52,18.16,9.55,7.48,18.62,15.56,27.77,23.52,5.19,4.59,10.37,9.19,15.37,14,.86,1,2.07,1.77,2.58,3a2.1,2.1,0,0,1-.32,1.31c-1.92,2.94-5,4.79-7.17,7.52-1,1.26-1.51,3.47-3.34,3.75,1.84-.3,2.26-2.52,3.29-3.79,2.09-2.73,5.19-4.66,7-7.58a1.85,1.85,0,0,0,.28-1.17,13.75,13.75,0,0,0-2.55-2.81c-5-4.74-10.3-9.26-15.52-13.81-7.86-6.79-15.76-13.55-23.83-20.09a88.2,88.2,0,0,1-8-6.67c-5-4.85-9.76-9.85-14.8-14.59-7.51-7.05-15.38-14-24.72-18.55-5.56-2.56-14.59-5.86-18.47.79a13,13,0,0,0-.56,10Z" style="fill:#c7c7c7"></path><path d="M212.53,465.92c1,.19,23,1.05,24.78,0,18-11,45.16-41.45,45.94-43.2.51-1.09-14.68-19.68-14.75-19.79-1.34-2.17-23.67-30.3-23.67-30.3l-34.76,24.8,23.07,30.34.44.64a116.45,116.45,0,0,1-8.19,18.86c-.69,1.22-11.82,9.11-12.41,10.12C211,460.72,211.14,465.66,212.53,465.92Z" style="fill:#eb9481"></path><path d="M212.54,465.92c1,.19,23,1.05,24.77,0,18-11,45.15-41.45,45.94-43.2.51-1.09-14.68-19.68-14.75-19.79-.54-.87-4.45-5.92-8.95-11.65l-35,25.18,8.6,11.31.45.64a117,117,0,0,1-8.2,18.86c-.7,1.23-11.82,9.11-12.41,10.13C211,460.72,211.14,465.66,212.54,465.92Z" style="fill:#37474f"></path><path d="M262.28,394.74c.2.27.41.52.6.78l-35.38,24.8-.6-.8ZM228.75,422l.6.8L264.77,398l-.6-.79Z" style="fill:#FFC100"></path><path d="M211.79,466.06c.5.5,24.41,1,25.93.05,14.44-8.86,46.37-41.42,47.06-43.61.36-1.14-6.92-10.69-15.35-19.17l-36.11,25.05s-4.31,12.46-8.08,18.87c-.85,1.45-11.79,8.88-12.51,9.92C210.51,460.38,211.07,465.35,211.79,466.06Z" style="fill:#FFC100"></path><path d="M219.53,452.76a12,12,0,0,1,9.24,0,10.19,10.19,0,0,1,5.58,5.62c0,.07-.12.13-.16.06-2.65-4.67-9.11-7.2-14.6-5.56C219.47,453,219.42,452.81,219.53,452.76Z" style="fill:#263238"></path><path d="M269.46,414.23c4-3.39,9.3,2.87,5.27,6.26S265.43,417.63,269.46,414.23Z" style="fill:#263238"></path><path d="M224.24,431.35a25.36,25.36,0,0,0,8.37-.27l.58-.1c1.14-.18,2.28-.36,3.39-.51a.46.46,0,0,0,.31-.19.59.59,0,0,0,.05-.66.11.11,0,0,0,0-.19l-.36-.33-.1-.12s0,0,0,0c-.15-.12-.31-.25-.46-.39-.35-.3-.72-.6-1.11-.88a25,25,0,0,0-9.18-4.3c-2.45-.52-6,.06-6.4,3.12C218.94,429.4,221.86,430.93,224.24,431.35Zm-2.76-2.73c-3.09-4.09,3-4.28,4.75-3.82a27.25,27.25,0,0,1,3.39,1.19,44.64,44.64,0,0,1,4.65,2.3c.56.32,1.12.61,1.69.92,0,0,0,0,0,0l.25.15-.31,0-.33,0c-.82.07-1.62.16-2.44.26s-1.91.24-2.87.34C228,430.28,223.17,430.87,221.48,428.62Z" style="fill:#263238"></path><path d="M236.87,430.3l0,0c1.4-.91,2.87-1.79,4.29-2.7a23.67,23.67,0,0,0,5.59-4.68c1.46-1.81,2.63-4.73.75-6.64a1.31,1.31,0,0,0-.23-.24c-2.33-2-5.36-.17-6.86,1.85a24.51,24.51,0,0,0-3.91,8.39,16.17,16.17,0,0,0-.48,2.32,4,4,0,0,0-.08.63s0,0,0,0a.23.23,0,0,0,0,.15,2,2,0,0,0-.05.37.13.13,0,0,0,.15.14A.57.57,0,0,0,236.87,430.3Zm.3-1.62-.56.42-.21.15a2.77,2.77,0,0,1,.1-.26v0c.53-1.38,1-2.76,1.59-4.13.33-.85.69-1.67,1.1-2.48a26,26,0,0,1,1.8-3.12c.88-1.27,4.26-4.12,5.57-2.11a3.77,3.77,0,0,1,.52,1.88c.19,2.81-3.8,5.5-5.77,6.85C239.94,426.82,238.53,427.72,237.17,428.68Z" style="fill:#263238"></path><path d="M230.51,433.3c3.43-3.2,8.57-5.63,13.31-4.74.18,0,.13.29,0,.33a64.78,64.78,0,0,0-13,4.89A.3.3,0,0,1,230.51,433.3Z" style="fill:#263238"></path><path d="M228.78,436.78c3.43-3.2,8.57-5.63,13.31-4.74.18,0,.13.29,0,.33a65.1,65.1,0,0,0-13,4.89A.29.29,0,0,1,228.78,436.78Z" style="fill:#263238"></path><path d="M227,440.26c3.43-3.2,8.58-5.63,13.31-4.75.19,0,.13.3,0,.34a64.78,64.78,0,0,0-13,4.89A.3.3,0,0,1,227,440.26Z" style="fill:#263238"></path><path d="M225.31,443.73c3.43-3.2,8.57-5.62,13.31-4.74.18,0,.13.3,0,.34a64.78,64.78,0,0,0-13,4.89A.3.3,0,0,1,225.31,443.73Z" style="fill:#263238"></path><path d="M212.12,463.37c5.42.29,21.82-1.33,22.45-1.28a2.75,2.75,0,0,0,2-.2,28.42,28.42,0,0,0,2.94-2.55q3-2.61,5.89-5.25c7.88-7,15.65-14.21,23.37-21.43,2.18-2,4.38-4.06,6.56-6.1s4.51-3.94,6.7-6c.08-.07.21,0,.13.11-1.89,1.95-3.65,4-5.58,5.92s-3.86,3.83-5.82,5.71q-5.85,5.58-11.8,11.07t-12,10.87q-3,2.72-6.11,5.4c-1,.87-2,1.74-3,2.6a3.69,3.69,0,0,1-2.7,1c-6.69,0-16.83,1.45-23,.6C211.83,463.79,211.86,463.35,212.12,463.37Z" style="fill:#263238"></path><path d="M223,418.8l38.63-27s-50-74.82-49.4-76.48c1.86-5.14,34.23-40.82,53.56-68,5.53-7.78,11-24.59,9.56-27.65-3-6.52-11.88-19-11.88-19l-52.31,10.22,1.26,15.35c-2.12,3.41-53.13,65.79-52.16,89.51C161.53,347.05,223,418.8,223,418.8Z" style="fill:#FFC100"></path><path d="M241.75,278.31c5.33-6.64,12.89-15.81,17.9-22.51,2.81-3.83,5.7-7.71,7.62-11.91,1.36-3.27,2.74-6.62,3.89-10a20.83,20.83,0,0,0,.94-3.46,15.17,15.17,0,0,1-.28,3.62,64.8,64.8,0,0,1-2.93,10.49c-1.87,4.59-4.74,8.52-7.67,12.44a171,171,0,0,1-19.47,21.32Z" style="fill:#263238"></path><path d="M195.71,351.39s19.69-11.13,27.33-20.2l7,9.11s-9.57,10.54-27.62,20.87Z" style="fill:#ebebeb"></path><path d="M180.57,323.73s15.14-.09,32.32-9.22l5.71,9.5s-8.19,6.37-31.34,9.5Z" style="fill:#ebebeb"></path><path d="M224.58,393.54s19.69-11.12,27.33-20.19l7,9.11s-9.57,10.54-27.62,20.87Z" style="fill:#ebebeb"></path><path d="M229.34,426c-5.48-1.18-46.13-55.33-48.13-58.82s-23.85-28.49-27-44.67c-1.6-8.22,2.1-15.54,5.32-17,6.3-2.83,16,4.38,24.58,14.68,13,15.55,22.86,38.17,27.85,44.44s32.34,48.94,32.37,51.21c0,2.08-5.24,4-9.49,6.55C232.56,423.74,231.23,426.4,229.34,426Z" style="fill:#dbdbdb"></path><path d="M154.89,322.35c4.43,9.18,10.69,17.71,16.24,26.28,3.63,5.31,7.18,10.7,11.06,15.82,2.48,3,5,5.94,7.3,9,10.06,13.11,24.92,33.51,35.25,46.07a29,29,0,0,0,2.65,2.8,30.61,30.61,0,0,1-2.77-2.7c-12.72-14.58-24.06-30.3-35.92-45.56-2.29-3.1-4.8-6.1-7.24-9.06-3.87-5.18-7.44-10.56-11-16-5.45-8.73-11.49-17.25-15.6-26.7Z" style="fill:#c7c7c7"></path><path d="M159.19,319.58c4.43,9.18,10.69,17.71,16.24,26.28,3.63,5.32,7.18,10.7,11.07,15.82,2.47,3,5,5.94,7.29,9,10.06,13.11,24.92,33.51,35.25,46.07a26.87,26.87,0,0,0,2.66,2.8,28.21,28.21,0,0,1-2.77-2.7c-12.73-14.57-24.07-30.3-35.93-45.56-2.29-3.1-4.8-6.1-7.24-9.06-3.86-5.18-7.44-10.56-11-16-5.45-8.73-11.49-17.25-15.6-26.71Z" style="fill:#c7c7c7"></path><path d="M166.52,318.47a128.43,128.43,0,0,1,8.79,12c5.54,8.27,10.88,16.66,16.37,25a49.31,49.31,0,0,0,4.4,5.94c12.73,16.91,23.73,35,36.57,51.84a18.59,18.59,0,0,0,2.51,2.74,18.82,18.82,0,0,1-2.63-2.65c-11.95-14.45-25.87-36.2-37.17-51.31a49.49,49.49,0,0,1-4.43-6.06c-8-11.79-15.92-26.17-24.41-37.5Z" style="fill:#c7c7c7"></path><path d="M164.33,345.09c-.57,2.5,2.25,5.58,2.25,5.58s.92,3.76,3.22,5.33a6.59,6.59,0,0,0,4.56,3.75c1.27.3,7.79-1,12.44-3.16,2.72-1.26,11.49-8.2,11.44-8.76s-8.14-14.94-9.27-15.25-10.91,6.94-14.77,8.85S164.46,344.49,164.33,345.09Z" style="fill:#ebebeb"></path><path d="M166.58,350.67c1.63-.65,4.91-1.9,6.56-2.51,5.5-1.92,10.39-5.21,15.35-8.21l3-1.81c-4.53,3.73-9.34,7.27-14.77,9.6a71.75,71.75,0,0,1-10.15,2.93Z" style="fill:#c7c7c7"></path><path d="M169.8,356c4.33-1.25,8.86-2.3,12.85-4.41,3-1.62,5.88-3.47,8.76-5.29l2.92-1.81a65,65,0,0,1-11.21,8A37.65,37.65,0,0,1,169.8,356Z" style="fill:#c7c7c7"></path><path d="M154.19,322.51a13.2,13.2,0,0,1,3-9.73c5.54-5.78,13.89-.11,18.73,3.91,7.94,6.84,13.71,15.79,19.09,24.66,4.48,7.41,8.16,15.29,12.87,22.52,7.16,9.79,13.69,20,20.33,30.18,3.74,5.84,7.47,11.68,11,17.67.57,1.16,1.51,2.26,1.68,3.56a2.16,2.16,0,0,1-.67,1.17c-2.65,2.31-6.13,3.24-8.94,5.28-1.33.93-2.4,2.93-4.23,2.7,1.84.21,2.85-1.81,4.19-2.75,2.76-2.06,6.26-3.08,8.84-5.37a2,2,0,0,0,.59-1.06,14.19,14.19,0,0,0-1.69-3.4c-3.56-5.93-7.39-11.71-11.18-17.51-5.72-8.67-11.47-17.33-17.45-25.82a86.67,86.67,0,0,1-5.9-8.6c-3.46-6-6.71-12.13-10.26-18.06-5.32-8.84-11-17.69-18.75-24.58-4.65-4-12.44-9.62-18-4.27a13.05,13.05,0,0,0-3.28,9.5Z" style="fill:#c7c7c7"></path><path d="M205.68,133a4.3,4.3,0,0,0-1.58.54c-2.19,1.28-3.06,3.85-3.37,6.22-.33,2.54-.09,5.33-1.26,7.68a4.19,4.19,0,0,1-2.11,2.14,3.9,3.9,0,0,1-3.22-.38c-1-.52-2.2-1.37-3.45-1.14a3.35,3.35,0,0,0-2.23,2c-1.11,2.38,0,5.16-.07,7.66a13.26,13.26,0,0,1-2.59,7.41,12.94,12.94,0,0,1-5.91,4.4,12.73,12.73,0,0,1-3.56.77c-1.35.09-2.7-.12-4.06-.1a4.73,4.73,0,0,0-3.54,1.31c-.67.77-1.26,4.5.92,8.56.16.29-.38.55-.64.32a16.54,16.54,0,0,1-1.46-1.44,17.76,17.76,0,0,1-4.14-15.65,18.58,18.58,0,0,1,4-8,29.69,29.69,0,0,0,3.18-3.91,9.33,9.33,0,0,0,1.22-4.22c.19-2.83-.31-5.67.37-8.47a15.56,15.56,0,0,1,3.62-6.7,18.41,18.41,0,0,1,14.16-5.9C195.25,126.2,206,132.92,205.68,133Z" style="fill:#263238"></path><path d="M205.51,133a7.25,7.25,0,0,0-3,1.39,6.13,6.13,0,0,0-1.64,2.46,16.86,16.86,0,0,0-.59,6.52c.06,2.06,0,4.25-1.15,6a4.93,4.93,0,0,1-2,1.82,3.79,3.79,0,0,1-2.9,0c-1.74-.63-3.73-2-5.6-.92s-1.85,3.55-1.9,5.36c-.14,4.43.35,10.19-3.81,13.08a16.33,16.33,0,0,1-7.39,2.39c-1.81.2-4.1.45-5.18,2.12,0,.06.06.11.1.05,1.17-1.75,3.51-1.6,5.37-1.73a17.56,17.56,0,0,0,6.41-1.61,8.49,8.49,0,0,0,4.19-4.84,19.85,19.85,0,0,0,.93-6.68c0-1.16,0-2.33,0-3.49a7.3,7.3,0,0,1,.62-3.09,2.48,2.48,0,0,1,2.62-1.31,13.35,13.35,0,0,1,3.05,1.08,5,5,0,0,0,2.81.4,4.54,4.54,0,0,0,2.07-1.05,7.11,7.11,0,0,0,2.28-4.65c.29-2.49-.25-5,.08-7.48a5.94,5.94,0,0,1,4.67-5.57A.14.14,0,0,0,205.51,133Z" style="fill:#263238"></path><path d="M188.26,124.47a15.05,15.05,0,0,0-13.14,7.36,18.58,18.58,0,0,0-2.63,8.31c-.22,2.74-.07,5.57-.89,8.22-.9,2.94-3.25,4.86-5.24,7a16.56,16.56,0,0,0-3.54,6.15A17.68,17.68,0,0,0,164,175a15.41,15.41,0,0,0,.9,1.51.05.05,0,1,0,.09-.06A17,17,0,0,1,163,163.12a16.56,16.56,0,0,1,2.93-6.06c1.71-2.21,4.06-3.89,5.48-6.34,1.34-2.29,1.52-5,1.62-7.59a24.68,24.68,0,0,1,1.28-8.28A15.16,15.16,0,0,1,186,125.24c6-.84,11.43,2.24,16.06,5.64l1.85,1.38c.07.05.16,0,.09-.11C199.49,128.46,194.33,124.74,188.26,124.47Z" style="fill:#263238"></path><path d="M206.23,128.64a2.57,2.57,0,0,0-2.3,1.09c-.2.58,1.42,5,2.51,5.48s2.19-1.44,2.19-1.44Z" style="fill:#FFC100"></path><path d="M217.65,165.4c-4.1,6.94-27.75,38.95-31.53,41.61-19.7,13.83-33.59,6.36-30.65-4.11,4.63-16.44,36.66-37.79,55.52-48.81C223.18,147,224.5,153.8,217.65,165.4Z" style="fill:#eb9481"></path><path d="M189.62,164.15l12,24.32s17.59-24.08,20.77-32.62c3.57-9.61-2.13-9.34-11-5.35S189.62,164.15,189.62,164.15Z" style="fill:#FFC100"></path><path d="M204.41,182.87c-.28-.91-3.89-8.55-4.71-10.19s-4.12-8.4-5.11-10a.07.07,0,1,0-.12.05c.66,1.77,4,8.59,4.77,10.28s4.54,9.18,5.07,9.94C204.35,183,204.43,182.93,204.41,182.87Z" style="fill:#263238"></path><path d="M222.36,155.86c-3.18,8.54-20.76,32.62-20.76,32.62L194.94,175l27.13-26.67C223.69,149.17,224,151.5,222.36,155.86Z" style="opacity:0.1"></path><path d="M206.14,192.65s1.25,14.2,2.54,16.41a11.71,11.71,0,0,0,2.85,2.32l52.31-10.22a6.59,6.59,0,0,0,.18-5c-4.18-10-19.19-34.25-33.46-44.81-9.12-6.76-15.24-3.62-19.24,3.54-1,1.81-9.79,19.91-10.22,28.86C200.83,189.41,206.14,192.65,206.14,192.65Z" style="fill:#FFC100"></path><path d="M219.77,187a31.8,31.8,0,0,0-6.45,2.28c-1,.52-2,1.11-3,1.74-.51.31-1,.6-1.52.88a5.08,5.08,0,0,1-1.66.65c-.05,0,0,.13,0,.12a7.42,7.42,0,0,0,1.63-.2,8.18,8.18,0,0,0,1.53-.59c1.05-.51,2.09-1.1,3.14-1.63a69.88,69.88,0,0,1,6.42-3C219.93,187.22,219.88,187,219.77,187Z" style="fill:#263238"></path><path d="M225.52,189.48a33,33,0,0,0-5.54.11,21.16,21.16,0,0,0-2.73.51c-.43.1-.86.22-1.29.35s-.93.37-1.4.5c-.05,0,0,.13,0,.12.45-.1.92-.08,1.37-.14l1.37-.19c.91-.12,1.83-.22,2.74-.35,1.83-.27,3.65-.51,5.49-.67C225.64,189.71,225.61,189.49,225.52,189.48Z" style="fill:#263238"></path><polygon points="211.53 211.38 211.53 215.56 266.54 204.88 263.84 201.16 211.53 211.38" style="fill:#263238"></polygon><rect x="160.77" y="186.83" width="9.45" height="12.1" transform="translate(404.4 279.57) rotate(150.57)" style="fill:#FFC100"></rect><rect x="160.77" y="186.83" width="9.45" height="12.1" transform="translate(404.4 279.57) rotate(150.57)" style="fill:#fff;opacity:0.5"></rect><rect x="178.22" y="194.08" width="11.5" height="63.1" transform="translate(455.07 331.76) rotate(150.57)" style="fill:#FFC100"></rect><polygon points="163.46 200.97 163.96 201.85 177.65 202.72 176.84 201.29 164.33 200.48 163.46 200.97" style="fill:#fff;opacity:0.30000000000000004"></polygon><polygon points="169.38 211.48 183.08 212.35 182.27 210.91 168.57 210.04 169.38 211.48" style="fill:#fff;opacity:0.30000000000000004"></polygon><polygon points="174.81 221.1 188.51 221.98 187.7 220.54 174 219.67 174.81 221.1" style="fill:#fff;opacity:0.30000000000000004"></polygon><polygon points="180.24 230.73 193.94 231.6 193.13 230.17 179.43 229.29 180.24 230.73" style="fill:#fff;opacity:0.30000000000000004"></polygon><polygon points="185.67 240.36 199.38 241.23 198.56 239.79 184.86 238.92 185.67 240.36" style="fill:#fff;opacity:0.30000000000000004"></polygon><polygon points="190.3 248.55 191.1 249.98 203.61 250.79 204.49 250.29 203.99 249.41 190.3 248.55" style="fill:#fff;opacity:0.30000000000000004"></polygon><path d="M82,58l10.59-6a13.08,13.08,0,0,1,17.88,5l61.73,111a9.84,9.84,0,0,1-.53,10.41l-4.94,7-8.27,4.68-8.87.72a9.81,9.81,0,0,1-9.31-4.9L77,75.94A13.09,13.09,0,0,1,82,58Z" style="fill:#FFC100"></path><path d="M82,58l10.59-6a13.08,13.08,0,0,1,17.88,5l61.73,111a9.84,9.84,0,0,1-.53,10.41l-4.94,7-8.27,4.68-8.87.72a9.81,9.81,0,0,1-9.31-4.9L77,75.94A13.09,13.09,0,0,1,82,58Z" style="opacity:0.30000000000000004"></path><path d="M95.23,69.21c20.6,34.53,42.84,73.3,62.32,108.52-20.61-34.58-42.87-73.32-62.32-108.52Z" style="opacity:0.1"></path><path d="M237.25,160.12c10.89,23.15,17.71,46.81,12.73,52.6-7.14,8.3-24.8,22.25-37.49,26.84-3.73,1.36-16.39-24.85-12.4-26.3,4.81-1.75,26.44-16.61,26.85-16.92.88-.67-1.48-26.94-1.68-34.12C224.91,149.06,231.32,147.53,237.25,160.12Z" style="fill:#eb9481"></path><path d="M166.74,232a4.53,4.53,0,0,0,3.52,3.78,6.69,6.69,0,0,0-.48,4.54c.78,2.64,5.28,2.57,5.28,2.57a8.32,8.32,0,0,0,.26,4.87c1,2.46,5.55,3,5.55,3a7.22,7.22,0,0,0,2.92,4.13c4,2.48,10.35-.63,14.44-2.56s15-11.91,17.05-13.49l-14.76-25.76s-19.37,3.52-23.85,6.48C172.89,222.11,166.38,228.51,166.74,232Z" style="fill:#c7c7c7"></path><path d="M170.25,235.29c3.38-3.61,7.64-6,11.76-8.68a.08.08,0,0,1,.09.14c-4.13,2.59-7.69,6-11.7,8.72C170.29,235.55,170.16,235.39,170.25,235.29Z" style="fill:#263238"></path><path d="M175,242.53a13,13,0,0,1,2.8-1.88c1-.6,2.08-1.17,3.14-1.74,2.11-1.12,4.24-2.2,6.41-3.21.1,0,.19.09.09.14-2.1,1.13-4.19,2.28-6.24,3.5-1,.6-2.05,1.22-3.07,1.84a15.53,15.53,0,0,1-3,1.63A.17.17,0,0,1,175,242.53Z" style="fill:#263238"></path><path d="M181,250.77a8.83,8.83,0,0,1,2.61-1.56l2.91-1.49c1.94-1,3.87-2,5.77-3.09.09-.06.18.09.09.14-1.92,1.1-3.83,2.23-5.76,3.31l-2.86,1.58a8.67,8.67,0,0,1-2.71,1.21A.06.06,0,0,1,181,250.77Z" style="fill:#263238"></path><polygon points="218.75 236.91 213.75 241.05 196.99 213.59 202.73 210.6 218.75 236.91" style="fill:#dbdbdb"></polygon><path d="M225.69,187.31l27.09,1.38s-12.48-27.08-18.39-34c-6.66-7.8-9.19-2.69-10,7S225.69,187.31,225.69,187.31Z" style="fill:#FFC100"></path><path d="M249.25,183.5c-.93-.19-9.36-.76-11.2-.84s-9.33-.49-11.24-.42a.07.07,0,0,0,0,.13c1.87.29,9.44.72,11.31.85s10.22.49,11.14.41C249.33,183.62,249.31,183.51,249.25,183.5Z" style="fill:#263238"></path><path d="M226.94,187.31c-.81-.1-1.31-.19-1.31-.19-.07-3.78-.37-7.71-.6-11.49s-.59-7.69-.88-11.53c0-.06-.09,0-.09,0q0,3.27.1,6.54c0-.27-.11-.54-.16-.81-.19-1-.41-1.92-.56-2.89,0-.08-.14-.08-.13,0a22.29,22.29,0,0,0,.37,2.94c.14.69.33,1.36.53,2,0,1.25.06,2.5.13,3.75.21,3.84.15,8.12.66,11.93a13,13,0,0,0,2-.11C227.07,187.48,227.06,187.32,226.94,187.31Z" style="fill:#263238"></path><path d="M248.86,188.49c1.31,0,2.62,0,3.92,0l-.17.26-6.2-12.64c-1.54-3.15-4.7-9.47-6.3-12.59,1.3,2,2.5,4,3.65,6a191.58,191.58,0,0,1,9.3,19.32c-1.4-.14-2.8-.25-4.2-.41Z" style="fill:#263238"></path><path d="M242.54,165.81a8.45,8.45,0,0,1,1.88,5.61c-.44-1.41-1.39-4.22-1.88-5.61Z" style="fill:#263238"></path><path d="M150.49,201.83c-3.91,4-7.58,12.79-3.54,19s11.49,7.4,21.07,4.57Z" style="fill:#eb9481"></path><path d="M182.07,178.27a4.58,4.58,0,0,1,2,4.85,6.79,6.79,0,0,1,4.38,1.49c2.1,1.86.11,6,.11,6a8.41,8.41,0,0,1,4.37,2.32c1.83,2,.41,6.4.41,6.4a7.33,7.33,0,0,1,2.56,4.46c.59,4.68-5,9.24-8.53,12.17s-17.36,8.71-19.69,9.91l-17.37-24.58s11.51-16.3,16.15-19.16C170.33,179.68,179,176.43,182.07,178.27Z" style="fill:#c7c7c7"></path><path d="M183.58,182.89c-4.77,1.56-8.81,4.45-13,7.1-.09.06,0,.21.09.15,4.15-2.69,8.78-4.52,13-7A.12.12,0,0,0,183.58,182.89Z" style="fill:#263238"></path><path d="M188.21,190.34a13,13,0,0,0-2.92,1.77c-1,.7-2,1.41-2.94,2.14-1.94,1.47-3.84,3-5.7,4.53-.08.07,0,.21.09.15,1.94-1.46,3.89-2.88,5.88-4.25,1-.69,2-1.36,3-2a15.83,15.83,0,0,0,2.76-2A.17.17,0,0,0,188.21,190.34Z" style="fill:#263238"></path><path d="M193.23,199.35a9.09,9.09,0,0,0-2.55,1.74l-2.62,2c-1.75,1.34-3.5,2.69-5.3,4a.09.09,0,1,0,.1.14c1.83-1.3,3.68-2.57,5.5-3.88l2.68-2a8.6,8.6,0,0,0,2.26-2A.06.06,0,0,0,193.23,199.35Z" style="fill:#263238"></path><path d="M167.41,225.88c5.52-3.12,11.19-5.94,16.91-8.65a30.41,30.41,0,0,0,5.05-3.62c2-1.85,4.33-3.66,5.59-6.17-.89,2.71-3.12,4.75-5.07,6.74a25,25,0,0,1-5.11,3.92c-5.7,2.76-11.48,5.43-17.37,7.78Z" style="fill:#263238"></path><polygon points="164.34 228.17 170.28 225.34 152.2 198.2 147 202.2 164.34 228.17" style="fill:#dbdbdb"></polygon><path d="M225.59,149.92c-.18,1.15-5,8.88-10.2,9-1.69,0-2.34-9.15-2.34-9.15l-.2-.67L210,139.78l10.64-8,1.54-1.07s.61,2.61,1.33,5.86c0,.15.07.3.1.47s.09.35.13.52c.11.49.23,1,.33,1.48s.16.75.23,1.14.15.79.24,1.19A63.07,63.07,0,0,1,225.59,149.92Z" style="fill:#eb9481"></path><path d="M210,139.78l1.66,5.49A20.58,20.58,0,0,0,225,144.11c-.13-.89-.28-1.83-.44-2.74-.09-.4-.16-.79-.23-1.18s-.15-.77-.24-1.15-.21-1-.33-1.47a5.11,5.11,0,0,0-.13-.53c0-.16-.06-.32-.1-.47-.72-3.25-1.33-5.86-1.33-5.86l-1.54,1.06Z" style="fill:#263238"></path><path d="M212.85,149.13l3.64,8.46,9.12-11,3.1,3s-8.39,17-8.51,16.24l-3.9-6.64-4.36,5.22-1.09-13.09Z" style="fill:#FFC100"></path><path d="M210.75,151.46c0-.07.11-.11.14,0,.56,1.89,1.12,10.53,1.28,12.35l0,0c.18-.23,4.07-4.61,4.11-4.55.81,1,3.67,5.87,3.87,6.31,1.33-2.69,6.45-12.51,8.07-15.09a.07.07,0,0,1,.13.06c-1.13,2.82-7.89,16-8,16a80.13,80.13,0,0,1-4.08-7c-.64.94-4.52,5.84-4.56,5.55C211.44,163,210.7,153.47,210.75,151.46Z" style="fill:#263238"></path><path d="M234.82,125.41c.15,17.14-10.11,19.17-13.8,19.19-3.36,0-14.79-.32-16.71-17.36s6-22.53,13.69-23S234.68,108.26,234.82,125.41Z" style="fill:#eb9481"></path><path d="M232.05,124.32a9.65,9.65,0,0,1-1.2.06,2,2,0,0,1-1.24-.17.63.63,0,0,1-.19-.74,1.52,1.52,0,0,1,1.38-.73,2.2,2.2,0,0,1,1.57.42A.66.66,0,0,1,232.05,124.32Z" style="fill:#263238"></path><path d="M220.48,121.82a11.79,11.79,0,0,0,1.14.39,2,2,0,0,0,1.24.19.61.61,0,0,0,.39-.65,1.55,1.55,0,0,0-1.11-1.1,2.35,2.35,0,0,0-1.63-.05A.67.67,0,0,0,220.48,121.82Z" style="fill:#263238"></path><path d="M222.85,126.05s-.1,0-.1.1c-.07,1.18-.36,2.53-1.46,2.82,0,0,0,.07,0,.07C222.61,129,223,127.19,222.85,126.05Z" style="fill:#263238"></path><path d="M221.91,124.72c-1.89-.33-2.4,3.48-.64,3.78S223.49,125,221.91,124.72Z" style="fill:#263238"></path><path d="M221.14,124.82c-.36.17-.74.5-1.15.49s-.76-.46-1-.88c0-.05-.07,0-.08,0-.1.73.08,1.51.84,1.73s1.3-.39,1.58-1.09C221.37,125,221.28,124.75,221.14,124.82Z" style="fill:#263238"></path><path d="M229.45,126.51c0-.05.09.07.08.11-.18,1.18-.19,2.56.83,3.08,0,0,0,.07,0,.06C229.06,129.42,229.09,127.59,229.45,126.51Z" style="fill:#263238"></path><path d="M230.65,125.4c1.92.09,1.61,3.91-.17,3.83S229.05,125.33,230.65,125.4Z" style="fill:#263238"></path><path d="M231.43,125.72c.29.23.56.62.92.67s.75-.32,1.05-.7c0,0,.06,0,.06,0,0,.73-.34,1.47-1.06,1.55s-1.07-.59-1.18-1.33C231.2,125.83,231.32,125.63,231.43,125.72Z" style="fill:#263238"></path><path d="M221.44,135.48c.23.32.44.75.86.86a3.22,3.22,0,0,0,1.31-.06s.07,0,0,.06a1.57,1.57,0,0,1-1.6.37,1.25,1.25,0,0,1-.73-1.2C221.31,135.44,221.41,135.43,221.44,135.48Z" style="fill:#263238"></path><path d="M222.67,132.47a4,4,0,0,0,2.56,1.88,5.22,5.22,0,0,0,1.42.13l.28,0,.25,0a.29.29,0,0,0,.25-.25h0a.41.41,0,0,0,0-.11h0v-.11c.06-.89,0-2.25,0-2.25.32.18,1.95,1,1.94.53a59.49,59.49,0,0,0-1-12,.11.11,0,0,0-.22,0c-.09,3.73.47,7.45.43,11.2a7,7,0,0,0-1.84-.65c-.13,0,.1,2.64,0,3a.18.18,0,0,1,0,.05,5.51,5.51,0,0,1-4-1.46C222.7,132.3,222.61,132.37,222.67,132.47Z" style="fill:#263238"></path><path d="M225.77,134.09a3.94,3.94,0,0,1-1.74,1A1.72,1.72,0,0,1,223,135c-.75-.31-.67-1-.44-1.61a4,4,0,0,1,.48-.88A5.07,5.07,0,0,0,225.77,134.09Z" style="fill:#263238"></path><path d="M224,135.08A1.72,1.72,0,0,1,223,135c-.75-.31-.67-1-.44-1.61A1.82,1.82,0,0,1,224,135.08Z" style="fill:#ff9cbd"></path><path d="M204.47,126.38c1.9.1,7.41-4.55,8.59-13.66,0,0-1.63,8.11-2.38,9.24s3.09-2.62,4.14-9.95a30.22,30.22,0,0,0,7.11,4.77c3.37,1.37,5.5,1.57,5.77,1.35s-4.65-2.41-5.85-4.16c0,0,8.76,5.34,13,6.14.49.1.66-7.89-5.45-12.94s-15.5-3.66-18.61-1.27c0,0-2.48.69-5.29,4.55C201.89,115.37,202.42,126.27,204.47,126.38Z" style="fill:#263238"></path><path d="M215.12,111.08c0-.2-.33-.23-.33,0a24.16,24.16,0,0,1-2.45,9.64c0,.05,0,.08.07,0C214.15,117.68,215.35,114.66,215.12,111.08Z" style="fill:#263238"></path><path d="M226.32,118.53c-4.89-1.14-9-3.19-11.85-7.42a.09.09,0,1,0-.15.08c2.25,4.53,7.16,6.83,12,7.52C226.39,118.73,226.42,118.56,226.32,118.53Z" style="fill:#263238"></path><path d="M207.62,128.35s-3-5.78-5.61-4.76-.77,9.07,1.93,10.48A2.9,2.9,0,0,0,208,133Z" style="fill:#eb9481"></path><path d="M202.58,125.88s-.06.06,0,.08c1.88,1.05,2.69,3,3.18,5a1.6,1.6,0,0,0-2.32-.73c-.06,0,0,.12,0,.11a1.8,1.8,0,0,1,1.87.87,8.46,8.46,0,0,1,.73,1.69c.07.19.4.13.36-.08a.43.43,0,0,1,0-.05C206.78,130.27,205.27,126.48,202.58,125.88Z" style="fill:#263238"></path><path d="M211.42,119.33s-1.66,1.59-1.8,1.83c.33.57,6.26,11.27,6.39,12.6.43,4.23-6.75,7.78-10,4.69-2.57-2.45-4.8-5.93-6.24-7.66-1.07.36-1.28.56-1.4.53-.57-.13-2.6-5.11-2.34-11.68.22-5.63,5.9-19.32,21.3-19s18.35,16.1,17.71,20.08c0,0-6.48-2.19-9.44-2.1C221.89,118.72,211.42,119.33,211.42,119.33Z" style="fill:#FFC100"></path><path d="M211.42,119.33s-1.66,1.59-1.8,1.83c.33.57,6.26,11.27,6.39,12.6.43,4.23-6.75,7.78-10,4.69-2.57-2.45-4.8-5.93-6.24-7.66-1.07.36-1.28.56-1.4.53-.57-.13-2.6-5.11-2.34-11.68.22-5.63,5.9-19.32,21.3-19s18.35,16.1,17.71,20.08c0,0-6.48-2.19-9.44-2.1C221.89,118.72,211.42,119.33,211.42,119.33Z" style="fill:#fff;opacity:0.5"></path><path d="M209.2,116.29c-1.09,3.24-4.15,5.14-6.82,4.24s-3.95-4.26-2.86-7.5,4.15-5.14,6.82-4.24S210.29,113.05,209.2,116.29Z" style="fill:#fff"></path><path d="M231.32,119.58a23.63,23.63,0,0,0-5.72-1l-1.27,0c-.52-3.13-1.53-9.23-4-12a27.17,27.17,0,0,0-7.71-5.67.23.23,0,0,1,.11,0,15.43,15.43,0,0,1,1.56-.21l.5,0h0c4.22.52,6.23,1.82,10.18,4.73S230.81,116.77,231.32,119.58Z" style="fill:#FFC100"></path><path d="M226.94,143.49l-7.82-2.87-.11,0-3.2-3.63-.31-18.24,1,0,.15,8.92L229.48,132l8.45,0-4.63,11.23-.29,0C227.29,143.6,227.06,143.52,226.94,143.49Zm-7.37-3.74c2.1.77,7.09,2.61,7.64,2.8.43,0,3-.15,5.42-.34l3.84-9.33-7.22,0-12.61-4.26.14,7.94Z" style="fill:#dbdbdb"></path><rect x="222.83" y="137.25" width="10.84" height="0.97" transform="translate(45.17 331.51) rotate(-77.73)" style="fill:#dbdbdb"></rect><polygon points="215.82 132.65 209.15 121.18 211.42 119 215.99 118.22 226.07 118.41 236.45 120.61 234.88 132.47 233.91 132.35 235.37 121.37 225.91 119.37 216.02 119.19 211.88 119.91 210.38 121.35 216.66 132.16 215.82 132.65" style="fill:#dbdbdb"></polygon><polygon points="211.1 122.81 210.53 122.02 212.23 120.79 216.09 120.12 226.14 120.31 235.85 122.28 235.66 123.23 225.99 121.27 216.12 121.09 212.61 121.71 211.1 122.81" style="fill:#dbdbdb"></polygon><rect x="228" y="137.11" width="11.17" height="0.97" transform="translate(19.27 303.62) rotate(-68.26)" style="fill:#dbdbdb"></rect></g><g id="freepik--Ball--inject-149"><circle cx="374.41" cy="181.87" r="11.94" transform="translate(63.93 459.11) rotate(-67.67)" style="fill:#FFC100"></circle><circle cx="374.41" cy="181.87" r="11.94" transform="translate(63.93 459.11) rotate(-67.67)" style="fill:#fff;opacity:0.4"></circle><path d="M378.28,170.57c-1.35,7.48-7.81,13.65-14.84,16,6.39-3.67,12.13-9,14.84-16Z" style="fill:#FFC100"></path><path d="M366.1,190.34a23.83,23.83,0,0,0,14.17-11.47,20.78,20.78,0,0,0,2-5.94,17.14,17.14,0,0,1-.3,3.19,18.85,18.85,0,0,1-15.85,14.22Z" style="fill:#FFC100"></path><path d="M364.6,188.68c7.33-3.31,13.71-9.22,15.63-17.24-.49,8.45-7.69,15.28-15.63,17.24Z" style="fill:#fff"></path><path d="M394.66,170c11.64-2.83,23.25-6.12,34.24-11q1.07-.54,2.16-1.05c-5.37,3.57-11.49,5.86-17.59,7.85A101.16,101.16,0,0,1,394.66,170Z" style="fill:#263238"></path><path d="M428.09,171.77c6-2.64,12.06-4.81,18.05-7.48a46.26,46.26,0,0,1-18.05,7.48Z" style="fill:#263238"></path><path d="M390.2,176.41c22.33-5,44.84-11.79,64-24.68l3.73-2.71c-18.37,15.59-44.21,23.57-67.69,27.39Z" style="fill:#263238"></path></g></svg>
