<?xml version="1.0" encoding="utf-8"?>
<!-- Generator: Adobe Illustrator 27.5.0, SVG Export Plug-In . SVG Version: 6.00 Build 0)  -->
<svg version="1.1" xmlns="http://www.w3.org/2000/svg" xmlns:xlink="http://www.w3.org/1999/xlink" x="0px" y="0px"
	 viewBox="0 0 3000 2000" style="enable-background:new 0 0 3000 2000;" xml:space="preserve">
<g id="BACKGROUND">
	<rect style="fill:#FFFFFF;" width="3000" height="2000"/>
</g>
<g id="OBJECTS">
	<g>
		<g>
			<path d="M790.04,878.89l-1.458-13.124c98.43-16.04,34.997-110.825-31.352-91.139c-64.162-61.974-166.237,80.202-174.986,242.064
				l248.598-1.453C830.841,1015.239,830.841,914.209,790.04,878.89z"/>
			<g>
				<polygon style="fill:#599BFF;" points="889.193,1419.366 893.132,1715.688 500.352,1715.688 569.048,1408.149 859.386,1418.318 
									"/>
				<polygon style="opacity:0.1;" points="886.186,1427.234 545.265,1514.154 568.964,1408.204 878.602,1418.297 				"/>
				<polygon points="702.812,1717.191 698.846,1716.67 715.689,1588.524 796.393,1564.454 797.537,1568.288 719.317,1591.616 				
					"/>
			</g>
			<g>
				<path style="fill:#FFD966;" d="M526.876,1106.535l27.005,299.95c1.048,11.644,11.331,20.703,23.898,21.054l305.286,8.537
					c22.295,0.484,40.226-16.927,38.728-37.606l-24.866-343.336l-168.34-77.344L526.876,1106.535z"/>
				<g>
					<path style="fill:#FFD966;" d="M1018.833,1150.797l-80.198-108.084c-16.817-23.857-42.675-39.779-71.548-44.056
						l-142.377-21.093l238.531,294.404c23.377,28.853,67.896,27.228,89.107-3.252l73.66-105.847l-62.184-63.204L1018.833,1150.797z"
						/>
					<path style="fill:#FF8F78;" d="M1230.314,1070.46c17.528-17.528,6.26-22.537-28.797-11.268
						c-35.057,11.268-90.146,2.504-106.422,8.764c-6.159,2.369-18.416,15.859-31.272,31.709l62.184,63.204l32.941-47.336
						C1158.949,1115.533,1212.786,1087.989,1230.314,1070.46z"/>
				</g>
				<g>
					<path style="fill:#FFD966;" d="M728.651,977.834l-145.587,16.595c-16.936,1.931-32.866,9.032-45.623,20.338l-177.366,157.195
						c-18.824,16.683-29.076,40.997-27.879,66.122l0,0c1.064,22.351,11.101,43.328,27.837,58.182L476.127,1399.3l67.577-71.133
						l-78.247-92.474l259.637-220.514L728.651,977.834z"/>
					<path style="fill:#FF8F78;" d="M476.127,1399.3c0,0,82.904,60.732,91.585,59.574c13.337-1.778-3.557-25.786-3.557-25.786
						s28.418,24.391,35.567,18.673c4.446-3.557-0.889-16.894-22.229-40.013c0,0,42.919,29.615,50.683,24.007
						c16.005-11.559-43.569-54.239-43.569-54.239s40.013,22.229,47.126,15.116c7.113-7.113-88.028-68.466-88.028-68.466
						L476.127,1399.3z"/>
				</g>
				
					<ellipse transform="matrix(0.9239 -0.3827 0.3827 0.9239 -386.4552 370.2601)" style="fill:#FFFFFF;" cx="737.485" cy="1156.552" rx="13.428" ry="13.428"/>
				<g style="opacity:0.8;">
					<path style="fill:#FFFFFF;" d="M918.647,1021.371c-20.711,2.272-41.41,10.452-59.434,20.187
						c-40.816,22.046-78.384,58.867-127.309,60.361c-46.69,1.426-81.748-34.449-121.405-53.25
						c-30.319-14.375-64.656-18.014-97.526-12.218l-5.813,5.152c35.622-7.672,73.658-3.987,106.733,13.018
						c34.088,17.526,64.721,45.787,104.113,50.526c42.435,5.105,80.253-20.328,114.055-42.373
						c25.763-16.803,58.214-35.739,90.26-38.281C921.119,1023.424,919.894,1022.383,918.647,1021.371z"/>
					<path style="fill:#FFFFFF;" d="M428.084,1356.662c28.168-21.756,56.336-43.512,84.504-65.269l-2.461-2.908
						c-28.314,21.869-56.627,43.737-84.94,65.605L428.084,1356.662z"/>
					<path style="fill:#FFFFFF;" d="M1032.493,1135.272c17.006,29.554,34.012,59.109,51.018,88.664l2.423-3.482
						c-16.922-29.408-33.843-58.816-50.764-88.224L1032.493,1135.272z"/>
				</g>
				<g>
					
						<rect x="507.375" y="1163.824" transform="matrix(0.7702 -0.6378 0.6378 0.7702 -618.1158 616.166)" width="77.204" height="3.999"/>
					
						<rect x="438.974" y="1208.602" transform="matrix(0.1009 -0.9949 0.9949 0.1009 -830.4484 1547.4503)" width="4.001" height="49.215"/>
					
						<rect x="901.736" y="1126.19" transform="matrix(0.9927 -0.1203 0.1203 0.9927 -134.0656 117.2408)" width="4" height="85.022"/>
					
						<rect x="980.318" y="1136.009" transform="matrix(0.6602 -0.7511 0.7511 0.6602 -504.8547 1160.036)" width="98.77" height="4"/>
				</g>
			</g>
			<g>
				<path style="fill:#FF8F78;" d="M772.075,881.339v110.533c0,24.44-19.773,44.213-44.213,44.213
					c-24.382,0-44.213-19.773-44.213-44.213V881.339H772.075z"/>
				<path style="fill:#CC7260;" d="M772.075,940.018v44.33c-29.048-8.807-50.688-32.489-69.528-61.712L772.075,940.018z"/>
				<path style="fill:#FF8F78;" d="M803.106,902.804c-0.933,17.44-5.074,31.498-15.282,35.172
					c-32.081,11.666-85.277-15.34-85.277-15.34l-13.124-56.871l20.415-45.205l64.92-21.173l17.499,13.182
					c0,0,8.399,34.647,10.616,67.603C803.339,887.989,803.514,895.688,803.106,902.804z"/>
				<path d="M692.339,877.431c22.331-42.056,54.052-66.619,99.888-64.891l5.104-16.04l-47.392-4.375l-61.245,19.686l-14.582,50.309
					L692.339,877.431z"/>
				<path d="M789.554,868.318c0,3.557-2.231,6.44-4.982,6.44s-4.982-2.883-4.982-6.44c0-3.557,2.231-6.441,4.982-6.441
					S789.554,864.761,789.554,868.318z"/>
				<path d="M752.248,868.075c0,3.557-2.231,6.44-4.982,6.44c-2.752,0-4.982-2.884-4.982-6.44s2.231-6.44,4.982-6.44
					C750.017,861.634,752.248,864.518,752.248,868.075z"/>
				<path d="M773.87,876.252c1.634,1.456,2.959,3.13,4.122,4.967c1.163,1.832,2.116,3.852,2.623,6.168
					c0.243,1.157,0.346,2.426,0.092,3.774c-0.234,1.336-1.013,2.763-2.159,3.63c-0.289,0.199-0.573,0.416-0.872,0.573l-0.909,0.406
					c-0.613,0.172-1.219,0.339-1.808,0.383c-1.189,0.126-2.309,0.01-3.389-0.231v-1.5c0.985-0.299,1.949-0.5,2.772-0.881
					c0.843-0.32,1.541-0.778,1.957-1.272c0.419-0.498,0.638-1.024,0.716-1.735c0.084-0.701,0.018-1.532-0.153-2.398
					c-0.348-1.741-1.028-3.572-1.774-5.406l-2.417-5.579L773.87,876.252z"/>
				<path style="fill:#FFFFFF;" d="M750.668,900.52c4.8,15.685,20.901,18.957,25.762,4.861L750.668,900.52z"/>
				<path d="M755.993,846.486c0.257,2.527-1.868,3.943-4.002,4.662c-4.711,1.588-9.941,2.761-15.058,2.903
					c-1.652,0.046-4.806,0.564-5.928-1.09c-1.17-1.727,0.485-3.164,2.034-3.904C735.851,847.715,755.277,839.495,755.993,846.486z"
					/>
				<path d="M776.431,845.752c-0.198,2.491,1.772,3.921,3.739,4.663c4.344,1.638,9.157,2.875,13.852,3.091
					c1.516,0.07,4.416,0.629,5.419-0.987c1.047-1.688-0.492-3.132-1.924-3.884C794.919,847.267,776.982,838.86,776.431,845.752z"/>
				
					<ellipse transform="matrix(0.7071 -0.7071 0.7071 0.7071 -417.1901 776.3571)" style="opacity:0.4;fill:#FF5970;" cx="728.551" cy="891.772" rx="11.422" ry="11.422"/>
				<path style="opacity:0.4;fill:#FF5970;" d="M803.106,902.804c-0.467,0.058-0.933,0.117-1.4,0.117
					c-6.3,0-11.433-5.075-11.433-11.374c0-6.3,5.133-11.433,11.433-11.433c0.408,0,0.758,0,1.167,0.058
					C803.339,887.989,803.514,895.688,803.106,902.804z"/>
				<g>
					
						<ellipse transform="matrix(0.866 -0.5 0.5 0.866 -347.0833 459.531)" style="fill:#FF8F78;" cx="683.955" cy="877.431" rx="19.321" ry="23.332"/>
					<path d="M689.159,885.221c-0.516-1.965-1.033-3.818-1.754-5.541c-0.732-1.714-1.624-3.294-2.749-4.667
						c-1.122-1.374-2.452-2.542-3.975-3.507c-1.527-0.968-3.248-1.694-5.156-2.319l0.091-1.497c2.159-0.38,4.468-0.075,6.579,0.794
						c2.118,0.863,4.017,2.325,5.443,4.128c1.432,1.801,2.415,3.917,2.892,6.088c0.494,2.168,0.544,4.387,0.129,6.495
						L689.159,885.221z"/>
				</g>
			</g>
		</g>
		<g>
			<g>
				<g>
					<path style="fill:#FF8F78;" d="M2235.588,868.778v91.237c0,27.13-21.96,49.09-49.09,49.09c-27.081,0-49.041-21.96-49.041-49.09
						v-91.237H2235.588z"/>
					<path d="M2212.003,902.408c-16.052,27.327-38.504,48.351-74.546,55.934v-54.654l49.287-10.192L2212.003,902.408z"/>
					<path style="fill:#FF8F78;" d="M2232.289,850.708l-20.286,51.699c-41.261,28.903-71,22.354-87.643,8.223
						c-4.333-3.693-7.189-12.605-9.011-23.732c-1.427-8.469-2.265-18.218-2.708-28.016c-1.231-26.588,0.246-53.127,0.246-53.127
						l78.14-44.314l38.208,32.644L2232.289,850.708z"/>
					<path d="M2226.134,841.476c-1.846-29.235-15.017-49.49-32.004-58.47c0,0-93.05,72.526-112.939,11.386
						c-16.618-51.084,50.469-56.008,59.393-48.314c26.157-27.696,60.624-31.389,72.933,2.77
						c58.768,6.378,71.884,36.505,33.851,93.244L2226.134,841.476z"/>
					<path d="M2132.275,847.015c0,2.974-1.895,5.385-4.231,5.385s-4.231-2.411-4.231-5.385c0-2.974,1.894-5.385,4.231-5.385
						S2132.275,844.041,2132.275,847.015z"/>
					<path d="M2166.818,845.169c0,2.974-1.894,5.385-4.231,5.385c-2.337,0-4.231-2.411-4.231-5.385c0-2.974,1.894-5.385,4.231-5.385
						C2164.924,839.784,2166.818,842.195,2166.818,845.169z"/>
					<path d="M2144.069,850.753c-1.379,2.282-2.812,4.526-4.1,6.774c-0.628,1.133-1.262,2.25-1.773,3.383
						c-0.502,1.129-0.981,2.256-1.152,3.284c-0.078,0.503-0.109,0.964-0.054,1.293c0.028,0.164,0.073,0.286,0.113,0.399
						c0.041,0.051,0.041,0.083,0.093,0.165l0.258,0.32c0.666,0.878,1.558,1.659,2.524,2.399c1.954,1.454,4.277,2.69,6.622,3.82
						l-0.338,1.474c-2.841-0.213-5.561-1.008-8.13-2.442c-1.281-0.717-2.495-1.644-3.563-2.815l-0.39-0.449
						c-0.145-0.188-0.309-0.451-0.45-0.681c-0.26-0.487-0.437-1.001-0.526-1.499c-0.177-0.995-0.103-1.892,0.059-2.705
						c0.35-1.609,0.932-2.975,1.635-4.237c0.697-1.264,1.47-2.436,2.323-3.538c1.692-2.212,3.565-4.21,5.725-5.958L2144.069,850.753
						z"/>
					<path d="M2132.553,827.868c1.225,3.253-3.144,3.99-8.015,5.345s-9.18,1.161-9.624-0.436c-0.444-1.596,3.144-3.989,8.015-5.345
						S2131.442,824.917,2132.553,827.868z"/>
					<path d="M2156.595,825.466c-1.371,3.64,3.519,4.465,8.97,5.982c5.452,1.517,10.274,1.299,10.771-0.488
						c0.497-1.787-3.519-4.465-8.97-5.982C2161.915,823.461,2157.839,822.162,2156.595,825.466z"/>
					<path d="M2142.392,889.659c2.588-0.087,5.083-0.25,7.513-0.666c2.426-0.425,4.784-1.049,7.053-1.941
						c2.263-0.898,4.465-1.979,6.594-3.26c2.133-1.278,4.198-2.724,6.336-4.218l1.092,1.046c-1.466,2.264-3.343,4.263-5.486,5.96
						c-2.145,1.693-4.556,3.111-7.161,4.068c-5.183,1.964-11.045,2.217-16.171,0.505L2142.392,889.659z"/>
					<circle style="opacity:0.4;fill:#FF5970;" cx="2189.206" cy="863.325" r="14.464"/>
					<path style="opacity:0.4;fill:#FF5970;" d="M2125.197,873.161c0,6.352-4.136,11.768-9.848,13.737
						c-1.427-8.469-2.265-18.218-2.708-28.016C2119.732,859.817,2125.197,865.824,2125.197,873.161z"/>
					
						<ellipse transform="matrix(0.3398 -0.9405 0.9405 0.3398 673.6877 2661.0613)" style="fill:#FF8F78;" cx="2232.34" cy="850.657" rx="25.637" ry="20.55"/>
					<path d="M2227.077,855.785c-0.696-2.043-0.663-4.347-0.092-6.476c0.554-2.146,1.656-4.126,3.075-5.802
						c1.423-1.676,3.19-3.065,5.203-3.98c1.993-0.906,4.3-1.377,6.472-0.886v1.512c-1.801,0.54-3.365,1.352-4.823,2.356
						c-1.448,1.008-2.768,2.19-3.924,3.513c-1.156,1.324-2.125,2.795-2.888,4.383c-0.75,1.599-1.246,3.314-1.521,5.215
						L2227.077,855.785z"/>
				</g>
				<g>
					<polygon style="fill:#FF5970;" points="2037.471,1413.749 1973.315,1715.84 2427.338,1715.84 2395.261,1409.137 					"/>
					<polygon points="2211.885,1717.241 2189.843,1586.785 2141.385,1561.876 2143.213,1558.319 2193.454,1584.143 
						2193.62,1585.131 2215.828,1716.575 					"/>
					<polygon style="opacity:0.1;" points="2050.733,1451.706 2406.246,1522.296 2395.261,1409.137 					"/>
				</g>
				<g>
					<path style="fill:#FF8F78;" d="M1776.771,1194.281l-49.301-40.219c-11.044-9.009-24.646-14.28-38.878-15.04
						c-45.875-2.45-144.728-1.07-144.438,6.471c0.871,22.652,110.645,50.531,110.645,50.531l94.092,90.607L1776.771,1194.281z"/>
					<path style="fill:#599BFF;" d="M2193.215,971.249l-147.655,17.518c-35.932,4.263-66.96,27.141-81.656,60.206l-80.844,181.9
						l-106.289-36.591l-60.986,99.319l187.715,91.418c29.306,14.272,64.653,2.903,80.144-25.777L2193.215,971.249z"/>
					<path style="fill:#599BFF;" d="M2193.215,971.249l135.023,9.083c30.537,2.054,59.543,14.131,82.514,34.356l105.396,92.794
						l-3.061-90.309l120.921-13.776l48.214,229.016c7.582,36.014-11.12,72.411-44.814,87.217v0
						c-26.546,11.664-57.376,7.591-79.982-10.566l-344.347-276.584L2193.215,971.249z"/>
					<path style="fill:#599BFF;" d="M2193.215,971.249l195.154,76.668l32.598,362.646c2.113,23.504-16.266,43.817-39.863,44.059
						l-336.929,3.454c-22.406,0.23-40.727-17.802-40.854-40.208l-1.774-312.449L2193.215,971.249z"/>
					<path style="fill:#FF8F78;" d="M2513.088,1017.174c0,0-71.139-105.169-54.803-111.703
						c16.335-6.534,39.858,35.938,39.858,35.938l2.799-21.832c0.309-2.41,0.131-4.857-0.524-7.196l-1.381-4.933
						c-1.399-4.997-4.872-9.156-9.54-11.423l-15.53-7.543c0,0-11.761,17.642-20.909,16.335c-6.107-0.872-2.895-15.141-0.085-24.531
						c1.521-5.083,5.147-9.242,9.985-11.419l12.74-5.733c3.876-1.744,8.323-1.696,12.16,0.131l21.394,10.188
						c0,0-13.722-65.342-3.92-66.648c9.801-1.307,24.176,46.393,24.176,46.393s-4.574-45.086,3.921-45.086
						s22.216,52.927,22.216,52.927s-1.85-25.375,5.227-26.79c16.335-3.267,50.967,171.195,50.967,171.195L2513.088,1017.174z"/>
					<path style="fill:#99C1FF;" d="M2119.809,948.827l138.292-1.934l2.901,28.69c-43.519,20.953-96.063,22.565-143.449,4.835
						L2119.809,948.827z"/>
					<g style="opacity:0.6;">
						<path style="fill:#FFFFFF;" d="M1954.257,1070.681c21.413-0.338,42.676-6.322,60.965-18.235
							c23.61-15.379,40.537-39.135,48.373-65.819l-4.081,0.484c-7.755,25.133-23.957,47.514-46.229,62.022
							c-17.182,11.191-37.143,17.024-57.312,17.685L1954.257,1070.681z"/>
						<path style="fill:#FFFFFF;" d="M2430.869,1032.399l-3.254-2.865c-46.514,15.847-97.691-5.992-118.382-50.48l-4.308-0.29
							C2326.285,1027.027,2381.21,1050.335,2430.869,1032.399z"/>
						<path style="fill:#FFFFFF;" d="M2183.77,1130.931c2.415,0.346,3.458-3.35,1.02-3.699
							c-68.589-9.832-139.481,15.015-186.716,65.778c-1.68,1.806,1.026,4.525,2.713,2.713
							C2047.009,1146.048,2116.555,1121.296,2183.77,1130.931z"/>
						<path style="fill:#FFFFFF;" d="M2391.4,1169.689c-73.857,39.47-164.051,43.408-241.022,10.353
							c-2.244-0.964-4.201,2.34-1.936,3.313c78.305,33.627,169.711,29.826,244.895-10.353
							C2395.514,1171.838,2393.579,1168.525,2391.4,1169.689z"/>
					</g>
					<g>
						
							<rect x="1998.536" y="1129.323" transform="matrix(0.9998 -0.019 0.019 0.9998 -23.7251 38.3312)" width="4.001" height="270.83"/>
						
							<rect x="2399.549" y="1128.544" transform="matrix(0.6814 -0.7319 0.7319 0.6814 -98.2758 2133.4983)" width="4.001" height="102.183"/>
						
							<rect x="1852.83" y="1138.564" transform="matrix(0.3186 -0.9479 0.9479 0.3186 106.0587 2590.615)" width="3.999" height="165.956"/>
						
							<rect x="2514.487" y="1017.105" transform="matrix(0.9992 -0.0408 0.0408 0.9992 -42.7844 103.5412)" width="3.999" height="166.691"/>
					</g>
				</g>
			</g>
			<polygon points="1432.639,925.945 1533.7,1146.364 1768.93,1146.364 1768.93,1122.841 1551.125,1122.841 1455.291,916.362 			"/>
		</g>
		<g>
			<g>
				<circle style="fill:#FFFFFF;" cx="1152.192" cy="763.586" r="140.393"/>
				<path d="M1152.192,905.897c-78.471,0-142.312-63.841-142.312-142.311c0-78.471,63.841-142.311,142.312-142.311
					s142.311,63.841,142.311,142.311C1294.503,842.056,1230.663,905.897,1152.192,905.897z M1152.192,625.111
					c-76.355,0-138.475,62.119-138.475,138.475c0,76.355,62.119,138.474,138.475,138.474c76.355,0,138.474-62.119,138.474-138.474
					C1290.666,687.231,1228.547,625.111,1152.192,625.111z"/>
			</g>
			<path style="fill:#FF5970;" d="M1133.487,788.468l-0.204-5.432c-0.63-10.668,2.912-21.54,12.328-32.838
				c6.692-7.943,12.124-14.635,12.124-21.745c0-7.322-4.802-12.132-15.257-12.55c-6.896,0-15.274,2.512-20.706,6.275l-7.118-22.792
				c7.543-4.393,20.093-8.573,34.924-8.573c27.619,0,40.152,15.265,40.152,32.617c0,15.896-9.825,26.351-17.76,35.137
				c-7.748,8.574-10.881,16.73-10.677,26.138v3.763H1133.487z M1128.038,817.33c0-11.085,7.748-19.029,18.628-19.029
				c11.29,0,18.612,7.943,18.816,19.029c0,10.872-7.526,19.029-18.816,19.029C1135.581,836.359,1128.038,828.202,1128.038,817.33z"
				/>
		</g>
		<g>
			<g>
				
					<rect x="1645.92" y="514.036" transform="matrix(0.8368 -0.5476 0.5476 0.8368 -33.7533 992.2529)" width="2.722" height="77.4"/>
				
					<rect x="1659.495" y="536.888" transform="matrix(0.0312 -0.9995 0.9995 0.0312 1111.8119 2223.5872)" width="86.964" height="2.722"/>
				
					<rect x="1716.718" y="552.511" transform="matrix(0.4911 -0.8711 0.8711 0.4911 409.6829 1809.052)" width="73.039" height="2.722"/>
			</g>
			<g>
				<path style="fill:#FFD966;" d="M1805.401,719.174c0-55.817-45.249-101.066-101.066-101.066s-101.066,45.249-101.066,101.066
					c0,29.916,13.008,56.786,33.665,75.291v53.029h134.802v-53.029C1792.393,775.96,1805.401,749.09,1805.401,719.174z"/>
				<rect x="1636.934" y="879.519" width="134.802" height="42.144"/>
				<path d="M1642.932,708.93l-3.256-0.16c1.616-32.859,19.448-41.399,32.721-44.964l0.846,3.148
					C1653.446,672.271,1644.098,685.217,1642.932,708.93z"/>
			</g>
		</g>
		<g>
			<path style="fill:#D2D2D2;" d="M2328.11,377.502c-7.045-8.938-15.422-16.197-24.622-21.735l11.326-28.927l-28.428-11.134
				l-11.328,28.914c-20.843-4.353-43.079-1.442-62.562,9.229l-19.219-24.382l-23.981,18.903l19.219,24.382
				c-14.93,16.457-22.954,37.398-23.589,58.681l-30.76,4.263l4.188,30.242l30.771-4.257c3.236,10.239,8.339,20.08,15.384,29.017
				c7.042,8.933,15.422,16.197,24.622,21.735l-11.325,28.927l28.428,11.134l11.328-28.914c20.843,4.353,43.075,1.437,62.567-9.233
				l19.219,24.382l23.981-18.903l-19.219-24.382c14.922-16.457,22.949-37.394,23.584-58.677l30.76-4.263l-4.188-30.242
				l-30.772,4.257C2340.258,396.28,2335.152,386.435,2328.11,377.502z M2287.581,473.772c-21.91,17.271-53.672,13.511-70.943-8.4
				c-17.271-21.911-13.511-53.672,8.4-70.943c21.911-17.271,53.672-13.511,70.943,8.4
				C2313.252,424.739,2309.492,456.5,2287.581,473.772z"/>
			<path style="fill:#D2D2D2;" d="M2552.961,520.769c-7.3-3.251-14.879-5.023-22.407-5.457l-2.419-21.679l-21.307,2.375
				l2.413,21.672c-14.375,4.109-27.242,13.188-35.861,26.189l-19.915-8.868l-8.722,19.587l19.915,8.868
				c-3.898,15.108-2.038,30.745,4.526,44.178l-17.722,12.706l12.49,17.425l17.731-12.706c5.359,5.305,11.747,9.752,19.047,13.003
				c7.296,3.249,14.879,5.023,22.407,5.457l2.419,21.679l21.306-2.375l-2.413-21.672c14.375-4.109,27.238-13.19,35.863-26.193
				l19.915,8.868l8.722-19.587l-19.915-8.868c3.893-15.106,2.036-30.741-4.528-44.175l17.722-12.706l-12.49-17.425l-17.731,12.706
				C2566.649,528.467,2560.257,524.018,2552.961,520.769z M2559.249,593.845c-7.969,17.896-28.937,25.943-46.833,17.974
				c-17.896-7.969-25.943-28.936-17.974-46.833c7.969-17.896,28.937-25.943,46.833-17.974
				C2559.171,554.981,2567.218,575.948,2559.249,593.845z"/>
		</g>
		<g>
			<g>
				<rect x="399.228" y="384.764" style="fill:#FFFFFF;" width="461.121" height="222.52"/>
				<path d="M862.269,609.203H397.31V382.846h464.959V609.203z M401.147,605.366h457.285V386.683H401.147V605.366z"/>
			</g>
			<g style="opacity:0.6;">
				<rect x="443.716" y="425.048" style="fill:#D2D2D2;" width="372.146" height="3.837"/>
				<rect x="443.716" y="494.106" style="fill:#D2D2D2;" width="372.146" height="3.837"/>
				<rect x="443.716" y="563.164" style="fill:#D2D2D2;" width="372.146" height="3.837"/>
			</g>
			<polygon points="668.278,553.09 601.845,454.717 530.625,550.101 482.219,508.064 457.861,549.472 454.414,547.443 
				481.21,501.89 529.997,544.257 602.009,447.812 668.576,546.383 778.135,411.637 781.239,414.161 			"/>
		</g>
		<g>
			<path style="fill:#D2D2D2;" d="M1366.123,1523.664h-203.501v-83.288h203.501V1523.664z M1166.622,1519.664h195.501v-75.288
				h-195.501V1519.664z"/>
			<path style="fill:#D2D2D2;" d="M1565.624,1523.664h-203.501v-83.288h203.501V1523.664z M1366.123,1519.664h195.501v-75.288
				h-195.501V1519.664z"/>
		</g>
		<rect x="303.333" y="1713.102" width="2393.333" height="4"/>
	</g>
</g>
</svg>
